<svg data-v-423bf9ae="" xmlns="http://www.w3.org/2000/svg" viewBox="0 0 316 101" class="iconLeftSlogan"><!----><!----><!----><g data-v-423bf9ae="" id="0c3c1ac3-165f-4211-99d8-73057a648132" fill="white" transform="matrix(7.6530609130859375,0,0,7.6530609130859375,105.52677917480469,-25.71428108215332)"><path d="M5.04 4.48L5.04 4.48Q5.10 4.70 5.10 5.04L5.10 5.04L5.10 5.04Q5.10 5.36 5.04 5.60L5.04 5.60L5.04 5.60Q5.10 5.82 5.10 6.16L5.10 6.16L5.10 6.16Q5.10 6.48 5.04 6.72L5.04 6.72L5.04 6.72Q5.10 6.94 5.10 7.28L5.10 7.28L5.10 7.28Q5.10 7.60 5.04 7.84L5.04 7.84L5.04 7.84Q5.10 8.06 5.10 8.40L5.10 8.40L5.10 8.40Q5.10 8.72 5.04 8.96L5.04 8.96L5.04 8.96Q5.10 9.18 5.10 9.52L5.10 9.52L5.10 9.52Q5.10 9.84 5.04 10.08L5.04 10.08L4.48 10.08L4.48 10.08Q4.54 10.30 4.54 10.64L4.54 10.64L4.54 10.64Q4.54 10.96 4.48 11.20L4.48 11.20L1.12 11.20L1.12 11.20Q1.06 10.96 1.06 10.64L1.06 10.64L1.06 10.64Q1.06 10.30 1.12 10.08L1.12 10.08L0.56 10.08L0.56 10.08Q0.50 9.84 0.50 9.52L0.50 9.52L0.50 9.52Q0.50 9.18 0.56 8.96L0.56 8.96L0.56 8.96Q0.50 8.72 0.50 8.40L0.50 8.40L0.50 8.40Q0.50 8.06 0.56 7.84L0.56 7.84L0.56 7.84Q0.50 7.60 0.50 7.28L0.50 7.28L0.50 7.28Q0.50 6.94 0.56 6.72L0.56 6.72L0.56 6.72Q0.50 6.48 0.50 6.16L0.50 6.16L0.50 6.16Q0.50 5.82 0.56 5.60L0.56 5.60L0.56 5.60Q0.50 5.36 0.50 5.04L0.50 5.04L0.50 5.04Q0.50 4.70 0.56 4.48L0.56 4.48L0.56 4.48Q0.50 4.24 0.50 3.92L0.50 3.92L0.50 3.92Q0.50 3.58 0.56 3.36L0.56 3.36L1.68 3.36L1.68 3.36Q1.74 3.58 1.74 3.92L1.74 3.92L1.74 3.92Q1.74 4.24 1.68 4.48L1.68 4.48L1.68 4.48Q1.74 4.70 1.74 5.04L1.74 5.04L1.74 5.04Q1.74 5.36 1.68 5.60L1.68 5.60L1.68 5.60Q1.74 5.82 1.74 6.16L1.74 6.16L1.74 6.16Q1.74 6.48 1.68 6.72L1.68 6.72L1.68 6.72Q1.74 6.94 1.74 7.28L1.74 7.28L1.74 7.28Q1.74 7.60 1.68 7.84L1.68 7.84L1.68 7.84Q1.74 8.06 1.74 8.40L1.74 8.40L1.74 8.40Q1.74 8.72 1.68 8.96L1.68 8.96L1.68 8.96Q1.74 9.18 1.74 9.52L1.74 9.52L1.74 9.52Q1.74 9.84 1.68 10.08L1.68 10.08L3.92 10.08L3.92 10.08Q3.86 9.84 3.86 9.52L3.86 9.52L3.86 9.52Q3.86 9.18 3.92 8.96L3.92 8.96L3.92 8.96Q3.86 8.72 3.86 8.40L3.86 8.40L3.86 8.40Q3.86 8.06 3.92 7.84L3.92 7.84L3.92 7.84Q3.86 7.60 3.86 7.28L3.86 7.28L3.86 7.28Q3.86 6.94 3.92 6.72L3.92 6.72L3.92 6.72Q3.86 6.48 3.86 6.16L3.86 6.16L3.86 6.16Q3.86 5.82 3.92 5.60L3.92 5.60L3.92 5.60Q3.86 5.36 3.86 5.04L3.86 5.04L3.86 5.04Q3.86 4.70 3.92 4.48L3.92 4.48L3.92 4.48Q3.86 4.24 3.86 3.92L3.86 3.92L3.86 3.92Q3.86 3.58 3.92 3.36L3.92 3.36L5.04 3.36L5.04 3.36Q5.10 3.58 5.10 3.92L5.10 3.92L5.10 3.92Q5.10 4.24 5.04 4.48L5.04 4.48ZM10.64 4.48L10.64 4.48Q10.70 4.70 10.70 5.04L10.70 5.04L10.70 5.04Q10.70 5.36 10.64 5.60L10.64 5.60L10.64 5.60Q10.70 5.82 10.70 6.16L10.70 6.16L10.70 6.16Q10.70 6.48 10.64 6.72L10.64 6.72L10.64 6.72Q10.70 6.94 10.70 7.28L10.70 7.28L10.70 7.28Q10.70 7.60 10.64 7.84L10.64 7.84L10.22 7.84L10.22 7.84Q10.28 8.06 10.28 8.40L10.28 8.40L10.28 8.40Q10.28 8.72 10.22 8.96L10.22 8.96L10.22 8.96Q10.28 9.18 10.28 9.52L10.28 9.52L10.28 9.52Q10.28 9.84 10.22 10.08L10.22 10.08L9.94 10.08L9.94 10.08Q10.00 10.30 10.00 10.64L10.00 10.64L10.00 10.64Q10.00 10.96 9.94 11.20L9.94 11.20L9.10 11.20L9.10 11.20Q9.04 10.96 9.04 10.64L9.04 10.64L9.04 10.64Q9.04 10.30 9.10 10.08L9.10 10.08L8.82 10.08L8.82 10.08Q8.76 9.84 8.76 9.52L8.76 9.52L8.76 9.52Q8.76 9.18 8.82 8.96L8.82 8.96L7.98 8.96L7.98 8.96Q8.04 9.18 8.04 9.52L8.04 9.52L8.04 9.52Q8.04 9.84 7.98 10.08L7.98 10.08L7.70 10.08L7.70 10.08Q7.76 10.30 7.76 10.64L7.76 10.64L7.76 10.64Q7.76 10.96 7.70 11.20L7.70 11.20L6.86 11.20L6.86 11.20Q6.80 10.96 6.80 10.64L6.80 10.64L6.80 10.64Q6.80 10.30 6.86 10.08L6.86 10.08L6.58 10.08L6.58 10.08Q6.52 9.84 6.52 9.52L6.52 9.52L6.52 9.52Q6.52 9.18 6.58 8.96L6.58 8.96L6.58 8.96Q6.52 8.72 6.52 8.40L6.52 8.40L6.52 8.40Q6.52 8.06 6.58 7.84L6.58 7.84L6.16 7.84L6.16 7.84Q6.10 7.60 6.10 7.28L6.10 7.28L6.10 7.28Q6.10 6.94 6.16 6.72L6.16 6.72L6.16 6.72Q6.10 6.48 6.10 6.16L6.10 6.16L6.10 6.16Q6.10 5.82 6.16 5.60L6.16 5.60L6.16 5.60Q6.10 5.36 6.10 5.04L6.10 5.04L6.10 5.04Q6.10 4.70 6.16 4.48L6.16 4.48L6.16 4.48Q6.10 4.24 6.10 3.92L6.10 3.92L6.10 3.92Q6.10 3.58 6.16 3.36L6.16 3.36L7.28 3.36L7.28 3.36Q7.34 3.58 7.34 3.92L7.34 3.92L7.34 3.92Q7.34 4.24 7.28 4.48L7.28 4.48L7.28 4.48Q7.34 4.70 7.34 5.04L7.34 5.04L7.34 5.04Q7.34 5.36 7.28 5.60L7.28 5.60L7.28 5.60Q7.34 5.82 7.34 6.16L7.34 6.16L7.34 6.16Q7.34 6.48 7.28 6.72L7.28 6.72L7.28 6.72Q7.34 6.94 7.34 7.28L7.34 7.28L7.34 7.28Q7.34 7.60 7.28 7.84L7.28 7.84L7.28 7.84Q7.34 8.06 7.34 8.40L7.34 8.40L7.34 8.40Q7.34 8.72 7.28 8.96L7.28 8.96L7.70 8.96L7.70 8.96Q7.64 8.72 7.64 8.40L7.64 8.40L7.64 8.40Q7.64 8.06 7.70 7.84L7.70 7.84L7.98 7.84L7.98 7.84Q7.92 7.60 7.92 7.28L7.92 7.28L7.92 7.28Q7.92 6.94 7.98 6.72L7.98 6.72L7.98 6.72Q7.92 6.48 7.92 6.16L7.92 6.16L7.92 6.16Q7.92 5.82 7.98 5.60L7.98 5.60L7.98 5.60Q7.92 5.36 7.92 5.04L7.92 5.04L7.92 5.04Q7.92 4.70 7.98 4.48L7.98 4.48L7.98 4.48Q7.92 4.24 7.92 3.92L7.92 3.92L7.92 3.92Q7.92 3.58 7.98 3.36L7.98 3.36L8.82 3.36L8.82 3.36Q8.88 3.58 8.88 3.92L8.88 3.92L8.88 3.92Q8.88 4.24 8.82 4.48L8.82 4.48L8.82 4.48Q8.88 4.70 8.88 5.04L8.88 5.04L8.88 5.04Q8.88 5.36 8.82 5.60L8.82 5.60L8.82 5.60Q8.88 5.82 8.88 6.16L8.88 6.16L8.88 6.16Q8.88 6.48 8.82 6.72L8.82 6.72L8.82 6.72Q8.88 6.94 8.88 7.28L8.88 7.28L8.88 7.28Q8.88 7.60 8.82 7.84L8.82 7.84L9.10 7.84L9.10 7.84Q9.16 8.06 9.16 8.40L9.16 8.40L9.16 8.40Q9.16 8.72 9.10 8.96L9.10 8.96L9.52 8.96L9.52 8.96Q9.46 8.72 9.46 8.40L9.46 8.40L9.46 8.40Q9.46 8.06 9.52 7.84L9.52 7.84L9.52 7.84Q9.46 7.60 9.46 7.28L9.46 7.28L9.46 7.28Q9.46 6.94 9.52 6.72L9.52 6.72L9.52 6.72Q9.46 6.48 9.46 6.16L9.46 6.16L9.46 6.16Q9.46 5.82 9.52 5.60L9.52 5.60L9.52 5.60Q9.46 5.36 9.46 5.04L9.46 5.04L9.46 5.04Q9.46 4.70 9.52 4.48L9.52 4.48L9.52 4.48Q9.46 4.24 9.46 3.92L9.46 3.92L9.46 3.92Q9.46 3.58 9.52 3.36L9.52 3.36L10.64 3.36L10.64 3.36Q10.70 3.58 10.70 3.92L10.70 3.92L10.70 3.92Q10.70 4.24 10.64 4.48L10.64 4.48ZM16.30 9.52L16.30 9.52Q16.30 9.84 16.24 10.08L16.24 10.08L16.24 10.08Q16.30 10.30 16.30 10.64L16.30 10.64L16.30 10.64Q16.30 10.96 16.24 11.20L16.24 11.20L15.12 11.20L15.12 11.20Q15.06 10.96 15.06 10.64L15.06 10.64L15.06 10.64Q15.06 10.30 15.12 10.08L15.12 10.08L15.12 10.08Q15.06 9.84 15.06 9.52L15.06 9.52L15.06 9.52Q15.06 9.18 15.12 8.96L15.12 8.96L12.88 8.96L12.88 8.96Q12.94 9.18 12.94 9.52L12.94 9.52L12.94 9.52Q12.94 9.84 12.88 10.08L12.88 10.08L12.88 10.08Q12.94 10.30 12.94 10.64L12.94 10.64L12.94 10.64Q12.94 10.96 12.88 11.20L12.88 11.20L11.76 11.20L11.76 11.20Q11.70 10.96 11.70 10.64L11.70 10.64L11.70 10.64Q11.70 10.30 11.76 10.08L11.76 10.08L11.76 10.08Q11.70 9.84 11.70 9.52L11.70 9.52L11.70 9.52Q11.70 9.18 11.76 8.96L11.76 8.96L12.18 8.96L12.18 8.96Q12.12 8.72 12.12 8.40L12.12 8.40L12.12 8.40Q12.12 8.06 12.18 7.84L12.18 7.84L12.18 7.84Q12.12 7.60 12.12 7.28L12.12 7.28L12.12 7.28Q12.12 6.94 12.18 6.72L12.18 6.72L12.46 6.72L12.46 6.72Q12.40 6.48 12.40 6.16L12.40 6.16L12.40 6.16Q12.40 5.82 12.46 5.60L12.46 5.60L12.88 5.60L12.88 5.60Q12.82 5.36 12.82 5.04L12.82 5.04L12.82 5.04Q12.82 4.70 12.88 4.48L12.88 4.48L13.16 4.48L13.16 4.48Q13.10 4.24 13.10 3.92L13.10 3.92L13.10 3.92Q13.10 3.58 13.16 3.36L13.16 3.36L14.84 3.36L14.84 3.36Q14.90 3.58 14.90 3.92L14.90 3.92L14.90 3.92Q14.90 4.24 14.84 4.48L14.84 4.48L15.12 4.48L15.12 4.48Q15.18 4.70 15.18 5.04L15.18 5.04L15.18 5.04Q15.18 5.36 15.12 5.60L15.12 5.60L15.54 5.60L15.54 5.60Q15.60 5.82 15.60 6.16L15.60 6.16L15.60 6.16Q15.60 6.48 15.54 6.72L15.54 6.72L15.82 6.72L15.82 6.72Q15.88 6.94 15.88 7.28L15.88 7.28L15.88 7.28Q15.88 7.60 15.82 7.84L15.82 7.84L15.82 7.84Q15.88 8.06 15.88 8.40L15.88 8.40L15.88 8.40Q15.88 8.72 15.82 8.96L15.82 8.96L16.24 8.96L16.24 8.96Q16.30 9.18 16.30 9.52L16.30 9.52ZM14.70 7.84L14.70 7.84Q14.64 7.60 14.64 7.28L14.64 7.28L14.64 7.28Q14.64 6.94 14.70 6.72L14.70 6.72L14.42 6.72L14.42 6.72Q14.36 6.48 14.36 6.16L14.36 6.16L14.36 6.16Q14.36 5.82 14.42 5.60L14.42 5.60L13.58 5.60L13.58 5.60Q13.64 5.82 13.64 6.16L13.64 6.16L13.64 6.16Q13.64 6.48 13.58 6.72L13.58 6.72L13.30 6.72L13.30 6.72Q13.36 6.94 13.36 7.28L13.36 7.28L13.36 7.28Q13.36 7.60 13.30 7.84L13.30 7.84L14.70 7.84ZM21.84 6.72L21.84 6.72Q21.90 6.94 21.90 7.28L21.90 7.28L21.90 7.28Q21.90 7.60 21.84 7.84L21.84 7.84L21.84 7.84Q21.90 8.06 21.90 8.40L21.90 8.40L21.90 8.40Q21.90 8.72 21.84 8.96L21.84 8.96L21.84 8.96Q21.90 9.18 21.90 9.52L21.90 9.52L21.90 9.52Q21.90 9.84 21.84 10.08L21.84 10.08L21.28 10.08L21.28 10.08Q21.34 10.30 21.34 10.64L21.34 10.64L21.34 10.64Q21.34 10.96 21.28 11.20L21.28 11.20L18.48 11.20L18.48 11.20Q18.42 10.96 18.42 10.64L18.42 10.64L18.42 10.64Q18.42 10.30 18.48 10.08L18.48 10.08L17.92 10.08L17.92 10.08Q17.86 9.84 17.86 9.52L17.86 9.52L17.86 9.52Q17.86 9.18 17.92 8.96L17.92 8.96L17.36 8.96L17.36 8.96Q17.30 8.72 17.30 8.40L17.30 8.40L17.30 8.40Q17.30 8.06 17.36 7.84L17.36 7.84L17.36 7.84Q17.30 7.60 17.30 7.28L17.30 7.28L17.30 7.28Q17.30 6.94 17.36 6.72L17.36 6.72L17.36 6.72Q17.30 6.48 17.30 6.16L17.30 6.16L17.30 6.16Q17.30 5.82 17.36 5.60L17.36 5.60L17.92 5.60L17.92 5.60Q17.86 5.36 17.86 5.04L17.86 5.04L17.86 5.04Q17.86 4.70 17.92 4.48L17.92 4.48L18.48 4.48L18.48 4.48Q18.42 4.24 18.42 3.92L18.42 3.92L18.42 3.92Q18.42 3.58 18.48 3.36L18.48 3.36L21.28 3.36L21.28 3.36Q21.34 3.58 21.34 3.92L21.34 3.92L21.34 3.92Q21.34 4.24 21.28 4.48L21.28 4.48L21.84 4.48L21.84 4.48Q21.90 4.70 21.90 5.04L21.90 5.04L21.90 5.04Q21.90 5.36 21.84 5.60L21.84 5.60L20.72 5.60L20.72 5.60Q20.66 5.36 20.66 5.04L20.66 5.04L20.66 5.04Q20.66 4.70 20.72 4.48L20.72 4.48L19.04 4.48L19.04 4.48Q19.10 4.70 19.10 5.04L19.10 5.04L19.10 5.04Q19.10 5.36 19.04 5.60L19.04 5.60L18.48 5.60L18.48 5.60Q18.54 5.82 18.54 6.16L18.54 6.16L18.54 6.16Q18.54 6.48 18.48 6.72L18.48 6.72L18.48 6.72Q18.54 6.94 18.54 7.28L18.54 7.28L18.54 7.28Q18.54 7.60 18.48 7.84L18.48 7.84L18.48 7.84Q18.54 8.06 18.54 8.40L18.54 8.40L18.54 8.40Q18.54 8.72 18.48 8.96L18.48 8.96L19.04 8.96L19.04 8.96Q19.10 9.18 19.10 9.52L19.10 9.52L19.10 9.52Q19.10 9.84 19.04 10.08L19.04 10.08L20.72 10.08L20.72 10.08Q20.66 9.84 20.66 9.52L20.66 9.52L20.66 9.52Q20.66 9.18 20.72 8.96L20.72 8.96L20.72 8.96Q20.66 8.72 20.66 8.40L20.66 8.40L20.66 8.40Q20.66 8.06 20.72 7.84L20.72 7.84L19.88 7.84L19.88 7.84Q19.82 7.60 19.82 7.28L19.82 7.28L19.82 7.28Q19.82 6.94 19.88 6.72L19.88 6.72L21.84 6.72ZM27.50 9.52L27.50 9.52Q27.50 9.84 27.44 10.08L27.44 10.08L27.44 10.08Q27.50 10.30 27.50 10.64L27.50 10.64L27.50 10.64Q27.50 10.96 27.44 11.20L27.44 11.20L26.32 11.20L26.32 11.20Q26.26 10.96 26.26 10.64L26.26 10.64L26.26 10.64Q26.26 10.30 26.32 10.08L26.32 10.08L26.32 10.08Q26.26 9.84 26.26 9.52L26.26 9.52L26.26 9.52Q26.26 9.18 26.32 8.96L26.32 8.96L24.08 8.96L24.08 8.96Q24.14 9.18 24.14 9.52L24.14 9.52L24.14 9.52Q24.14 9.84 24.08 10.08L24.08 10.08L24.08 10.08Q24.14 10.30 24.14 10.64L24.14 10.64L24.14 10.64Q24.14 10.96 24.08 11.20L24.08 11.20L22.96 11.20L22.96 11.20Q22.90 10.96 22.90 10.64L22.90 10.64L22.90 10.64Q22.90 10.30 22.96 10.08L22.96 10.08L22.96 10.08Q22.90 9.84 22.90 9.52L22.90 9.52L22.90 9.52Q22.90 9.18 22.96 8.96L22.96 8.96L23.38 8.96L23.38 8.96Q23.32 8.72 23.32 8.40L23.32 8.40L23.32 8.40Q23.32 8.06 23.38 7.84L23.38 7.84L23.38 7.84Q23.32 7.60 23.32 7.28L23.32 7.28L23.32 7.28Q23.32 6.94 23.38 6.72L23.38 6.72L23.66 6.72L23.66 6.72Q23.60 6.48 23.60 6.16L23.60 6.16L23.60 6.16Q23.60 5.82 23.66 5.60L23.66 5.60L24.08 5.60L24.08 5.60Q24.02 5.36 24.02 5.04L24.02 5.04L24.02 5.04Q24.02 4.70 24.08 4.48L24.08 4.48L24.36 4.48L24.36 4.48Q24.30 4.24 24.30 3.92L24.30 3.92L24.30 3.92Q24.30 3.58 24.36 3.36L24.36 3.36L26.04 3.36L26.04 3.36Q26.10 3.58 26.10 3.92L26.10 3.92L26.10 3.92Q26.10 4.24 26.04 4.48L26.04 4.48L26.32 4.48L26.32 4.48Q26.38 4.70 26.38 5.04L26.38 5.04L26.38 5.04Q26.38 5.36 26.32 5.60L26.32 5.60L26.74 5.60L26.74 5.60Q26.80 5.82 26.80 6.16L26.80 6.16L26.80 6.16Q26.80 6.48 26.74 6.72L26.74 6.72L27.02 6.72L27.02 6.72Q27.08 6.94 27.08 7.28L27.08 7.28L27.08 7.28Q27.08 7.60 27.02 7.84L27.02 7.84L27.02 7.84Q27.08 8.06 27.08 8.40L27.08 8.40L27.08 8.40Q27.08 8.72 27.02 8.96L27.02 8.96L27.44 8.96L27.44 8.96Q27.50 9.18 27.50 9.52L27.50 9.52ZM25.90 7.84L25.90 7.84Q25.84 7.60 25.84 7.28L25.84 7.28L25.84 7.28Q25.84 6.94 25.90 6.72L25.90 6.72L25.62 6.72L25.62 6.72Q25.56 6.48 25.56 6.16L25.56 6.16L25.56 6.16Q25.56 5.82 25.62 5.60L25.62 5.60L24.78 5.60L24.78 5.60Q24.84 5.82 24.84 6.16L24.84 6.16L24.84 6.16Q24.84 6.48 24.78 6.72L24.78 6.72L24.50 6.72L24.50 6.72Q24.56 6.94 24.56 7.28L24.56 7.28L24.56 7.28Q24.56 7.60 24.50 7.84L24.50 7.84L25.90 7.84Z"></path></g><!----><g data-v-423bf9ae="" id="3cfd1042-05d2-4854-8c8f-bfb7b1f7bfef" transform="matrix(1.0554388761520386,0,0,1.0554388761520386,-7.101891994476318,-2.266986131668091)" stroke="none" fill="white"><switch><g><path d="M91.8 70.2l-4.7-13.8c-1.2-3.5-3.8-6.5-7.1-8.2l-11.6-5.8C64 47.6 57.4 51 50 51c-7.4 0-14-3.3-18.4-8.6L20 48.2c-3.3 1.7-5.9 4.6-7.1 8.2L8.2 70.2c-1.9 5.6 1.5 11.6 7.2 12.9l7.1 1.6-2.9-17.5c-.4-2.3.3-4.7 1.8-6.5 1.5-1.8 3.7-2.8 6.1-2.8h45.1c2.3 0 4.6 1 6.1 2.8 1.5 1.8 2.2 4.2 1.8 6.5l-2.9 17.5 7.1-1.6c5.6-1.4 9-7.3 7.1-12.9z"></path><path d="M31.1 26.5v.4c0 10.4 8.5 18.8 18.9 18.8 10.4 0 18.9-8.4 18.9-18.8v-.4c-5.4.6-12 .9-18.9.9-6.9 0-13.5-.3-18.9-.9zM50 22.2c16 0 29-1.6 29-3.7 0-1.1-4-2.1-10.2-2.8L66 5.6c-.6-2.3-3-3.6-5.2-2.9l-9.6 2.9c-.8.2-1.6.2-2.4 0l-9.6-2.9c-2.3-.7-4.6.6-5.2 2.9l-2.8 10.2c-6.3.7-10.2 1.7-10.2 2.8 0 2 13 3.6 29 3.6zM72.5 63h-45c-1.8 0-3.1 1.6-2.8 3.3l4.8 28.8c.2 1.4 1.4 2.4 2.8 2.4h35.4c1.4 0 2.6-1 2.8-2.4l4.8-28.8c.4-1.7-1-3.3-2.8-3.3zM50 83.8c-1.9 0-3.5-1.6-3.5-3.5s1.6-3.5 3.5-3.5 3.5 1.6 3.5 3.5-1.6 3.5-3.5 3.5z"></path></g></switch></g><!----><g data-v-423bf9ae="" id="f8c6ef68-6240-4e61-979b-79e6e04b2352" fill="white" transform="matrix(3.0209450721740723,0,0,3.0209450721740723,106.99696350097656,49.84962463378906)"><path d="M4.82 5.04L4.82 5.04Q4.82 5.36 4.76 5.60L4.76 5.60L4.34 5.60L4.34 5.60Q4.40 5.82 4.40 6.16L4.40 6.16L4.40 6.16Q4.40 6.48 4.34 6.72L4.34 6.72L3.50 6.72L3.50 6.72Q3.56 6.94 3.56 7.28L3.56 7.28L3.56 7.28Q3.56 7.60 3.50 7.84L3.50 7.84L2.66 7.84L2.66 7.84Q2.72 8.06 2.72 8.40L2.72 8.40L2.72 8.40Q2.72 8.72 2.66 8.96L2.66 8.96L1.96 8.96L1.96 8.96Q2.02 9.18 2.02 9.52L2.02 9.52L2.02 9.52Q2.02 9.84 1.96 10.08L1.96 10.08L4.76 10.08L4.76 10.08Q4.82 10.30 4.82 10.64L4.82 10.64L4.82 10.64Q4.82 10.96 4.76 11.20L4.76 11.20L0.84 11.20L0.84 11.20Q0.78 10.96 0.78 10.64L0.78 10.64L0.78 10.64Q0.78 10.30 0.84 10.08L0.84 10.08L0.84 10.08Q0.78 9.84 0.78 9.52L0.78 9.52L0.78 9.52Q0.78 9.18 0.84 8.96L0.84 8.96L1.54 8.96L1.54 8.96Q1.48 8.72 1.48 8.40L1.48 8.40L1.48 8.40Q1.48 8.06 1.54 7.84L1.54 7.84L2.38 7.84L2.38 7.84Q2.32 7.60 2.32 7.28L2.32 7.28L2.32 7.28Q2.32 6.94 2.38 6.72L2.38 6.72L3.22 6.72L3.22 6.72Q3.16 6.48 3.16 6.16L3.16 6.16L3.16 6.16Q3.16 5.82 3.22 5.60L3.22 5.60L3.64 5.60L3.64 5.60Q3.58 5.36 3.58 5.04L3.58 5.04L3.58 5.04Q3.58 4.70 3.64 4.48L3.64 4.48L0.84 4.48L0.84 4.48Q0.78 4.24 0.78 3.92L0.78 3.92L0.78 3.92Q0.78 3.58 0.84 3.36L0.84 3.36L4.76 3.36L4.76 3.36Q4.82 3.58 4.82 3.92L4.82 3.92L4.82 3.92Q4.82 4.24 4.76 4.48L4.76 4.48L4.76 4.48Q4.82 4.70 4.82 5.04L4.82 5.04ZM10.64 10.08L10.64 10.08Q10.70 10.30 10.70 10.64L10.70 10.64L10.70 10.64Q10.70 10.96 10.64 11.20L10.64 11.20L6.72 11.20L6.72 11.20Q6.66 10.96 6.66 10.64L6.66 10.64L6.66 10.64Q6.66 10.30 6.72 10.08L6.72 10.08L6.72 10.08Q6.66 9.84 6.66 9.52L6.66 9.52L6.66 9.52Q6.66 9.18 6.72 8.96L6.72 8.96L6.16 8.96L6.16 8.96Q6.10 8.72 6.10 8.40L6.10 8.40L6.10 8.40Q6.10 8.06 6.16 7.84L6.16 7.84L6.72 7.84L6.72 7.84Q6.66 7.60 6.66 7.28L6.66 7.28L6.66 7.28Q6.66 6.94 6.72 6.72L6.72 6.72L6.72 6.72Q6.66 6.48 6.66 6.16L6.66 6.16L6.66 6.16Q6.66 5.82 6.72 5.60L6.72 5.60L6.72 5.60Q6.66 5.36 6.66 5.04L6.66 5.04L6.66 5.04Q6.66 4.70 6.72 4.48L6.72 4.48L6.72 4.48Q6.66 4.24 6.66 3.92L6.66 3.92L6.66 3.92Q6.66 3.58 6.72 3.36L6.72 3.36L7.84 3.36L7.84 3.36Q7.90 3.58 7.90 3.92L7.90 3.92L7.90 3.92Q7.90 4.24 7.84 4.48L7.84 4.48L7.84 4.48Q7.90 4.70 7.90 5.04L7.90 5.04L7.90 5.04Q7.90 5.36 7.84 5.60L7.84 5.60L7.84 5.60Q7.90 5.82 7.90 6.16L7.90 6.16L7.90 6.16Q7.90 6.48 7.84 6.72L7.84 6.72L8.40 6.72L8.40 6.72Q8.46 6.94 8.46 7.28L8.46 7.28L8.46 7.28Q8.46 7.60 8.40 7.84L8.40 7.84L7.84 7.84L7.84 7.84Q7.90 8.06 7.90 8.40L7.90 8.40L7.90 8.40Q7.90 8.72 7.84 8.96L7.84 8.96L7.84 8.96Q7.90 9.18 7.90 9.52L7.90 9.52L7.90 9.52Q7.90 9.84 7.84 10.08L7.84 10.08L10.64 10.08ZM9.30 6.16L9.30 6.16Q9.30 6.48 9.24 6.72L9.24 6.72L8.40 6.72L8.40 6.72Q8.34 6.48 8.34 6.16L8.34 6.16L8.34 6.16Q8.34 5.82 8.40 5.60L8.40 5.60L9.24 5.60L9.24 5.60Q9.30 5.82 9.30 6.16L9.30 6.16ZM16.30 3.92L16.30 3.92Q16.30 4.24 16.24 4.48L16.24 4.48L16.24 4.48Q16.30 4.70 16.30 5.04L16.30 5.04L16.30 5.04Q16.30 5.36 16.24 5.60L16.24 5.60L15.68 5.60L15.68 5.60Q15.74 5.82 15.74 6.16L15.74 6.16L15.74 6.16Q15.74 6.48 15.68 6.72L15.68 6.72L15.12 6.72L15.12 6.72Q15.18 6.94 15.18 7.28L15.18 7.28L15.18 7.28Q15.18 7.60 15.12 7.84L15.12 7.84L14.56 7.84L14.56 7.84Q14.62 8.06 14.62 8.40L14.62 8.40L14.62 8.40Q14.62 8.72 14.56 8.96L14.56 8.96L14.56 8.96Q14.62 9.18 14.62 9.52L14.62 9.52L14.62 9.52Q14.62 9.84 14.56 10.08L14.56 10.08L14.56 10.08Q14.62 10.30 14.62 10.64L14.62 10.64L14.62 10.64Q14.62 10.96 14.56 11.20L14.56 11.20L13.44 11.20L13.44 11.20Q13.38 10.96 13.38 10.64L13.38 10.64L13.38 10.64Q13.38 10.30 13.44 10.08L13.44 10.08L13.44 10.08Q13.38 9.84 13.38 9.52L13.38 9.52L13.38 9.52Q13.38 9.18 13.44 8.96L13.44 8.96L13.44 8.96Q13.38 8.72 13.38 8.40L13.38 8.40L13.38 8.40Q13.38 8.06 13.44 7.84L13.44 7.84L12.88 7.84L12.88 7.84Q12.82 7.60 12.82 7.28L12.82 7.28L12.82 7.28Q12.82 6.94 12.88 6.72L12.88 6.72L12.32 6.72L12.32 6.72Q12.26 6.48 12.26 6.16L12.26 6.16L12.26 6.16Q12.26 5.82 12.32 5.60L12.32 5.60L11.76 5.60L11.76 5.60Q11.70 5.36 11.70 5.04L11.70 5.04L11.70 5.04Q11.70 4.70 11.76 4.48L11.76 4.48L11.76 4.48Q11.70 4.24 11.70 3.92L11.70 3.92L11.70 3.92Q11.70 3.58 11.76 3.36L11.76 3.36L12.88 3.36L12.88 3.36Q12.94 3.58 12.94 3.92L12.94 3.92L12.94 3.92Q12.94 4.24 12.88 4.48L12.88 4.48L12.88 4.48Q12.94 4.70 12.94 5.04L12.94 5.04L12.94 5.04Q12.94 5.36 12.88 5.60L12.88 5.60L13.44 5.60L13.44 5.60Q13.50 5.82 13.50 6.16L13.50 6.16L13.50 6.16Q13.50 6.48 13.44 6.72L13.44 6.72L14.56 6.72L14.56 6.72Q14.50 6.48 14.50 6.16L14.50 6.16L14.50 6.16Q14.50 5.82 14.56 5.60L14.56 5.60L15.12 5.60L15.12 5.60Q15.06 5.36 15.06 5.04L15.06 5.04L15.06 5.04Q15.06 4.70 15.12 4.48L15.12 4.48L15.12 4.48Q15.06 4.24 15.06 3.92L15.06 3.92L15.06 3.92Q15.06 3.58 15.12 3.36L15.12 3.36L16.24 3.36L16.24 3.36Q16.30 3.58 16.30 3.92L16.30 3.92ZM27.44 4.48L27.44 4.48Q27.50 4.70 27.50 5.04L27.50 5.04L27.50 5.04Q27.50 5.36 27.44 5.60L27.44 5.60L27.44 5.60Q27.50 5.82 27.50 6.16L27.50 6.16L27.50 6.16Q27.50 6.48 27.44 6.72L27.44 6.72L27.44 6.72Q27.50 6.94 27.50 7.28L27.50 7.28L27.50 7.28Q27.50 7.60 27.44 7.84L27.44 7.84L27.44 7.84Q27.50 8.06 27.50 8.40L27.50 8.40L27.50 8.40Q27.50 8.72 27.44 8.96L27.44 8.96L27.44 8.96Q27.50 9.18 27.50 9.52L27.50 9.52L27.50 9.52Q27.50 9.84 27.44 10.08L27.44 10.08L27.44 10.08Q27.50 10.30 27.50 10.64L27.50 10.64L27.50 10.64Q27.50 10.96 27.44 11.20L27.44 11.20L26.32 11.20L26.32 11.20Q26.26 10.96 26.26 10.64L26.26 10.64L26.26 10.64Q26.26 10.30 26.32 10.08L26.32 10.08L26.32 10.08Q26.26 9.84 26.26 9.52L26.26 9.52L26.26 9.52Q26.26 9.18 26.32 8.96L26.32 8.96L26.32 8.96Q26.26 8.72 26.26 8.40L26.26 8.40L26.26 8.40Q26.26 8.06 26.32 7.84L26.32 7.84L24.08 7.84L24.08 7.84Q24.14 8.06 24.14 8.40L24.14 8.40L24.14 8.40Q24.14 8.72 24.08 8.96L24.08 8.96L24.08 8.96Q24.14 9.18 24.14 9.52L24.14 9.52L24.14 9.52Q24.14 9.84 24.08 10.08L24.08 10.08L24.08 10.08Q24.14 10.30 24.14 10.64L24.14 10.64L24.14 10.64Q24.14 10.96 24.08 11.20L24.08 11.20L22.96 11.20L22.96 11.20Q22.90 10.96 22.90 10.64L22.90 10.64L22.90 10.64Q22.90 10.30 22.96 10.08L22.96 10.08L22.96 10.08Q22.90 9.84 22.90 9.52L22.90 9.52L22.90 9.52Q22.90 9.18 22.96 8.96L22.96 8.96L22.96 8.96Q22.90 8.72 22.90 8.40L22.90 8.40L22.90 8.40Q22.90 8.06 22.96 7.84L22.96 7.84L22.96 7.84Q22.90 7.60 22.90 7.28L22.90 7.28L22.90 7.28Q22.90 6.94 22.96 6.72L22.96 6.72L22.96 6.72Q22.90 6.48 22.90 6.16L22.90 6.16L22.90 6.16Q22.90 5.82 22.96 5.60L22.96 5.60L22.96 5.60Q22.90 5.36 22.90 5.04L22.90 5.04L22.90 5.04Q22.90 4.70 22.96 4.48L22.96 4.48L22.96 4.48Q22.90 4.24 22.90 3.92L22.90 3.92L22.90 3.92Q22.90 3.58 22.96 3.36L22.96 3.36L24.08 3.36L24.08 3.36Q24.14 3.58 24.14 3.92L24.14 3.92L24.14 3.92Q24.14 4.24 24.08 4.48L24.08 4.48L24.08 4.48Q24.14 4.70 24.14 5.04L24.14 5.04L24.14 5.04Q24.14 5.36 24.08 5.60L24.08 5.60L24.08 5.60Q24.14 5.82 24.14 6.16L24.14 6.16L24.14 6.16Q24.14 6.48 24.08 6.72L24.08 6.72L26.32 6.72L26.32 6.72Q26.26 6.48 26.26 6.16L26.26 6.16L26.26 6.16Q26.26 5.82 26.32 5.60L26.32 5.60L26.32 5.60Q26.26 5.36 26.26 5.04L26.26 5.04L26.26 5.04Q26.26 4.70 26.32 4.48L26.32 4.48L26.32 4.48Q26.26 4.24 26.26 3.92L26.26 3.92L26.26 3.92Q26.26 3.58 26.32 3.36L26.32 3.36L27.44 3.36L27.44 3.36Q27.50 3.58 27.50 3.92L27.50 3.92L27.50 3.92Q27.50 4.24 27.44 4.48L27.44 4.48ZM33.10 9.52L33.10 9.52Q33.10 9.84 33.04 10.08L33.04 10.08L33.04 10.08Q33.10 10.30 33.10 10.64L33.10 10.64L33.10 10.64Q33.10 10.96 33.04 11.20L33.04 11.20L31.92 11.20L31.92 11.20Q31.86 10.96 31.86 10.64L31.86 10.64L31.86 10.64Q31.86 10.30 31.92 10.08L31.92 10.08L31.92 10.08Q31.86 9.84 31.86 9.52L31.86 9.52L31.86 9.52Q31.86 9.18 31.92 8.96L31.92 8.96L29.68 8.96L29.68 8.96Q29.74 9.18 29.74 9.52L29.74 9.52L29.74 9.52Q29.74 9.84 29.68 10.08L29.68 10.08L29.68 10.08Q29.74 10.30 29.74 10.64L29.74 10.64L29.74 10.64Q29.74 10.96 29.68 11.20L29.68 11.20L28.56 11.20L28.56 11.20Q28.50 10.96 28.50 10.64L28.50 10.64L28.50 10.64Q28.50 10.30 28.56 10.08L28.56 10.08L28.56 10.08Q28.50 9.84 28.50 9.52L28.50 9.52L28.50 9.52Q28.50 9.18 28.56 8.96L28.56 8.96L28.98 8.96L28.98 8.96Q28.92 8.72 28.92 8.40L28.92 8.40L28.92 8.40Q28.92 8.06 28.98 7.84L28.98 7.84L28.98 7.84Q28.92 7.60 28.92 7.28L28.92 7.28L28.92 7.28Q28.92 6.94 28.98 6.72L28.98 6.72L29.26 6.72L29.26 6.72Q29.20 6.48 29.20 6.16L29.20 6.16L29.20 6.16Q29.20 5.82 29.26 5.60L29.26 5.60L29.68 5.60L29.68 5.60Q29.62 5.36 29.62 5.04L29.62 5.04L29.62 5.04Q29.62 4.70 29.68 4.48L29.68 4.48L29.96 4.48L29.96 4.48Q29.90 4.24 29.90 3.92L29.90 3.92L29.90 3.92Q29.90 3.58 29.96 3.36L29.96 3.36L31.64 3.36L31.64 3.36Q31.70 3.58 31.70 3.92L31.70 3.92L31.70 3.92Q31.70 4.24 31.64 4.48L31.64 4.48L31.92 4.48L31.92 4.48Q31.98 4.70 31.98 5.04L31.98 5.04L31.98 5.04Q31.98 5.36 31.92 5.60L31.92 5.60L32.34 5.60L32.34 5.60Q32.40 5.82 32.40 6.16L32.40 6.16L32.40 6.16Q32.40 6.48 32.34 6.72L32.34 6.72L32.62 6.72L32.62 6.72Q32.68 6.94 32.68 7.28L32.68 7.28L32.68 7.28Q32.68 7.60 32.62 7.84L32.62 7.84L32.62 7.84Q32.68 8.06 32.68 8.40L32.68 8.40L32.68 8.40Q32.68 8.72 32.62 8.96L32.62 8.96L33.04 8.96L33.04 8.96Q33.10 9.18 33.10 9.52L33.10 9.52ZM31.50 7.84L31.50 7.84Q31.44 7.60 31.44 7.28L31.44 7.28L31.44 7.28Q31.44 6.94 31.50 6.72L31.50 6.72L31.22 6.72L31.22 6.72Q31.16 6.48 31.16 6.16L31.16 6.16L31.16 6.16Q31.16 5.82 31.22 5.60L31.22 5.60L30.38 5.60L30.38 5.60Q30.44 5.82 30.44 6.16L30.44 6.16L30.44 6.16Q30.44 6.48 30.38 6.72L30.38 6.72L30.10 6.72L30.10 6.72Q30.16 6.94 30.16 7.28L30.16 7.28L30.16 7.28Q30.16 7.60 30.10 7.84L30.10 7.84L31.50 7.84ZM38.22 10.08L38.64 10.08L38.64 10.08Q38.70 10.30 38.70 10.64L38.70 10.64L38.70 10.64Q38.70 10.96 38.64 11.20L38.64 11.20L37.52 11.20L37.52 11.20Q37.46 10.96 37.46 10.64L37.46 10.64L37.46 10.64Q37.46 10.30 37.52 10.08L37.52 10.08L37.10 10.08L37.10 10.08Q37.04 9.84 37.04 9.52L37.04 9.52L37.04 9.52Q37.04 9.18 37.10 8.96L37.10 8.96L36.26 8.96L36.26 8.96Q36.20 8.72 36.20 8.40L36.20 8.40L36.20 8.40Q36.20 8.06 36.26 7.84L36.26 7.84L35.28 7.84L35.28 7.84Q35.34 8.06 35.34 8.40L35.34 8.40L35.34 8.40Q35.34 8.72 35.28 8.96L35.28 8.96L35.28 8.96Q35.34 9.18 35.34 9.52L35.34 9.52L35.34 9.52Q35.34 9.84 35.28 10.08L35.28 10.08L35.28 10.08Q35.34 10.30 35.34 10.64L35.34 10.64L35.34 10.64Q35.34 10.96 35.28 11.20L35.28 11.20L34.16 11.20L34.16 11.20Q34.10 10.96 34.10 10.64L34.10 10.64L34.10 10.64Q34.10 10.30 34.16 10.08L34.16 10.08L34.16 10.08Q34.10 9.84 34.10 9.52L34.10 9.52L34.10 9.52Q34.10 9.18 34.16 8.96L34.16 8.96L34.16 8.96Q34.10 8.72 34.10 8.40L34.10 8.40L34.10 8.40Q34.10 8.06 34.16 7.84L34.16 7.84L34.16 7.84Q34.10 7.60 34.10 7.28L34.10 7.28L34.10 7.28Q34.10 6.94 34.16 6.72L34.16 6.72L34.16 6.72Q34.10 6.48 34.10 6.16L34.10 6.16L34.10 6.16Q34.10 5.82 34.16 5.60L34.16 5.60L34.16 5.60Q34.10 5.36 34.10 5.04L34.10 5.04L34.10 5.04Q34.10 4.70 34.16 4.48L34.16 4.48L34.16 4.48Q34.10 4.24 34.10 3.92L34.10 3.92L34.10 3.92Q34.10 3.58 34.16 3.36L34.16 3.36L35.28 3.36L35.28 3.36Q35.34 3.58 35.34 3.92L35.34 3.92L35.34 3.92Q35.34 4.24 35.28 4.48L35.28 4.48L35.28 4.48Q35.34 4.70 35.34 5.04L35.34 5.04L35.34 5.04Q35.34 5.36 35.28 5.60L35.28 5.60L35.28 5.60Q35.34 5.82 35.34 6.16L35.34 6.16L35.34 6.16Q35.34 6.48 35.28 6.72L35.28 6.72L36.26 6.72L36.26 6.72Q36.20 6.48 36.20 6.16L36.20 6.16L36.20 6.16Q36.20 5.82 36.26 5.60L36.26 5.60L37.10 5.60L37.10 5.60Q37.04 5.36 37.04 5.04L37.04 5.04L37.04 5.04Q37.04 4.70 37.10 4.48L37.10 4.48L37.52 4.48L37.52 4.48Q37.46 4.24 37.46 3.92L37.46 3.92L37.46 3.92Q37.46 3.58 37.52 3.36L37.52 3.36L38.64 3.36L38.64 3.36Q38.70 3.58 38.70 3.92L38.70 3.92L38.70 3.92Q38.70 4.24 38.64 4.48L38.64 4.48L38.22 4.48L38.22 4.48Q38.28 4.70 38.28 5.04L38.28 5.04L38.28 5.04Q38.28 5.36 38.22 5.60L38.22 5.60L37.38 5.60L37.38 5.60Q37.44 5.82 37.44 6.16L37.44 6.16L37.44 6.16Q37.44 6.48 37.38 6.72L37.38 6.72L36.68 6.72L36.68 6.72Q36.74 6.94 36.74 7.28L36.74 7.28L36.74 7.28Q36.74 7.60 36.68 7.84L36.68 7.84L37.38 7.84L37.38 7.84Q37.44 8.06 37.44 8.40L37.44 8.40L37.44 8.40Q37.44 8.72 37.38 8.96L37.38 8.96L38.22 8.96L38.22 8.96Q38.28 9.18 38.28 9.52L38.28 9.52L38.28 9.52Q38.28 9.84 38.22 10.08L38.22 10.08ZM42.56 10.08L43.40 10.08L43.40 10.08Q43.46 10.30 43.46 10.64L43.46 10.64L43.46 10.64Q43.46 10.96 43.40 11.20L43.40 11.20L40.60 11.20L40.60 11.20Q40.54 10.96 40.54 10.64L40.54 10.64L40.54 10.64Q40.54 10.30 40.60 10.08L40.60 10.08L41.44 10.08L41.44 10.08Q41.38 9.84 41.38 9.52L41.38 9.52L41.38 9.52Q41.38 9.18 41.44 8.96L41.44 8.96L41.44 8.96Q41.38 8.72 41.38 8.40L41.38 8.40L41.38 8.40Q41.38 8.06 41.44 7.84L41.44 7.84L41.44 7.84Q41.38 7.60 41.38 7.28L41.38 7.28L41.38 7.28Q41.38 6.94 41.44 6.72L41.44 6.72L41.44 6.72Q41.38 6.48 41.38 6.16L41.38 6.16L41.38 6.16Q41.38 5.82 41.44 5.60L41.44 5.60L41.44 5.60Q41.38 5.36 41.38 5.04L41.38 5.04L41.38 5.04Q41.38 4.70 41.44 4.48L41.44 4.48L40.60 4.48L40.60 4.48Q40.54 4.24 40.54 3.92L40.54 3.92L40.54 3.92Q40.54 3.58 40.60 3.36L40.60 3.36L43.40 3.36L43.40 3.36Q43.46 3.58 43.46 3.92L43.46 3.92L43.46 3.92Q43.46 4.24 43.40 4.48L43.40 4.48L42.56 4.48L42.56 4.48Q42.62 4.70 42.62 5.04L42.62 5.04L42.62 5.04Q42.62 5.36 42.56 5.60L42.56 5.60L42.56 5.60Q42.62 5.82 42.62 6.16L42.62 6.16L42.62 6.16Q42.62 6.48 42.56 6.72L42.56 6.72L42.56 6.72Q42.62 6.94 42.62 7.28L42.62 7.28L42.62 7.28Q42.62 7.60 42.56 7.84L42.56 7.84L42.56 7.84Q42.62 8.06 42.62 8.40L42.62 8.40L42.62 8.40Q42.62 8.72 42.56 8.96L42.56 8.96L42.56 8.96Q42.62 9.18 42.62 9.52L42.62 9.52L42.62 9.52Q42.62 9.84 42.56 10.08L42.56 10.08ZM49.28 7.84L47.04 7.84L47.04 7.84Q47.10 8.06 47.10 8.40L47.10 8.40L47.10 8.40Q47.10 8.72 47.04 8.96L47.04 8.96L47.04 8.96Q47.10 9.18 47.10 9.52L47.10 9.52L47.10 9.52Q47.10 9.84 47.04 10.08L47.04 10.08L49.28 10.08L49.28 10.08Q49.34 10.30 49.34 10.64L49.34 10.64L49.34 10.64Q49.34 10.96 49.28 11.20L49.28 11.20L45.92 11.20L45.92 11.20Q45.86 10.96 45.86 10.64L45.86 10.64L45.86 10.64Q45.86 10.30 45.92 10.08L45.92 10.08L45.92 10.08Q45.86 9.84 45.86 9.52L45.86 9.52L45.86 9.52Q45.86 9.18 45.92 8.96L45.92 8.96L45.92 8.96Q45.86 8.72 45.86 8.40L45.86 8.40L45.86 8.40Q45.86 8.06 45.92 7.84L45.92 7.84L45.92 7.84Q45.86 7.60 45.86 7.28L45.86 7.28L45.86 7.28Q45.86 6.94 45.92 6.72L45.92 6.72L45.92 6.72Q45.86 6.48 45.86 6.16L45.86 6.16L45.86 6.16Q45.86 5.82 45.92 5.60L45.92 5.60L45.92 5.60Q45.86 5.36 45.86 5.04L45.86 5.04L45.86 5.04Q45.86 4.70 45.92 4.48L45.92 4.48L45.92 4.48Q45.86 4.24 45.86 3.92L45.86 3.92L45.86 3.92Q45.86 3.58 45.92 3.36L45.92 3.36L49.28 3.36L49.28 3.36Q49.34 3.58 49.34 3.92L49.34 3.92L49.34 3.92Q49.34 4.24 49.28 4.48L49.28 4.48L47.04 4.48L47.04 4.48Q47.10 4.70 47.10 5.04L47.10 5.04L47.10 5.04Q47.10 5.36 47.04 5.60L47.04 5.60L47.04 5.60Q47.10 5.82 47.10 6.16L47.10 6.16L47.10 6.16Q47.10 6.48 47.04 6.72L47.04 6.72L49.28 6.72L49.28 6.72Q49.34 6.94 49.34 7.28L49.34 7.28L49.34 7.28Q49.34 7.60 49.28 7.84L49.28 7.84ZM55.02 10.08L55.44 10.08L55.44 10.08Q55.50 10.30 55.50 10.64L55.50 10.64L55.50 10.64Q55.50 10.96 55.44 11.20L55.44 11.20L54.32 11.20L54.32 11.20Q54.26 10.96 54.26 10.64L54.26 10.64L54.26 10.64Q54.26 10.30 54.32 10.08L54.32 10.08L53.90 10.08L53.90 10.08Q53.84 9.84 53.84 9.52L53.84 9.52L53.84 9.52Q53.84 9.18 53.90 8.96L53.90 8.96L53.48 8.96L53.48 8.96Q53.42 8.72 53.42 8.40L53.42 8.40L53.42 8.40Q53.42 8.06 53.48 7.84L53.48 7.84L52.08 7.84L52.08 7.84Q52.14 8.06 52.14 8.40L52.14 8.40L52.14 8.40Q52.14 8.72 52.08 8.96L52.08 8.96L52.08 8.96Q52.14 9.18 52.14 9.52L52.14 9.52L52.14 9.52Q52.14 9.84 52.08 10.08L52.08 10.08L52.08 10.08Q52.14 10.30 52.14 10.64L52.14 10.64L52.14 10.64Q52.14 10.96 52.08 11.20L52.08 11.20L50.96 11.20L50.96 11.20Q50.90 10.96 50.90 10.64L50.90 10.64L50.90 10.64Q50.90 10.30 50.96 10.08L50.96 10.08L50.96 10.08Q50.90 9.84 50.90 9.52L50.90 9.52L50.90 9.52Q50.90 9.18 50.96 8.96L50.96 8.96L50.96 8.96Q50.90 8.72 50.90 8.40L50.90 8.40L50.90 8.40Q50.90 8.06 50.96 7.84L50.96 7.84L50.96 7.84Q50.90 7.60 50.90 7.28L50.90 7.28L50.90 7.28Q50.90 6.94 50.96 6.72L50.96 6.72L50.96 6.72Q50.90 6.48 50.90 6.16L50.90 6.16L50.90 6.16Q50.90 5.82 50.96 5.60L50.96 5.60L50.96 5.60Q50.90 5.36 50.90 5.04L50.90 5.04L50.90 5.04Q50.90 4.70 50.96 4.48L50.96 4.48L50.96 4.48Q50.90 4.24 50.90 3.92L50.90 3.92L50.90 3.92Q50.90 3.58 50.96 3.36L50.96 3.36L54.88 3.36L54.88 3.36Q54.94 3.58 54.94 3.92L54.94 3.92L54.94 3.92Q54.94 4.24 54.88 4.48L54.88 4.48L55.44 4.48L55.44 4.48Q55.50 4.70 55.50 5.04L55.50 5.04L55.50 5.04Q55.50 5.36 55.44 5.60L55.44 5.60L55.16 5.60L55.16 5.60Q55.22 5.82 55.22 6.16L55.22 6.16L55.22 6.16Q55.22 6.48 55.16 6.72L55.16 6.72L54.32 6.72L54.32 6.72Q54.38 6.94 54.38 7.28L54.38 7.28L54.38 7.28Q54.38 7.60 54.32 7.84L54.32 7.84L54.60 7.84L54.60 7.84Q54.66 8.06 54.66 8.40L54.66 8.40L54.66 8.40Q54.66 8.72 54.60 8.96L54.60 8.96L55.02 8.96L55.02 8.96Q55.08 9.18 55.08 9.52L55.08 9.52L55.08 9.52Q55.08 9.84 55.02 10.08L55.02 10.08ZM54.04 6.72L54.04 6.72Q53.98 6.48 53.98 6.16L53.98 6.16L53.98 6.16Q53.98 5.82 54.04 5.60L54.04 5.60L54.04 5.60Q53.98 5.36 53.98 5.04L53.98 5.04L53.98 5.04Q53.98 4.70 54.04 4.48L54.04 4.48L52.08 4.48L52.08 4.48Q52.14 4.70 52.14 5.04L52.14 5.04L52.14 5.04Q52.14 5.36 52.08 5.60L52.08 5.60L52.08 5.60Q52.14 5.82 52.14 6.16L52.14 6.16L52.14 6.16Q52.14 6.48 52.08 6.72L52.08 6.72L54.04 6.72Z"></path></g></svg>