<svg data-v-fde0c5aa="" xmlns="http://www.w3.org/2000/svg" viewBox="0 0 300 300" class="font"><!----><defs data-v-fde0c5aa=""><!----></defs><rect data-v-fde0c5aa="" fill="transparent" x="0" y="0" width="300px" height="300px" class="logo-background-square"></rect><defs data-v-fde0c5aa=""><linearGradient data-v-fde0c5aa="" gradientTransform="rotate(25)" id="278fb68a-a11f-415b-8502-adf7e6898630" x1="0%" y1="0%" x2="100%" y2="0%"><stop data-v-fde0c5aa="" offset="0%" stop-color="#404040" stop-opacity="1"></stop><stop data-v-fde0c5aa="" offset="100%" stop-color="#A6442F" stop-opacity="1"></stop></linearGradient></defs><g data-v-fde0c5aa="" id="a548d8cf-ecf9-4820-8863-f622da073ed7" fill="url(#278fb68a-a11f-415b-8502-adf7e6898630)" transform="matrix(8.148148536682129,0,0,8.148148536682129,35.92592592592591,90.68148171460186)"><path d="M5.04 4.48L5.04 4.48Q5.10 4.70 5.10 5.04L5.10 5.04L5.10 5.04Q5.10 5.36 5.04 5.60L5.04 5.60L5.04 5.60Q5.10 5.82 5.10 6.16L5.10 6.16L5.10 6.16Q5.10 6.48 5.04 6.72L5.04 6.72L5.04 6.72Q5.10 6.94 5.10 7.28L5.10 7.28L5.10 7.28Q5.10 7.60 5.04 7.84L5.04 7.84L5.04 7.84Q5.10 8.06 5.10 8.40L5.10 8.40L5.10 8.40Q5.10 8.72 5.04 8.96L5.04 8.96L5.04 8.96Q5.10 9.18 5.10 9.52L5.10 9.52L5.10 9.52Q5.10 9.84 5.04 10.08L5.04 10.08L4.48 10.08L4.48 10.08Q4.54 10.30 4.54 10.64L4.54 10.64L4.54 10.64Q4.54 10.96 4.48 11.20L4.48 11.20L1.12 11.20L1.12 11.20Q1.06 10.96 1.06 10.64L1.06 10.64L1.06 10.64Q1.06 10.30 1.12 10.08L1.12 10.08L0.56 10.08L0.56 10.08Q0.50 9.84 0.50 9.52L0.50 9.52L0.50 9.52Q0.50 9.18 0.56 8.96L0.56 8.96L0.56 8.96Q0.50 8.72 0.50 8.40L0.50 8.40L0.50 8.40Q0.50 8.06 0.56 7.84L0.56 7.84L0.56 7.84Q0.50 7.60 0.50 7.28L0.50 7.28L0.50 7.28Q0.50 6.94 0.56 6.72L0.56 6.72L0.56 6.72Q0.50 6.48 0.50 6.16L0.50 6.16L0.50 6.16Q0.50 5.82 0.56 5.60L0.56 5.60L0.56 5.60Q0.50 5.36 0.50 5.04L0.50 5.04L0.50 5.04Q0.50 4.70 0.56 4.48L0.56 4.48L0.56 4.48Q0.50 4.24 0.50 3.92L0.50 3.92L0.50 3.92Q0.50 3.58 0.56 3.36L0.56 3.36L1.68 3.36L1.68 3.36Q1.74 3.58 1.74 3.92L1.74 3.92L1.74 3.92Q1.74 4.24 1.68 4.48L1.68 4.48L1.68 4.48Q1.74 4.70 1.74 5.04L1.74 5.04L1.74 5.04Q1.74 5.36 1.68 5.60L1.68 5.60L1.68 5.60Q1.74 5.82 1.74 6.16L1.74 6.16L1.74 6.16Q1.74 6.48 1.68 6.72L1.68 6.72L1.68 6.72Q1.74 6.94 1.74 7.28L1.74 7.28L1.74 7.28Q1.74 7.60 1.68 7.84L1.68 7.84L1.68 7.84Q1.74 8.06 1.74 8.40L1.74 8.40L1.74 8.40Q1.74 8.72 1.68 8.96L1.68 8.96L1.68 8.96Q1.74 9.18 1.74 9.52L1.74 9.52L1.74 9.52Q1.74 9.84 1.68 10.08L1.68 10.08L3.92 10.08L3.92 10.08Q3.86 9.84 3.86 9.52L3.86 9.52L3.86 9.52Q3.86 9.18 3.92 8.96L3.92 8.96L3.92 8.96Q3.86 8.72 3.86 8.40L3.86 8.40L3.86 8.40Q3.86 8.06 3.92 7.84L3.92 7.84L3.92 7.84Q3.86 7.60 3.86 7.28L3.86 7.28L3.86 7.28Q3.86 6.94 3.92 6.72L3.92 6.72L3.92 6.72Q3.86 6.48 3.86 6.16L3.86 6.16L3.86 6.16Q3.86 5.82 3.92 5.60L3.92 5.60L3.92 5.60Q3.86 5.36 3.86 5.04L3.86 5.04L3.86 5.04Q3.86 4.70 3.92 4.48L3.92 4.48L3.92 4.48Q3.86 4.24 3.86 3.92L3.86 3.92L3.86 3.92Q3.86 3.58 3.92 3.36L3.92 3.36L5.04 3.36L5.04 3.36Q5.10 3.58 5.10 3.92L5.10 3.92L5.10 3.92Q5.10 4.24 5.04 4.48L5.04 4.48ZM10.64 4.48L10.64 4.48Q10.70 4.70 10.70 5.04L10.70 5.04L10.70 5.04Q10.70 5.36 10.64 5.60L10.64 5.60L10.64 5.60Q10.70 5.82 10.70 6.16L10.70 6.16L10.70 6.16Q10.70 6.48 10.64 6.72L10.64 6.72L10.64 6.72Q10.70 6.94 10.70 7.28L10.70 7.28L10.70 7.28Q10.70 7.60 10.64 7.84L10.64 7.84L10.22 7.84L10.22 7.84Q10.28 8.06 10.28 8.40L10.28 8.40L10.28 8.40Q10.28 8.72 10.22 8.96L10.22 8.96L10.22 8.96Q10.28 9.18 10.28 9.52L10.28 9.52L10.28 9.52Q10.28 9.84 10.22 10.08L10.22 10.08L9.94 10.08L9.94 10.08Q10.00 10.30 10.00 10.64L10.00 10.64L10.00 10.64Q10.00 10.96 9.94 11.20L9.94 11.20L9.10 11.20L9.10 11.20Q9.04 10.96 9.04 10.64L9.04 10.64L9.04 10.64Q9.04 10.30 9.10 10.08L9.10 10.08L8.82 10.08L8.82 10.08Q8.76 9.84 8.76 9.52L8.76 9.52L8.76 9.52Q8.76 9.18 8.82 8.96L8.82 8.96L7.98 8.96L7.98 8.96Q8.04 9.18 8.04 9.52L8.04 9.52L8.04 9.52Q8.04 9.84 7.98 10.08L7.98 10.08L7.70 10.08L7.70 10.08Q7.76 10.30 7.76 10.64L7.76 10.64L7.76 10.64Q7.76 10.96 7.70 11.20L7.70 11.20L6.86 11.20L6.86 11.20Q6.80 10.96 6.80 10.64L6.80 10.64L6.80 10.64Q6.80 10.30 6.86 10.08L6.86 10.08L6.58 10.08L6.58 10.08Q6.52 9.84 6.52 9.52L6.52 9.52L6.52 9.52Q6.52 9.18 6.58 8.96L6.58 8.96L6.58 8.96Q6.52 8.72 6.52 8.40L6.52 8.40L6.52 8.40Q6.52 8.06 6.58 7.84L6.58 7.84L6.16 7.84L6.16 7.84Q6.10 7.60 6.10 7.28L6.10 7.28L6.10 7.28Q6.10 6.94 6.16 6.72L6.16 6.72L6.16 6.72Q6.10 6.48 6.10 6.16L6.10 6.16L6.10 6.16Q6.10 5.82 6.16 5.60L6.16 5.60L6.16 5.60Q6.10 5.36 6.10 5.04L6.10 5.04L6.10 5.04Q6.10 4.70 6.16 4.48L6.16 4.48L6.16 4.48Q6.10 4.24 6.10 3.92L6.10 3.92L6.10 3.92Q6.10 3.58 6.16 3.36L6.16 3.36L7.28 3.36L7.28 3.36Q7.34 3.58 7.34 3.92L7.34 3.92L7.34 3.92Q7.34 4.24 7.28 4.48L7.28 4.48L7.28 4.48Q7.34 4.70 7.34 5.04L7.34 5.04L7.34 5.04Q7.34 5.36 7.28 5.60L7.28 5.60L7.28 5.60Q7.34 5.82 7.34 6.16L7.34 6.16L7.34 6.16Q7.34 6.48 7.28 6.72L7.28 6.72L7.28 6.72Q7.34 6.94 7.34 7.28L7.34 7.28L7.34 7.28Q7.34 7.60 7.28 7.84L7.28 7.84L7.28 7.84Q7.34 8.06 7.34 8.40L7.34 8.40L7.34 8.40Q7.34 8.72 7.28 8.96L7.28 8.96L7.70 8.96L7.70 8.96Q7.64 8.72 7.64 8.40L7.64 8.40L7.64 8.40Q7.64 8.06 7.70 7.84L7.70 7.84L7.98 7.84L7.98 7.84Q7.92 7.60 7.92 7.28L7.92 7.28L7.92 7.28Q7.92 6.94 7.98 6.72L7.98 6.72L7.98 6.72Q7.92 6.48 7.92 6.16L7.92 6.16L7.92 6.16Q7.92 5.82 7.98 5.60L7.98 5.60L7.98 5.60Q7.92 5.36 7.92 5.04L7.92 5.04L7.92 5.04Q7.92 4.70 7.98 4.48L7.98 4.48L7.98 4.48Q7.92 4.24 7.92 3.92L7.92 3.92L7.92 3.92Q7.92 3.58 7.98 3.36L7.98 3.36L8.82 3.36L8.82 3.36Q8.88 3.58 8.88 3.92L8.88 3.92L8.88 3.92Q8.88 4.24 8.82 4.48L8.82 4.48L8.82 4.48Q8.88 4.70 8.88 5.04L8.88 5.04L8.88 5.04Q8.88 5.36 8.82 5.60L8.82 5.60L8.82 5.60Q8.88 5.82 8.88 6.16L8.88 6.16L8.88 6.16Q8.88 6.48 8.82 6.72L8.82 6.72L8.82 6.72Q8.88 6.94 8.88 7.28L8.88 7.28L8.88 7.28Q8.88 7.60 8.82 7.84L8.82 7.84L9.10 7.84L9.10 7.84Q9.16 8.06 9.16 8.40L9.16 8.40L9.16 8.40Q9.16 8.72 9.10 8.96L9.10 8.96L9.52 8.96L9.52 8.96Q9.46 8.72 9.46 8.40L9.46 8.40L9.46 8.40Q9.46 8.06 9.52 7.84L9.52 7.84L9.52 7.84Q9.46 7.60 9.46 7.28L9.46 7.28L9.46 7.28Q9.46 6.94 9.52 6.72L9.52 6.72L9.52 6.72Q9.46 6.48 9.46 6.16L9.46 6.16L9.46 6.16Q9.46 5.82 9.52 5.60L9.52 5.60L9.52 5.60Q9.46 5.36 9.46 5.04L9.46 5.04L9.46 5.04Q9.46 4.70 9.52 4.48L9.52 4.48L9.52 4.48Q9.46 4.24 9.46 3.92L9.46 3.92L9.46 3.92Q9.46 3.58 9.52 3.36L9.52 3.36L10.64 3.36L10.64 3.36Q10.70 3.58 10.70 3.92L10.70 3.92L10.70 3.92Q10.70 4.24 10.64 4.48L10.64 4.48ZM16.30 9.52L16.30 9.52Q16.30 9.84 16.24 10.08L16.24 10.08L16.24 10.08Q16.30 10.30 16.30 10.64L16.30 10.64L16.30 10.64Q16.30 10.96 16.24 11.20L16.24 11.20L15.12 11.20L15.12 11.20Q15.06 10.96 15.06 10.64L15.06 10.64L15.06 10.64Q15.06 10.30 15.12 10.08L15.12 10.08L15.12 10.08Q15.06 9.84 15.06 9.52L15.06 9.52L15.06 9.52Q15.06 9.18 15.12 8.96L15.12 8.96L12.88 8.96L12.88 8.96Q12.94 9.18 12.94 9.52L12.94 9.52L12.94 9.52Q12.94 9.84 12.88 10.08L12.88 10.08L12.88 10.08Q12.94 10.30 12.94 10.64L12.94 10.64L12.94 10.64Q12.94 10.96 12.88 11.20L12.88 11.20L11.76 11.20L11.76 11.20Q11.70 10.96 11.70 10.64L11.70 10.64L11.70 10.64Q11.70 10.30 11.76 10.08L11.76 10.08L11.76 10.08Q11.70 9.84 11.70 9.52L11.70 9.52L11.70 9.52Q11.70 9.18 11.76 8.96L11.76 8.96L12.18 8.96L12.18 8.96Q12.12 8.72 12.12 8.40L12.12 8.40L12.12 8.40Q12.12 8.06 12.18 7.84L12.18 7.84L12.18 7.84Q12.12 7.60 12.12 7.28L12.12 7.28L12.12 7.28Q12.12 6.94 12.18 6.72L12.18 6.72L12.46 6.72L12.46 6.72Q12.40 6.48 12.40 6.16L12.40 6.16L12.40 6.16Q12.40 5.82 12.46 5.60L12.46 5.60L12.88 5.60L12.88 5.60Q12.82 5.36 12.82 5.04L12.82 5.04L12.82 5.04Q12.82 4.70 12.88 4.48L12.88 4.48L13.16 4.48L13.16 4.48Q13.10 4.24 13.10 3.92L13.10 3.92L13.10 3.92Q13.10 3.58 13.16 3.36L13.16 3.36L14.84 3.36L14.84 3.36Q14.90 3.58 14.90 3.92L14.90 3.92L14.90 3.92Q14.90 4.24 14.84 4.48L14.84 4.48L15.12 4.48L15.12 4.48Q15.18 4.70 15.18 5.04L15.18 5.04L15.18 5.04Q15.18 5.36 15.12 5.60L15.12 5.60L15.54 5.60L15.54 5.60Q15.60 5.82 15.60 6.16L15.60 6.16L15.60 6.16Q15.60 6.48 15.54 6.72L15.54 6.72L15.82 6.72L15.82 6.72Q15.88 6.94 15.88 7.28L15.88 7.28L15.88 7.28Q15.88 7.60 15.82 7.84L15.82 7.84L15.82 7.84Q15.88 8.06 15.88 8.40L15.88 8.40L15.88 8.40Q15.88 8.72 15.82 8.96L15.82 8.96L16.24 8.96L16.24 8.96Q16.30 9.18 16.30 9.52L16.30 9.52ZM14.70 7.84L14.70 7.84Q14.64 7.60 14.64 7.28L14.64 7.28L14.64 7.28Q14.64 6.94 14.70 6.72L14.70 6.72L14.42 6.72L14.42 6.72Q14.36 6.48 14.36 6.16L14.36 6.16L14.36 6.16Q14.36 5.82 14.42 5.60L14.42 5.60L13.58 5.60L13.58 5.60Q13.64 5.82 13.64 6.16L13.64 6.16L13.64 6.16Q13.64 6.48 13.58 6.72L13.58 6.72L13.30 6.72L13.30 6.72Q13.36 6.94 13.36 7.28L13.36 7.28L13.36 7.28Q13.36 7.60 13.30 7.84L13.30 7.84L14.70 7.84ZM21.84 6.72L21.84 6.72Q21.90 6.94 21.90 7.28L21.90 7.28L21.90 7.28Q21.90 7.60 21.84 7.84L21.84 7.84L21.84 7.84Q21.90 8.06 21.90 8.40L21.90 8.40L21.90 8.40Q21.90 8.72 21.84 8.96L21.84 8.96L21.84 8.96Q21.90 9.18 21.90 9.52L21.90 9.52L21.90 9.52Q21.90 9.84 21.84 10.08L21.84 10.08L21.28 10.08L21.28 10.08Q21.34 10.30 21.34 10.64L21.34 10.64L21.34 10.64Q21.34 10.96 21.28 11.20L21.28 11.20L18.48 11.20L18.48 11.20Q18.42 10.96 18.42 10.64L18.42 10.64L18.42 10.64Q18.42 10.30 18.48 10.08L18.48 10.08L17.92 10.08L17.92 10.08Q17.86 9.84 17.86 9.52L17.86 9.52L17.86 9.52Q17.86 9.18 17.92 8.96L17.92 8.96L17.36 8.96L17.36 8.96Q17.30 8.72 17.30 8.40L17.30 8.40L17.30 8.40Q17.30 8.06 17.36 7.84L17.36 7.84L17.36 7.84Q17.30 7.60 17.30 7.28L17.30 7.28L17.30 7.28Q17.30 6.94 17.36 6.72L17.36 6.72L17.36 6.72Q17.30 6.48 17.30 6.16L17.30 6.16L17.30 6.16Q17.30 5.82 17.36 5.60L17.36 5.60L17.92 5.60L17.92 5.60Q17.86 5.36 17.86 5.04L17.86 5.04L17.86 5.04Q17.86 4.70 17.92 4.48L17.92 4.48L18.48 4.48L18.48 4.48Q18.42 4.24 18.42 3.92L18.42 3.92L18.42 3.92Q18.42 3.58 18.48 3.36L18.48 3.36L21.28 3.36L21.28 3.36Q21.34 3.58 21.34 3.92L21.34 3.92L21.34 3.92Q21.34 4.24 21.28 4.48L21.28 4.48L21.84 4.48L21.84 4.48Q21.90 4.70 21.90 5.04L21.90 5.04L21.90 5.04Q21.90 5.36 21.84 5.60L21.84 5.60L20.72 5.60L20.72 5.60Q20.66 5.36 20.66 5.04L20.66 5.04L20.66 5.04Q20.66 4.70 20.72 4.48L20.72 4.48L19.04 4.48L19.04 4.48Q19.10 4.70 19.10 5.04L19.10 5.04L19.10 5.04Q19.10 5.36 19.04 5.60L19.04 5.60L18.48 5.60L18.48 5.60Q18.54 5.82 18.54 6.16L18.54 6.16L18.54 6.16Q18.54 6.48 18.48 6.72L18.48 6.72L18.48 6.72Q18.54 6.94 18.54 7.28L18.54 7.28L18.54 7.28Q18.54 7.60 18.48 7.84L18.48 7.84L18.48 7.84Q18.54 8.06 18.54 8.40L18.54 8.40L18.54 8.40Q18.54 8.72 18.48 8.96L18.48 8.96L19.04 8.96L19.04 8.96Q19.10 9.18 19.10 9.52L19.10 9.52L19.10 9.52Q19.10 9.84 19.04 10.08L19.04 10.08L20.72 10.08L20.72 10.08Q20.66 9.84 20.66 9.52L20.66 9.52L20.66 9.52Q20.66 9.18 20.72 8.96L20.72 8.96L20.72 8.96Q20.66 8.72 20.66 8.40L20.66 8.40L20.66 8.40Q20.66 8.06 20.72 7.84L20.72 7.84L19.88 7.84L19.88 7.84Q19.82 7.60 19.82 7.28L19.82 7.28L19.82 7.28Q19.82 6.94 19.88 6.72L19.88 6.72L21.84 6.72ZM27.50 9.52L27.50 9.52Q27.50 9.84 27.44 10.08L27.44 10.08L27.44 10.08Q27.50 10.30 27.50 10.64L27.50 10.64L27.50 10.64Q27.50 10.96 27.44 11.20L27.44 11.20L26.32 11.20L26.32 11.20Q26.26 10.96 26.26 10.64L26.26 10.64L26.26 10.64Q26.26 10.30 26.32 10.08L26.32 10.08L26.32 10.08Q26.26 9.84 26.26 9.52L26.26 9.52L26.26 9.52Q26.26 9.18 26.32 8.96L26.32 8.96L24.08 8.96L24.08 8.96Q24.14 9.18 24.14 9.52L24.14 9.52L24.14 9.52Q24.14 9.84 24.08 10.08L24.08 10.08L24.08 10.08Q24.14 10.30 24.14 10.64L24.14 10.64L24.14 10.64Q24.14 10.96 24.08 11.20L24.08 11.20L22.96 11.20L22.96 11.20Q22.90 10.96 22.90 10.64L22.90 10.64L22.90 10.64Q22.90 10.30 22.96 10.08L22.96 10.08L22.96 10.08Q22.90 9.84 22.90 9.52L22.90 9.52L22.90 9.52Q22.90 9.18 22.96 8.96L22.96 8.96L23.38 8.96L23.38 8.96Q23.32 8.72 23.32 8.40L23.32 8.40L23.32 8.40Q23.32 8.06 23.38 7.84L23.38 7.84L23.38 7.84Q23.32 7.60 23.32 7.28L23.32 7.28L23.32 7.28Q23.32 6.94 23.38 6.72L23.38 6.72L23.66 6.72L23.66 6.72Q23.60 6.48 23.60 6.16L23.60 6.16L23.60 6.16Q23.60 5.82 23.66 5.60L23.66 5.60L24.08 5.60L24.08 5.60Q24.02 5.36 24.02 5.04L24.02 5.04L24.02 5.04Q24.02 4.70 24.08 4.48L24.08 4.48L24.36 4.48L24.36 4.48Q24.30 4.24 24.30 3.92L24.30 3.92L24.30 3.92Q24.30 3.58 24.36 3.36L24.36 3.36L26.04 3.36L26.04 3.36Q26.10 3.58 26.10 3.92L26.10 3.92L26.10 3.92Q26.10 4.24 26.04 4.48L26.04 4.48L26.32 4.48L26.32 4.48Q26.38 4.70 26.38 5.04L26.38 5.04L26.38 5.04Q26.38 5.36 26.32 5.60L26.32 5.60L26.74 5.60L26.74 5.60Q26.80 5.82 26.80 6.16L26.80 6.16L26.80 6.16Q26.80 6.48 26.74 6.72L26.74 6.72L27.02 6.72L27.02 6.72Q27.08 6.94 27.08 7.28L27.08 7.28L27.08 7.28Q27.08 7.60 27.02 7.84L27.02 7.84L27.02 7.84Q27.08 8.06 27.08 8.40L27.08 8.40L27.08 8.40Q27.08 8.72 27.02 8.96L27.02 8.96L27.44 8.96L27.44 8.96Q27.50 9.18 27.50 9.52L27.50 9.52ZM25.90 7.84L25.90 7.84Q25.84 7.60 25.84 7.28L25.84 7.28L25.84 7.28Q25.84 6.94 25.90 6.72L25.90 6.72L25.62 6.72L25.62 6.72Q25.56 6.48 25.56 6.16L25.56 6.16L25.56 6.16Q25.56 5.82 25.62 5.60L25.62 5.60L24.78 5.60L24.78 5.60Q24.84 5.82 24.84 6.16L24.84 6.16L24.84 6.16Q24.84 6.48 24.78 6.72L24.78 6.72L24.50 6.72L24.50 6.72Q24.56 6.94 24.56 7.28L24.56 7.28L24.56 7.28Q24.56 7.60 24.50 7.84L24.50 7.84L25.90 7.84Z"></path></g><!----><!----></svg>