<svg data-v-423bf9ae="" xmlns="http://www.w3.org/2000/svg" viewBox="0 0 316 101" class="iconLeftSlogan"><!----><!----><!----><g data-v-423bf9ae="" id="8b7e492e-7116-4536-9af5-6ab46a133155" fill="white" transform="matrix(7.6530609130859375,0,0,7.6530609130859375,105.52677917480469,-25.71428108215332)"><path d="M5.04 4.48L5.04 4.48Q5.10 4.70 5.10 5.04L5.10 5.04L5.10 5.04Q5.10 5.36 5.04 5.60L5.04 5.60L5.04 5.60Q5.10 5.82 5.10 6.16L5.10 6.16L5.10 6.16Q5.10 6.48 5.04 6.72L5.04 6.72L5.04 6.72Q5.10 6.94 5.10 7.28L5.10 7.28L5.10 7.28Q5.10 7.60 5.04 7.84L5.04 7.84L5.04 7.84Q5.10 8.06 5.10 8.40L5.10 8.40L5.10 8.40Q5.10 8.72 5.04 8.96L5.04 8.96L5.04 8.96Q5.10 9.18 5.10 9.52L5.10 9.52L5.10 9.52Q5.10 9.84 5.04 10.08L5.04 10.08L4.48 10.08L4.48 10.08Q4.54 10.30 4.54 10.64L4.54 10.64L4.54 10.64Q4.54 10.96 4.48 11.20L4.48 11.20L1.12 11.20L1.12 11.20Q1.06 10.96 1.06 10.64L1.06 10.64L1.06 10.64Q1.06 10.30 1.12 10.08L1.12 10.08L0.56 10.08L0.56 10.08Q0.50 9.84 0.50 9.52L0.50 9.52L0.50 9.52Q0.50 9.18 0.56 8.96L0.56 8.96L0.56 8.96Q0.50 8.72 0.50 8.40L0.50 8.40L0.50 8.40Q0.50 8.06 0.56 7.84L0.56 7.84L0.56 7.84Q0.50 7.60 0.50 7.28L0.50 7.28L0.50 7.28Q0.50 6.94 0.56 6.72L0.56 6.72L0.56 6.72Q0.50 6.48 0.50 6.16L0.50 6.16L0.50 6.16Q0.50 5.82 0.56 5.60L0.56 5.60L0.56 5.60Q0.50 5.36 0.50 5.04L0.50 5.04L0.50 5.04Q0.50 4.70 0.56 4.48L0.56 4.48L0.56 4.48Q0.50 4.24 0.50 3.92L0.50 3.92L0.50 3.92Q0.50 3.58 0.56 3.36L0.56 3.36L1.68 3.36L1.68 3.36Q1.74 3.58 1.74 3.92L1.74 3.92L1.74 3.92Q1.74 4.24 1.68 4.48L1.68 4.48L1.68 4.48Q1.74 4.70 1.74 5.04L1.74 5.04L1.74 5.04Q1.74 5.36 1.68 5.60L1.68 5.60L1.68 5.60Q1.74 5.82 1.74 6.16L1.74 6.16L1.74 6.16Q1.74 6.48 1.68 6.72L1.68 6.72L1.68 6.72Q1.74 6.94 1.74 7.28L1.74 7.28L1.74 7.28Q1.74 7.60 1.68 7.84L1.68 7.84L1.68 7.84Q1.74 8.06 1.74 8.40L1.74 8.40L1.74 8.40Q1.74 8.72 1.68 8.96L1.68 8.96L1.68 8.96Q1.74 9.18 1.74 9.52L1.74 9.52L1.74 9.52Q1.74 9.84 1.68 10.08L1.68 10.08L3.92 10.08L3.92 10.08Q3.86 9.84 3.86 9.52L3.86 9.52L3.86 9.52Q3.86 9.18 3.92 8.96L3.92 8.96L3.92 8.96Q3.86 8.72 3.86 8.40L3.86 8.40L3.86 8.40Q3.86 8.06 3.92 7.84L3.92 7.84L3.92 7.84Q3.86 7.60 3.86 7.28L3.86 7.28L3.86 7.28Q3.86 6.94 3.92 6.72L3.92 6.72L3.92 6.72Q3.86 6.48 3.86 6.16L3.86 6.16L3.86 6.16Q3.86 5.82 3.92 5.60L3.92 5.60L3.92 5.60Q3.86 5.36 3.86 5.04L3.86 5.04L3.86 5.04Q3.86 4.70 3.92 4.48L3.92 4.48L3.92 4.48Q3.86 4.24 3.86 3.92L3.86 3.92L3.86 3.92Q3.86 3.58 3.92 3.36L3.92 3.36L5.04 3.36L5.04 3.36Q5.10 3.58 5.10 3.92L5.10 3.92L5.10 3.92Q5.10 4.24 5.04 4.48L5.04 4.48ZM10.64 4.48L10.64 4.48Q10.70 4.70 10.70 5.04L10.70 5.04L10.70 5.04Q10.70 5.36 10.64 5.60L10.64 5.60L10.64 5.60Q10.70 5.82 10.70 6.16L10.70 6.16L10.70 6.16Q10.70 6.48 10.64 6.72L10.64 6.72L10.64 6.72Q10.70 6.94 10.70 7.28L10.70 7.28L10.70 7.28Q10.70 7.60 10.64 7.84L10.64 7.84L10.22 7.84L10.22 7.84Q10.28 8.06 10.28 8.40L10.28 8.40L10.28 8.40Q10.28 8.72 10.22 8.96L10.22 8.96L10.22 8.96Q10.28 9.18 10.28 9.52L10.28 9.52L10.28 9.52Q10.28 9.84 10.22 10.08L10.22 10.08L9.94 10.08L9.94 10.08Q10.00 10.30 10.00 10.64L10.00 10.64L10.00 10.64Q10.00 10.96 9.94 11.20L9.94 11.20L9.10 11.20L9.10 11.20Q9.04 10.96 9.04 10.64L9.04 10.64L9.04 10.64Q9.04 10.30 9.10 10.08L9.10 10.08L8.82 10.08L8.82 10.08Q8.76 9.84 8.76 9.52L8.76 9.52L8.76 9.52Q8.76 9.18 8.82 8.96L8.82 8.96L7.98 8.96L7.98 8.96Q8.04 9.18 8.04 9.52L8.04 9.52L8.04 9.52Q8.04 9.84 7.98 10.08L7.98 10.08L7.70 10.08L7.70 10.08Q7.76 10.30 7.76 10.64L7.76 10.64L7.76 10.64Q7.76 10.96 7.70 11.20L7.70 11.20L6.86 11.20L6.86 11.20Q6.80 10.96 6.80 10.64L6.80 10.64L6.80 10.64Q6.80 10.30 6.86 10.08L6.86 10.08L6.58 10.08L6.58 10.08Q6.52 9.84 6.52 9.52L6.52 9.52L6.52 9.52Q6.52 9.18 6.58 8.96L6.58 8.96L6.58 8.96Q6.52 8.72 6.52 8.40L6.52 8.40L6.52 8.40Q6.52 8.06 6.58 7.84L6.58 7.84L6.16 7.84L6.16 7.84Q6.10 7.60 6.10 7.28L6.10 7.28L6.10 7.28Q6.10 6.94 6.16 6.72L6.16 6.72L6.16 6.72Q6.10 6.48 6.10 6.16L6.10 6.16L6.10 6.16Q6.10 5.82 6.16 5.60L6.16 5.60L6.16 5.60Q6.10 5.36 6.10 5.04L6.10 5.04L6.10 5.04Q6.10 4.70 6.16 4.48L6.16 4.48L6.16 4.48Q6.10 4.24 6.10 3.92L6.10 3.92L6.10 3.92Q6.10 3.58 6.16 3.36L6.16 3.36L7.28 3.36L7.28 3.36Q7.34 3.58 7.34 3.92L7.34 3.92L7.34 3.92Q7.34 4.24 7.28 4.48L7.28 4.48L7.28 4.48Q7.34 4.70 7.34 5.04L7.34 5.04L7.34 5.04Q7.34 5.36 7.28 5.60L7.28 5.60L7.28 5.60Q7.34 5.82 7.34 6.16L7.34 6.16L7.34 6.16Q7.34 6.48 7.28 6.72L7.28 6.72L7.28 6.72Q7.34 6.94 7.34 7.28L7.34 7.28L7.34 7.28Q7.34 7.60 7.28 7.84L7.28 7.84L7.28 7.84Q7.34 8.06 7.34 8.40L7.34 8.40L7.34 8.40Q7.34 8.72 7.28 8.96L7.28 8.96L7.70 8.96L7.70 8.96Q7.64 8.72 7.64 8.40L7.64 8.40L7.64 8.40Q7.64 8.06 7.70 7.84L7.70 7.84L7.98 7.84L7.98 7.84Q7.92 7.60 7.92 7.28L7.92 7.28L7.92 7.28Q7.92 6.94 7.98 6.72L7.98 6.72L7.98 6.72Q7.92 6.48 7.92 6.16L7.92 6.16L7.92 6.16Q7.92 5.82 7.98 5.60L7.98 5.60L7.98 5.60Q7.92 5.36 7.92 5.04L7.92 5.04L7.92 5.04Q7.92 4.70 7.98 4.48L7.98 4.48L7.98 4.48Q7.92 4.24 7.92 3.92L7.92 3.92L7.92 3.92Q7.92 3.58 7.98 3.36L7.98 3.36L8.82 3.36L8.82 3.36Q8.88 3.58 8.88 3.92L8.88 3.92L8.88 3.92Q8.88 4.24 8.82 4.48L8.82 4.48L8.82 4.48Q8.88 4.70 8.88 5.04L8.88 5.04L8.88 5.04Q8.88 5.36 8.82 5.60L8.82 5.60L8.82 5.60Q8.88 5.82 8.88 6.16L8.88 6.16L8.88 6.16Q8.88 6.48 8.82 6.72L8.82 6.72L8.82 6.72Q8.88 6.94 8.88 7.28L8.88 7.28L8.88 7.28Q8.88 7.60 8.82 7.84L8.82 7.84L9.10 7.84L9.10 7.84Q9.16 8.06 9.16 8.40L9.16 8.40L9.16 8.40Q9.16 8.72 9.10 8.96L9.10 8.96L9.52 8.96L9.52 8.96Q9.46 8.72 9.46 8.40L9.46 8.40L9.46 8.40Q9.46 8.06 9.52 7.84L9.52 7.84L9.52 7.84Q9.46 7.60 9.46 7.28L9.46 7.28L9.46 7.28Q9.46 6.94 9.52 6.72L9.52 6.72L9.52 6.72Q9.46 6.48 9.46 6.16L9.46 6.16L9.46 6.16Q9.46 5.82 9.52 5.60L9.52 5.60L9.52 5.60Q9.46 5.36 9.46 5.04L9.46 5.04L9.46 5.04Q9.46 4.70 9.52 4.48L9.52 4.48L9.52 4.48Q9.46 4.24 9.46 3.92L9.46 3.92L9.46 3.92Q9.46 3.58 9.52 3.36L9.52 3.36L10.64 3.36L10.64 3.36Q10.70 3.58 10.70 3.92L10.70 3.92L10.70 3.92Q10.70 4.24 10.64 4.48L10.64 4.48ZM16.30 9.52L16.30 9.52Q16.30 9.84 16.24 10.08L16.24 10.08L16.24 10.08Q16.30 10.30 16.30 10.64L16.30 10.64L16.30 10.64Q16.30 10.96 16.24 11.20L16.24 11.20L15.12 11.20L15.12 11.20Q15.06 10.96 15.06 10.64L15.06 10.64L15.06 10.64Q15.06 10.30 15.12 10.08L15.12 10.08L15.12 10.08Q15.06 9.84 15.06 9.52L15.06 9.52L15.06 9.52Q15.06 9.18 15.12 8.96L15.12 8.96L12.88 8.96L12.88 8.96Q12.94 9.18 12.94 9.52L12.94 9.52L12.94 9.52Q12.94 9.84 12.88 10.08L12.88 10.08L12.88 10.08Q12.94 10.30 12.94 10.64L12.94 10.64L12.94 10.64Q12.94 10.96 12.88 11.20L12.88 11.20L11.76 11.20L11.76 11.20Q11.70 10.96 11.70 10.64L11.70 10.64L11.70 10.64Q11.70 10.30 11.76 10.08L11.76 10.08L11.76 10.08Q11.70 9.84 11.70 9.52L11.70 9.52L11.70 9.52Q11.70 9.18 11.76 8.96L11.76 8.96L12.18 8.96L12.18 8.96Q12.12 8.72 12.12 8.40L12.12 8.40L12.12 8.40Q12.12 8.06 12.18 7.84L12.18 7.84L12.18 7.84Q12.12 7.60 12.12 7.28L12.12 7.28L12.12 7.28Q12.12 6.94 12.18 6.72L12.18 6.72L12.46 6.72L12.46 6.72Q12.40 6.48 12.40 6.16L12.40 6.16L12.40 6.16Q12.40 5.82 12.46 5.60L12.46 5.60L12.88 5.60L12.88 5.60Q12.82 5.36 12.82 5.04L12.82 5.04L12.82 5.04Q12.82 4.70 12.88 4.48L12.88 4.48L13.16 4.48L13.16 4.48Q13.10 4.24 13.10 3.92L13.10 3.92L13.10 3.92Q13.10 3.58 13.16 3.36L13.16 3.36L14.84 3.36L14.84 3.36Q14.90 3.58 14.90 3.92L14.90 3.92L14.90 3.92Q14.90 4.24 14.84 4.48L14.84 4.48L15.12 4.48L15.12 4.48Q15.18 4.70 15.18 5.04L15.18 5.04L15.18 5.04Q15.18 5.36 15.12 5.60L15.12 5.60L15.54 5.60L15.54 5.60Q15.60 5.82 15.60 6.16L15.60 6.16L15.60 6.16Q15.60 6.48 15.54 6.72L15.54 6.72L15.82 6.72L15.82 6.72Q15.88 6.94 15.88 7.28L15.88 7.28L15.88 7.28Q15.88 7.60 15.82 7.84L15.82 7.84L15.82 7.84Q15.88 8.06 15.88 8.40L15.88 8.40L15.88 8.40Q15.88 8.72 15.82 8.96L15.82 8.96L16.24 8.96L16.24 8.96Q16.30 9.18 16.30 9.52L16.30 9.52ZM14.70 7.84L14.70 7.84Q14.64 7.60 14.64 7.28L14.64 7.28L14.64 7.28Q14.64 6.94 14.70 6.72L14.70 6.72L14.42 6.72L14.42 6.72Q14.36 6.48 14.36 6.16L14.36 6.16L14.36 6.16Q14.36 5.82 14.42 5.60L14.42 5.60L13.58 5.60L13.58 5.60Q13.64 5.82 13.64 6.16L13.64 6.16L13.64 6.16Q13.64 6.48 13.58 6.72L13.58 6.72L13.30 6.72L13.30 6.72Q13.36 6.94 13.36 7.28L13.36 7.28L13.36 7.28Q13.36 7.60 13.30 7.84L13.30 7.84L14.70 7.84ZM21.84 6.72L21.84 6.72Q21.90 6.94 21.90 7.28L21.90 7.28L21.90 7.28Q21.90 7.60 21.84 7.84L21.84 7.84L21.84 7.84Q21.90 8.06 21.90 8.40L21.90 8.40L21.90 8.40Q21.90 8.72 21.84 8.96L21.84 8.96L21.84 8.96Q21.90 9.18 21.90 9.52L21.90 9.52L21.90 9.52Q21.90 9.84 21.84 10.08L21.84 10.08L21.28 10.08L21.28 10.08Q21.34 10.30 21.34 10.64L21.34 10.64L21.34 10.64Q21.34 10.96 21.28 11.20L21.28 11.20L18.48 11.20L18.48 11.20Q18.42 10.96 18.42 10.64L18.42 10.64L18.42 10.64Q18.42 10.30 18.48 10.08L18.48 10.08L17.92 10.08L17.92 10.08Q17.86 9.84 17.86 9.52L17.86 9.52L17.86 9.52Q17.86 9.18 17.92 8.96L17.92 8.96L17.36 8.96L17.36 8.96Q17.30 8.72 17.30 8.40L17.30 8.40L17.30 8.40Q17.30 8.06 17.36 7.84L17.36 7.84L17.36 7.84Q17.30 7.60 17.30 7.28L17.30 7.28L17.30 7.28Q17.30 6.94 17.36 6.72L17.36 6.72L17.36 6.72Q17.30 6.48 17.30 6.16L17.30 6.16L17.30 6.16Q17.30 5.82 17.36 5.60L17.36 5.60L17.92 5.60L17.92 5.60Q17.86 5.36 17.86 5.04L17.86 5.04L17.86 5.04Q17.86 4.70 17.92 4.48L17.92 4.48L18.48 4.48L18.48 4.48Q18.42 4.24 18.42 3.92L18.42 3.92L18.42 3.92Q18.42 3.58 18.48 3.36L18.48 3.36L21.28 3.36L21.28 3.36Q21.34 3.58 21.34 3.92L21.34 3.92L21.34 3.92Q21.34 4.24 21.28 4.48L21.28 4.48L21.84 4.48L21.84 4.48Q21.90 4.70 21.90 5.04L21.90 5.04L21.90 5.04Q21.90 5.36 21.84 5.60L21.84 5.60L20.72 5.60L20.72 5.60Q20.66 5.36 20.66 5.04L20.66 5.04L20.66 5.04Q20.66 4.70 20.72 4.48L20.72 4.48L19.04 4.48L19.04 4.48Q19.10 4.70 19.10 5.04L19.10 5.04L19.10 5.04Q19.10 5.36 19.04 5.60L19.04 5.60L18.48 5.60L18.48 5.60Q18.54 5.82 18.54 6.16L18.54 6.16L18.54 6.16Q18.54 6.48 18.48 6.72L18.48 6.72L18.48 6.72Q18.54 6.94 18.54 7.28L18.54 7.28L18.54 7.28Q18.54 7.60 18.48 7.84L18.48 7.84L18.48 7.84Q18.54 8.06 18.54 8.40L18.54 8.40L18.54 8.40Q18.54 8.72 18.48 8.96L18.48 8.96L19.04 8.96L19.04 8.96Q19.10 9.18 19.10 9.52L19.10 9.52L19.10 9.52Q19.10 9.84 19.04 10.08L19.04 10.08L20.72 10.08L20.72 10.08Q20.66 9.84 20.66 9.52L20.66 9.52L20.66 9.52Q20.66 9.18 20.72 8.96L20.72 8.96L20.72 8.96Q20.66 8.72 20.66 8.40L20.66 8.40L20.66 8.40Q20.66 8.06 20.72 7.84L20.72 7.84L19.88 7.84L19.88 7.84Q19.82 7.60 19.82 7.28L19.82 7.28L19.82 7.28Q19.82 6.94 19.88 6.72L19.88 6.72L21.84 6.72ZM27.50 9.52L27.50 9.52Q27.50 9.84 27.44 10.08L27.44 10.08L27.44 10.08Q27.50 10.30 27.50 10.64L27.50 10.64L27.50 10.64Q27.50 10.96 27.44 11.20L27.44 11.20L26.32 11.20L26.32 11.20Q26.26 10.96 26.26 10.64L26.26 10.64L26.26 10.64Q26.26 10.30 26.32 10.08L26.32 10.08L26.32 10.08Q26.26 9.84 26.26 9.52L26.26 9.52L26.26 9.52Q26.26 9.18 26.32 8.96L26.32 8.96L24.08 8.96L24.08 8.96Q24.14 9.18 24.14 9.52L24.14 9.52L24.14 9.52Q24.14 9.84 24.08 10.08L24.08 10.08L24.08 10.08Q24.14 10.30 24.14 10.64L24.14 10.64L24.14 10.64Q24.14 10.96 24.08 11.20L24.08 11.20L22.96 11.20L22.96 11.20Q22.90 10.96 22.90 10.64L22.90 10.64L22.90 10.64Q22.90 10.30 22.96 10.08L22.96 10.08L22.96 10.08Q22.90 9.84 22.90 9.52L22.90 9.52L22.90 9.52Q22.90 9.18 22.96 8.96L22.96 8.96L23.38 8.96L23.38 8.96Q23.32 8.72 23.32 8.40L23.32 8.40L23.32 8.40Q23.32 8.06 23.38 7.84L23.38 7.84L23.38 7.84Q23.32 7.60 23.32 7.28L23.32 7.28L23.32 7.28Q23.32 6.94 23.38 6.72L23.38 6.72L23.66 6.72L23.66 6.72Q23.60 6.48 23.60 6.16L23.60 6.16L23.60 6.16Q23.60 5.82 23.66 5.60L23.66 5.60L24.08 5.60L24.08 5.60Q24.02 5.36 24.02 5.04L24.02 5.04L24.02 5.04Q24.02 4.70 24.08 4.48L24.08 4.48L24.36 4.48L24.36 4.48Q24.30 4.24 24.30 3.92L24.30 3.92L24.30 3.92Q24.30 3.58 24.36 3.36L24.36 3.36L26.04 3.36L26.04 3.36Q26.10 3.58 26.10 3.92L26.10 3.92L26.10 3.92Q26.10 4.24 26.04 4.48L26.04 4.48L26.32 4.48L26.32 4.48Q26.38 4.70 26.38 5.04L26.38 5.04L26.38 5.04Q26.38 5.36 26.32 5.60L26.32 5.60L26.74 5.60L26.74 5.60Q26.80 5.82 26.80 6.16L26.80 6.16L26.80 6.16Q26.80 6.48 26.74 6.72L26.74 6.72L27.02 6.72L27.02 6.72Q27.08 6.94 27.08 7.28L27.08 7.28L27.08 7.28Q27.08 7.60 27.02 7.84L27.02 7.84L27.02 7.84Q27.08 8.06 27.08 8.40L27.08 8.40L27.08 8.40Q27.08 8.72 27.02 8.96L27.02 8.96L27.44 8.96L27.44 8.96Q27.50 9.18 27.50 9.52L27.50 9.52ZM25.90 7.84L25.90 7.84Q25.84 7.60 25.84 7.28L25.84 7.28L25.84 7.28Q25.84 6.94 25.90 6.72L25.90 6.72L25.62 6.72L25.62 6.72Q25.56 6.48 25.56 6.16L25.56 6.16L25.56 6.16Q25.56 5.82 25.62 5.60L25.62 5.60L24.78 5.60L24.78 5.60Q24.84 5.82 24.84 6.16L24.84 6.16L24.84 6.16Q24.84 6.48 24.78 6.72L24.78 6.72L24.50 6.72L24.50 6.72Q24.56 6.94 24.56 7.28L24.56 7.28L24.56 7.28Q24.56 7.60 24.50 7.84L24.50 7.84L25.90 7.84Z"></path></g><!----><g data-v-423bf9ae="" id="5b716620-81f9-42fc-b0af-2e2ceae63ce5" transform="matrix(1.0554388761520386,0,0,1.0554388761520386,-7.101891994476318,-2.266986131668091)" stroke="none" fill="white"><switch><g><path d="M91.8 70.2l-4.7-13.8c-1.2-3.5-3.8-6.5-7.1-8.2l-11.6-5.8C64 47.6 57.4 51 50 51c-7.4 0-14-3.3-18.4-8.6L20 48.2c-3.3 1.7-5.9 4.6-7.1 8.2L8.2 70.2c-1.9 5.6 1.5 11.6 7.2 12.9l7.1 1.6-2.9-17.5c-.4-2.3.3-4.7 1.8-6.5 1.5-1.8 3.7-2.8 6.1-2.8h45.1c2.3 0 4.6 1 6.1 2.8 1.5 1.8 2.2 4.2 1.8 6.5l-2.9 17.5 7.1-1.6c5.6-1.4 9-7.3 7.1-12.9z"></path><path d="M31.1 26.5v.4c0 10.4 8.5 18.8 18.9 18.8 10.4 0 18.9-8.4 18.9-18.8v-.4c-5.4.6-12 .9-18.9.9-6.9 0-13.5-.3-18.9-.9zM50 22.2c16 0 29-1.6 29-3.7 0-1.1-4-2.1-10.2-2.8L66 5.6c-.6-2.3-3-3.6-5.2-2.9l-9.6 2.9c-.8.2-1.6.2-2.4 0l-9.6-2.9c-2.3-.7-4.6.6-5.2 2.9l-2.8 10.2c-6.3.7-10.2 1.7-10.2 2.8 0 2 13 3.6 29 3.6zM72.5 63h-45c-1.8 0-3.1 1.6-2.8 3.3l4.8 28.8c.2 1.4 1.4 2.4 2.8 2.4h35.4c1.4 0 2.6-1 2.8-2.4l4.8-28.8c.4-1.7-1-3.3-2.8-3.3zM50 83.8c-1.9 0-3.5-1.6-3.5-3.5s1.6-3.5 3.5-3.5 3.5 1.6 3.5 3.5-1.6 3.5-3.5 3.5z"></path></g></switch></g><!----><g data-v-423bf9ae="" id="3af6c3f9-c455-4b03-8545-ecb9ae69c8e0" fill="white" transform="matrix(2.4970715045928955,0,0,2.4970715045928955,108.10478210449219,51.609840393066406)"><path d="M5.04 6.72L5.04 6.72Q5.10 6.94 5.10 7.28L5.10 7.28L5.10 7.28Q5.10 7.60 5.04 7.84L5.04 7.84L5.04 7.84Q5.10 8.06 5.10 8.40L5.10 8.40L5.10 8.40Q5.10 8.72 5.04 8.96L5.04 8.96L4.48 8.96L4.48 8.96Q4.54 9.18 4.54 9.52L4.54 9.52L4.54 9.52Q4.54 9.84 4.48 10.08L4.48 10.08L3.92 10.08L3.92 10.08Q3.98 10.30 3.98 10.64L3.98 10.64L3.98 10.64Q3.98 10.96 3.92 11.20L3.92 11.20L0.56 11.20L0.56 11.20Q0.50 10.96 0.50 10.64L0.50 10.64L0.50 10.64Q0.50 10.30 0.56 10.08L0.56 10.08L0.56 10.08Q0.50 9.84 0.50 9.52L0.50 9.52L0.50 9.52Q0.50 9.18 0.56 8.96L0.56 8.96L0.56 8.96Q0.50 8.72 0.50 8.40L0.50 8.40L0.50 8.40Q0.50 8.06 0.56 7.84L0.56 7.84L0.56 7.84Q0.50 7.60 0.50 7.28L0.50 7.28L0.50 7.28Q0.50 6.94 0.56 6.72L0.56 6.72L0.56 6.72Q0.50 6.48 0.50 6.16L0.50 6.16L0.50 6.16Q0.50 5.82 0.56 5.60L0.56 5.60L0.56 5.60Q0.50 5.36 0.50 5.04L0.50 5.04L0.50 5.04Q0.50 4.70 0.56 4.48L0.56 4.48L0.56 4.48Q0.50 4.24 0.50 3.92L0.50 3.92L0.50 3.92Q0.50 3.58 0.56 3.36L0.56 3.36L3.92 3.36L3.92 3.36Q3.98 3.58 3.98 3.92L3.98 3.92L3.98 3.92Q3.98 4.24 3.92 4.48L3.92 4.48L4.48 4.48L4.48 4.48Q4.54 4.70 4.54 5.04L4.54 5.04L4.54 5.04Q4.54 5.36 4.48 5.60L4.48 5.60L5.04 5.60L5.04 5.60Q5.10 5.82 5.10 6.16L5.10 6.16L5.10 6.16Q5.10 6.48 5.04 6.72L5.04 6.72ZM3.92 8.96L3.92 8.96Q3.86 8.72 3.86 8.40L3.86 8.40L3.86 8.40Q3.86 8.06 3.92 7.84L3.92 7.84L3.92 7.84Q3.86 7.60 3.86 7.28L3.86 7.28L3.86 7.28Q3.86 6.94 3.92 6.72L3.92 6.72L3.92 6.72Q3.86 6.48 3.86 6.16L3.86 6.16L3.86 6.16Q3.86 5.82 3.92 5.60L3.92 5.60L3.36 5.60L3.36 5.60Q3.30 5.36 3.30 5.04L3.30 5.04L3.30 5.04Q3.30 4.70 3.36 4.48L3.36 4.48L1.68 4.48L1.68 4.48Q1.74 4.70 1.74 5.04L1.74 5.04L1.74 5.04Q1.74 5.36 1.68 5.60L1.68 5.60L1.68 5.60Q1.74 5.82 1.74 6.16L1.74 6.16L1.74 6.16Q1.74 6.48 1.68 6.72L1.68 6.72L1.68 6.72Q1.74 6.94 1.74 7.28L1.74 7.28L1.74 7.28Q1.74 7.60 1.68 7.84L1.68 7.84L1.68 7.84Q1.74 8.06 1.74 8.40L1.74 8.40L1.74 8.40Q1.74 8.72 1.68 8.96L1.68 8.96L1.68 8.96Q1.74 9.18 1.74 9.52L1.74 9.52L1.74 9.52Q1.74 9.84 1.68 10.08L1.68 10.08L3.36 10.08L3.36 10.08Q3.30 9.84 3.30 9.52L3.30 9.52L3.30 9.52Q3.30 9.18 3.36 8.96L3.36 8.96L3.92 8.96ZM10.64 6.72L10.64 6.72Q10.70 6.94 10.70 7.28L10.70 7.28L10.70 7.28Q10.70 7.60 10.64 7.84L10.64 7.84L10.64 7.84Q10.70 8.06 10.70 8.40L10.70 8.40L10.70 8.40Q10.70 8.72 10.64 8.96L10.64 8.96L10.22 8.96L10.22 8.96Q10.28 9.18 10.28 9.52L10.28 9.52L10.28 9.52Q10.28 9.84 10.22 10.08L10.22 10.08L9.52 10.08L9.52 10.08Q9.58 10.30 9.58 10.64L9.58 10.64L9.58 10.64Q9.58 10.96 9.52 11.20L9.52 11.20L7.28 11.20L7.28 11.20Q7.22 10.96 7.22 10.64L7.22 10.64L7.22 10.64Q7.22 10.30 7.28 10.08L7.28 10.08L6.58 10.08L6.58 10.08Q6.52 9.84 6.52 9.52L6.52 9.52L6.52 9.52Q6.52 9.18 6.58 8.96L6.58 8.96L6.16 8.96L6.16 8.96Q6.10 8.72 6.10 8.40L6.10 8.40L6.10 8.40Q6.10 8.06 6.16 7.84L6.16 7.84L6.16 7.84Q6.10 7.60 6.10 7.28L6.10 7.28L6.10 7.28Q6.10 6.94 6.16 6.72L6.16 6.72L6.16 6.72Q6.10 6.48 6.10 6.16L6.10 6.16L6.10 6.16Q6.10 5.82 6.16 5.60L6.16 5.60L6.58 5.60L6.58 5.60Q6.52 5.36 6.52 5.04L6.52 5.04L6.52 5.04Q6.52 4.70 6.58 4.48L6.58 4.48L7.28 4.48L7.28 4.48Q7.22 4.24 7.22 3.92L7.22 3.92L7.22 3.92Q7.22 3.58 7.28 3.36L7.28 3.36L9.52 3.36L9.52 3.36Q9.58 3.58 9.58 3.92L9.58 3.92L9.58 3.92Q9.58 4.24 9.52 4.48L9.52 4.48L10.22 4.48L10.22 4.48Q10.28 4.70 10.28 5.04L10.28 5.04L10.28 5.04Q10.28 5.36 10.22 5.60L10.22 5.60L10.64 5.60L10.64 5.60Q10.70 5.82 10.70 6.16L10.70 6.16L10.70 6.16Q10.70 6.48 10.64 6.72L10.64 6.72ZM9.52 8.96L9.52 8.96Q9.46 8.72 9.46 8.40L9.46 8.40L9.46 8.40Q9.46 8.06 9.52 7.84L9.52 7.84L9.52 7.84Q9.46 7.60 9.46 7.28L9.46 7.28L9.46 7.28Q9.46 6.94 9.52 6.72L9.52 6.72L9.52 6.72Q9.46 6.48 9.46 6.16L9.46 6.16L9.46 6.16Q9.46 5.82 9.52 5.60L9.52 5.60L9.10 5.60L9.10 5.60Q9.04 5.36 9.04 5.04L9.04 5.04L9.04 5.04Q9.04 4.70 9.10 4.48L9.10 4.48L7.70 4.48L7.70 4.48Q7.76 4.70 7.76 5.04L7.76 5.04L7.76 5.04Q7.76 5.36 7.70 5.60L7.70 5.60L7.28 5.60L7.28 5.60Q7.34 5.82 7.34 6.16L7.34 6.16L7.34 6.16Q7.34 6.48 7.28 6.72L7.28 6.72L7.28 6.72Q7.34 6.94 7.34 7.28L7.34 7.28L7.34 7.28Q7.34 7.60 7.28 7.84L7.28 7.84L7.28 7.84Q7.34 8.06 7.34 8.40L7.34 8.40L7.34 8.40Q7.34 8.72 7.28 8.96L7.28 8.96L7.70 8.96L7.70 8.96Q7.76 9.18 7.76 9.52L7.76 9.52L7.76 9.52Q7.76 9.84 7.70 10.08L7.70 10.08L9.10 10.08L9.10 10.08Q9.04 9.84 9.04 9.52L9.04 9.52L9.04 9.52Q9.04 9.18 9.10 8.96L9.10 8.96L9.52 8.96ZM16.30 6.16L16.30 6.16Q16.30 6.48 16.24 6.72L16.24 6.72L15.68 6.72L15.68 6.72Q15.74 6.94 15.74 7.28L15.74 7.28L15.74 7.28Q15.74 7.60 15.68 7.84L15.68 7.84L16.24 7.84L16.24 7.84Q16.30 8.06 16.30 8.40L16.30 8.40L16.30 8.40Q16.30 8.72 16.24 8.96L16.24 8.96L16.24 8.96Q16.30 9.18 16.30 9.52L16.30 9.52L16.30 9.52Q16.30 9.84 16.24 10.08L16.24 10.08L15.68 10.08L15.68 10.08Q15.74 10.30 15.74 10.64L15.74 10.64L15.74 10.64Q15.74 10.96 15.68 11.20L15.68 11.20L11.76 11.20L11.76 11.20Q11.70 10.96 11.70 10.64L11.70 10.64L11.70 10.64Q11.70 10.30 11.76 10.08L11.76 10.08L11.76 10.08Q11.70 9.84 11.70 9.52L11.70 9.52L11.70 9.52Q11.70 9.18 11.76 8.96L11.76 8.96L11.76 8.96Q11.70 8.72 11.70 8.40L11.70 8.40L11.70 8.40Q11.70 8.06 11.76 7.84L11.76 7.84L11.76 7.84Q11.70 7.60 11.70 7.28L11.70 7.28L11.70 7.28Q11.70 6.94 11.76 6.72L11.76 6.72L11.76 6.72Q11.70 6.48 11.70 6.16L11.70 6.16L11.70 6.16Q11.70 5.82 11.76 5.60L11.76 5.60L11.76 5.60Q11.70 5.36 11.70 5.04L11.70 5.04L11.70 5.04Q11.70 4.70 11.76 4.48L11.76 4.48L11.76 4.48Q11.70 4.24 11.70 3.92L11.70 3.92L11.70 3.92Q11.70 3.58 11.76 3.36L11.76 3.36L15.68 3.36L15.68 3.36Q15.74 3.58 15.74 3.92L15.74 3.92L15.74 3.92Q15.74 4.24 15.68 4.48L15.68 4.48L16.24 4.48L16.24 4.48Q16.30 4.70 16.30 5.04L16.30 5.04L16.30 5.04Q16.30 5.36 16.24 5.60L16.24 5.60L16.24 5.60Q16.30 5.82 16.30 6.16L16.30 6.16ZM15.12 6.72L15.12 6.72Q15.06 6.48 15.06 6.16L15.06 6.16L15.06 6.16Q15.06 5.82 15.12 5.60L15.12 5.60L15.12 5.60Q15.06 5.36 15.06 5.04L15.06 5.04L15.06 5.04Q15.06 4.70 15.12 4.48L15.12 4.48L12.88 4.48L12.88 4.48Q12.94 4.70 12.94 5.04L12.94 5.04L12.94 5.04Q12.94 5.36 12.88 5.60L12.88 5.60L12.88 5.60Q12.94 5.82 12.94 6.16L12.94 6.16L12.94 6.16Q12.94 6.48 12.88 6.72L12.88 6.72L15.12 6.72ZM15.12 8.96L15.12 8.96Q15.06 8.72 15.06 8.40L15.06 8.40L15.06 8.40Q15.06 8.06 15.12 7.84L15.12 7.84L12.88 7.84L12.88 7.84Q12.94 8.06 12.94 8.40L12.94 8.40L12.94 8.40Q12.94 8.72 12.88 8.96L12.88 8.96L12.88 8.96Q12.94 9.18 12.94 9.52L12.94 9.52L12.94 9.52Q12.94 9.84 12.88 10.08L12.88 10.08L15.12 10.08L15.12 10.08Q15.06 9.84 15.06 9.52L15.06 9.52L15.06 9.52Q15.06 9.18 15.12 8.96L15.12 8.96ZM21.42 10.08L21.84 10.08L21.84 10.08Q21.90 10.30 21.90 10.64L21.90 10.64L21.90 10.64Q21.90 10.96 21.84 11.20L21.84 11.20L20.72 11.20L20.72 11.20Q20.66 10.96 20.66 10.64L20.66 10.64L20.66 10.64Q20.66 10.30 20.72 10.08L20.72 10.08L20.30 10.08L20.30 10.08Q20.24 9.84 20.24 9.52L20.24 9.52L20.24 9.52Q20.24 9.18 20.30 8.96L20.30 8.96L19.88 8.96L19.88 8.96Q19.82 8.72 19.82 8.40L19.82 8.40L19.82 8.40Q19.82 8.06 19.88 7.84L19.88 7.84L18.48 7.84L18.48 7.84Q18.54 8.06 18.54 8.40L18.54 8.40L18.54 8.40Q18.54 8.72 18.48 8.96L18.48 8.96L18.48 8.96Q18.54 9.18 18.54 9.52L18.54 9.52L18.54 9.52Q18.54 9.84 18.48 10.08L18.48 10.08L18.48 10.08Q18.54 10.30 18.54 10.64L18.54 10.64L18.54 10.64Q18.54 10.96 18.48 11.20L18.48 11.20L17.36 11.20L17.36 11.20Q17.30 10.96 17.30 10.64L17.30 10.64L17.30 10.64Q17.30 10.30 17.36 10.08L17.36 10.08L17.36 10.08Q17.30 9.84 17.30 9.52L17.30 9.52L17.30 9.52Q17.30 9.18 17.36 8.96L17.36 8.96L17.36 8.96Q17.30 8.72 17.30 8.40L17.30 8.40L17.30 8.40Q17.30 8.06 17.36 7.84L17.36 7.84L17.36 7.84Q17.30 7.60 17.30 7.28L17.30 7.28L17.30 7.28Q17.30 6.94 17.36 6.72L17.36 6.72L17.36 6.72Q17.30 6.48 17.30 6.16L17.30 6.16L17.30 6.16Q17.30 5.82 17.36 5.60L17.36 5.60L17.36 5.60Q17.30 5.36 17.30 5.04L17.30 5.04L17.30 5.04Q17.30 4.70 17.36 4.48L17.36 4.48L17.36 4.48Q17.30 4.24 17.30 3.92L17.30 3.92L17.30 3.92Q17.30 3.58 17.36 3.36L17.36 3.36L21.28 3.36L21.28 3.36Q21.34 3.58 21.34 3.92L21.34 3.92L21.34 3.92Q21.34 4.24 21.28 4.48L21.28 4.48L21.84 4.48L21.84 4.48Q21.90 4.70 21.90 5.04L21.90 5.04L21.90 5.04Q21.90 5.36 21.84 5.60L21.84 5.60L21.56 5.60L21.56 5.60Q21.62 5.82 21.62 6.16L21.62 6.16L21.62 6.16Q21.62 6.48 21.56 6.72L21.56 6.72L20.72 6.72L20.72 6.72Q20.78 6.94 20.78 7.28L20.78 7.28L20.78 7.28Q20.78 7.60 20.72 7.84L20.72 7.84L21 7.84L21 7.84Q21.06 8.06 21.06 8.40L21.06 8.40L21.06 8.40Q21.06 8.72 21 8.96L21 8.96L21.42 8.96L21.42 8.96Q21.48 9.18 21.48 9.52L21.48 9.52L21.48 9.52Q21.48 9.84 21.42 10.08L21.42 10.08ZM20.44 6.72L20.44 6.72Q20.38 6.48 20.38 6.16L20.38 6.16L20.38 6.16Q20.38 5.82 20.44 5.60L20.44 5.60L20.44 5.60Q20.38 5.36 20.38 5.04L20.38 5.04L20.38 5.04Q20.38 4.70 20.44 4.48L20.44 4.48L18.48 4.48L18.48 4.48Q18.54 4.70 18.54 5.04L18.54 5.04L18.54 5.04Q18.54 5.36 18.48 5.60L18.48 5.60L18.48 5.60Q18.54 5.82 18.54 6.16L18.54 6.16L18.54 6.16Q18.54 6.48 18.48 6.72L18.48 6.72L20.44 6.72ZM27.50 3.92L27.50 3.92Q27.50 4.24 27.44 4.48L27.44 4.48L27.44 4.48Q27.50 4.70 27.50 5.04L27.50 5.04L27.50 5.04Q27.50 5.36 27.44 5.60L27.44 5.60L26.88 5.60L26.88 5.60Q26.94 5.82 26.94 6.16L26.94 6.16L26.94 6.16Q26.94 6.48 26.88 6.72L26.88 6.72L26.32 6.72L26.32 6.72Q26.38 6.94 26.38 7.28L26.38 7.28L26.38 7.28Q26.38 7.60 26.32 7.84L26.32 7.84L25.76 7.84L25.76 7.84Q25.82 8.06 25.82 8.40L25.82 8.40L25.82 8.40Q25.82 8.72 25.76 8.96L25.76 8.96L25.76 8.96Q25.82 9.18 25.82 9.52L25.82 9.52L25.82 9.52Q25.82 9.84 25.76 10.08L25.76 10.08L25.76 10.08Q25.82 10.30 25.82 10.64L25.82 10.64L25.82 10.64Q25.82 10.96 25.76 11.20L25.76 11.20L24.64 11.20L24.64 11.20Q24.58 10.96 24.58 10.64L24.58 10.64L24.58 10.64Q24.58 10.30 24.64 10.08L24.64 10.08L24.64 10.08Q24.58 9.84 24.58 9.52L24.58 9.52L24.58 9.52Q24.58 9.18 24.64 8.96L24.64 8.96L24.64 8.96Q24.58 8.72 24.58 8.40L24.58 8.40L24.58 8.40Q24.58 8.06 24.64 7.84L24.64 7.84L24.08 7.84L24.08 7.84Q24.02 7.60 24.02 7.28L24.02 7.28L24.02 7.28Q24.02 6.94 24.08 6.72L24.08 6.72L23.52 6.72L23.52 6.72Q23.46 6.48 23.46 6.16L23.46 6.16L23.46 6.16Q23.46 5.82 23.52 5.60L23.52 5.60L22.96 5.60L22.96 5.60Q22.90 5.36 22.90 5.04L22.90 5.04L22.90 5.04Q22.90 4.70 22.96 4.48L22.96 4.48L22.96 4.48Q22.90 4.24 22.90 3.92L22.90 3.92L22.90 3.92Q22.90 3.58 22.96 3.36L22.96 3.36L24.08 3.36L24.08 3.36Q24.14 3.58 24.14 3.92L24.14 3.92L24.14 3.92Q24.14 4.24 24.08 4.48L24.08 4.48L24.08 4.48Q24.14 4.70 24.14 5.04L24.14 5.04L24.14 5.04Q24.14 5.36 24.08 5.60L24.08 5.60L24.64 5.60L24.64 5.60Q24.70 5.82 24.70 6.16L24.70 6.16L24.70 6.16Q24.70 6.48 24.64 6.72L24.64 6.72L25.76 6.72L25.76 6.72Q25.70 6.48 25.70 6.16L25.70 6.16L25.70 6.16Q25.70 5.82 25.76 5.60L25.76 5.60L26.32 5.60L26.32 5.60Q26.26 5.36 26.26 5.04L26.26 5.04L26.26 5.04Q26.26 4.70 26.32 4.48L26.32 4.48L26.32 4.48Q26.26 4.24 26.26 3.92L26.26 3.92L26.26 3.92Q26.26 3.58 26.32 3.36L26.32 3.36L27.44 3.36L27.44 3.36Q27.50 3.58 27.50 3.92L27.50 3.92ZM38.64 4.48L38.64 4.48Q38.70 4.70 38.70 5.04L38.70 5.04L38.70 5.04Q38.70 5.36 38.64 5.60L38.64 5.60L38.64 5.60Q38.70 5.82 38.70 6.16L38.70 6.16L38.70 6.16Q38.70 6.48 38.64 6.72L38.64 6.72L38.64 6.72Q38.70 6.94 38.70 7.28L38.70 7.28L38.70 7.28Q38.70 7.60 38.64 7.84L38.64 7.84L38.64 7.84Q38.70 8.06 38.70 8.40L38.70 8.40L38.70 8.40Q38.70 8.72 38.64 8.96L38.64 8.96L38.64 8.96Q38.70 9.18 38.70 9.52L38.70 9.52L38.70 9.52Q38.70 9.84 38.64 10.08L38.64 10.08L38.64 10.08Q38.70 10.30 38.70 10.64L38.70 10.64L38.70 10.64Q38.70 10.96 38.64 11.20L38.64 11.20L37.52 11.20L37.52 11.20Q37.46 10.96 37.46 10.64L37.46 10.64L37.46 10.64Q37.46 10.30 37.52 10.08L37.52 10.08L37.52 10.08Q37.46 9.84 37.46 9.52L37.46 9.52L37.46 9.52Q37.46 9.18 37.52 8.96L37.52 8.96L37.52 8.96Q37.46 8.72 37.46 8.40L37.46 8.40L37.46 8.40Q37.46 8.06 37.52 7.84L37.52 7.84L35.28 7.84L35.28 7.84Q35.34 8.06 35.34 8.40L35.34 8.40L35.34 8.40Q35.34 8.72 35.28 8.96L35.28 8.96L35.28 8.96Q35.34 9.18 35.34 9.52L35.34 9.52L35.34 9.52Q35.34 9.84 35.28 10.08L35.28 10.08L35.28 10.08Q35.34 10.30 35.34 10.64L35.34 10.64L35.34 10.64Q35.34 10.96 35.28 11.20L35.28 11.20L34.16 11.20L34.16 11.20Q34.10 10.96 34.10 10.64L34.10 10.64L34.10 10.64Q34.10 10.30 34.16 10.08L34.16 10.08L34.16 10.08Q34.10 9.84 34.10 9.52L34.10 9.52L34.10 9.52Q34.10 9.18 34.16 8.96L34.16 8.96L34.16 8.96Q34.10 8.72 34.10 8.40L34.10 8.40L34.10 8.40Q34.10 8.06 34.16 7.84L34.16 7.84L34.16 7.84Q34.10 7.60 34.10 7.28L34.10 7.28L34.10 7.28Q34.10 6.94 34.16 6.72L34.16 6.72L34.16 6.72Q34.10 6.48 34.10 6.16L34.10 6.16L34.10 6.16Q34.10 5.82 34.16 5.60L34.16 5.60L34.16 5.60Q34.10 5.36 34.10 5.04L34.10 5.04L34.10 5.04Q34.10 4.70 34.16 4.48L34.16 4.48L34.16 4.48Q34.10 4.24 34.10 3.92L34.10 3.92L34.10 3.92Q34.10 3.58 34.16 3.36L34.16 3.36L35.28 3.36L35.28 3.36Q35.34 3.58 35.34 3.92L35.34 3.92L35.34 3.92Q35.34 4.24 35.28 4.48L35.28 4.48L35.28 4.48Q35.34 4.70 35.34 5.04L35.34 5.04L35.34 5.04Q35.34 5.36 35.28 5.60L35.28 5.60L35.28 5.60Q35.34 5.82 35.34 6.16L35.34 6.16L35.34 6.16Q35.34 6.48 35.28 6.72L35.28 6.72L37.52 6.72L37.52 6.72Q37.46 6.48 37.46 6.16L37.46 6.16L37.46 6.16Q37.46 5.82 37.52 5.60L37.52 5.60L37.52 5.60Q37.46 5.36 37.46 5.04L37.46 5.04L37.46 5.04Q37.46 4.70 37.52 4.48L37.52 4.48L37.52 4.48Q37.46 4.24 37.46 3.92L37.46 3.92L37.46 3.92Q37.46 3.58 37.52 3.36L37.52 3.36L38.64 3.36L38.64 3.36Q38.70 3.58 38.70 3.92L38.70 3.92L38.70 3.92Q38.70 4.24 38.64 4.48L38.64 4.48ZM44.30 9.52L44.30 9.52Q44.30 9.84 44.24 10.08L44.24 10.08L44.24 10.08Q44.30 10.30 44.30 10.64L44.30 10.64L44.30 10.64Q44.30 10.96 44.24 11.20L44.24 11.20L43.12 11.20L43.12 11.20Q43.06 10.96 43.06 10.64L43.06 10.64L43.06 10.64Q43.06 10.30 43.12 10.08L43.12 10.08L43.12 10.08Q43.06 9.84 43.06 9.52L43.06 9.52L43.06 9.52Q43.06 9.18 43.12 8.96L43.12 8.96L40.88 8.96L40.88 8.96Q40.94 9.18 40.94 9.52L40.94 9.52L40.94 9.52Q40.94 9.84 40.88 10.08L40.88 10.08L40.88 10.08Q40.94 10.30 40.94 10.64L40.94 10.64L40.94 10.64Q40.94 10.96 40.88 11.20L40.88 11.20L39.76 11.20L39.76 11.20Q39.70 10.96 39.70 10.64L39.70 10.64L39.70 10.64Q39.70 10.30 39.76 10.08L39.76 10.08L39.76 10.08Q39.70 9.84 39.70 9.52L39.70 9.52L39.70 9.52Q39.70 9.18 39.76 8.96L39.76 8.96L40.18 8.96L40.18 8.96Q40.12 8.72 40.12 8.40L40.12 8.40L40.12 8.40Q40.12 8.06 40.18 7.84L40.18 7.84L40.18 7.84Q40.12 7.60 40.12 7.28L40.12 7.28L40.12 7.28Q40.12 6.94 40.18 6.72L40.18 6.72L40.46 6.72L40.46 6.72Q40.40 6.48 40.40 6.16L40.40 6.16L40.40 6.16Q40.40 5.82 40.46 5.60L40.46 5.60L40.88 5.60L40.88 5.60Q40.82 5.36 40.82 5.04L40.82 5.04L40.82 5.04Q40.82 4.70 40.88 4.48L40.88 4.48L41.16 4.48L41.16 4.48Q41.10 4.24 41.10 3.92L41.10 3.92L41.10 3.92Q41.10 3.58 41.16 3.36L41.16 3.36L42.84 3.36L42.84 3.36Q42.90 3.58 42.90 3.92L42.90 3.92L42.90 3.92Q42.90 4.24 42.84 4.48L42.84 4.48L43.12 4.48L43.12 4.48Q43.18 4.70 43.18 5.04L43.18 5.04L43.18 5.04Q43.18 5.36 43.12 5.60L43.12 5.60L43.54 5.60L43.54 5.60Q43.60 5.82 43.60 6.16L43.60 6.16L43.60 6.16Q43.60 6.48 43.54 6.72L43.54 6.72L43.82 6.72L43.82 6.72Q43.88 6.94 43.88 7.28L43.88 7.28L43.88 7.28Q43.88 7.60 43.82 7.84L43.82 7.84L43.82 7.84Q43.88 8.06 43.88 8.40L43.88 8.40L43.88 8.40Q43.88 8.72 43.82 8.96L43.82 8.96L44.24 8.96L44.24 8.96Q44.30 9.18 44.30 9.52L44.30 9.52ZM42.70 7.84L42.70 7.84Q42.64 7.60 42.64 7.28L42.64 7.28L42.64 7.28Q42.64 6.94 42.70 6.72L42.70 6.72L42.42 6.72L42.42 6.72Q42.36 6.48 42.36 6.16L42.36 6.16L42.36 6.16Q42.36 5.82 42.42 5.60L42.42 5.60L41.58 5.60L41.58 5.60Q41.64 5.82 41.64 6.16L41.64 6.16L41.64 6.16Q41.64 6.48 41.58 6.72L41.58 6.72L41.30 6.72L41.30 6.72Q41.36 6.94 41.36 7.28L41.36 7.28L41.36 7.28Q41.36 7.60 41.30 7.84L41.30 7.84L42.70 7.84ZM49.42 10.08L49.84 10.08L49.84 10.08Q49.90 10.30 49.90 10.64L49.90 10.64L49.90 10.64Q49.90 10.96 49.84 11.20L49.84 11.20L48.72 11.20L48.72 11.20Q48.66 10.96 48.66 10.64L48.66 10.64L48.66 10.64Q48.66 10.30 48.72 10.08L48.72 10.08L48.30 10.08L48.30 10.08Q48.24 9.84 48.24 9.52L48.24 9.52L48.24 9.52Q48.24 9.18 48.30 8.96L48.30 8.96L47.46 8.96L47.46 8.96Q47.40 8.72 47.40 8.40L47.40 8.40L47.40 8.40Q47.40 8.06 47.46 7.84L47.46 7.84L46.48 7.84L46.48 7.84Q46.54 8.06 46.54 8.40L46.54 8.40L46.54 8.40Q46.54 8.72 46.48 8.96L46.48 8.96L46.48 8.96Q46.54 9.18 46.54 9.52L46.54 9.52L46.54 9.52Q46.54 9.84 46.48 10.08L46.48 10.08L46.48 10.08Q46.54 10.30 46.54 10.64L46.54 10.64L46.54 10.64Q46.54 10.96 46.48 11.20L46.48 11.20L45.36 11.20L45.36 11.20Q45.30 10.96 45.30 10.64L45.30 10.64L45.30 10.64Q45.30 10.30 45.36 10.08L45.36 10.08L45.36 10.08Q45.30 9.84 45.30 9.52L45.30 9.52L45.30 9.52Q45.30 9.18 45.36 8.96L45.36 8.96L45.36 8.96Q45.30 8.72 45.30 8.40L45.30 8.40L45.30 8.40Q45.30 8.06 45.36 7.84L45.36 7.84L45.36 7.84Q45.30 7.60 45.30 7.28L45.30 7.28L45.30 7.28Q45.30 6.94 45.36 6.72L45.36 6.72L45.36 6.72Q45.30 6.48 45.30 6.16L45.30 6.16L45.30 6.16Q45.30 5.82 45.36 5.60L45.36 5.60L45.36 5.60Q45.30 5.36 45.30 5.04L45.30 5.04L45.30 5.04Q45.30 4.70 45.36 4.48L45.36 4.48L45.36 4.48Q45.30 4.24 45.30 3.92L45.30 3.92L45.30 3.92Q45.30 3.58 45.36 3.36L45.36 3.36L46.48 3.36L46.48 3.36Q46.54 3.58 46.54 3.92L46.54 3.92L46.54 3.92Q46.54 4.24 46.48 4.48L46.48 4.48L46.48 4.48Q46.54 4.70 46.54 5.04L46.54 5.04L46.54 5.04Q46.54 5.36 46.48 5.60L46.48 5.60L46.48 5.60Q46.54 5.82 46.54 6.16L46.54 6.16L46.54 6.16Q46.54 6.48 46.48 6.72L46.48 6.72L47.46 6.72L47.46 6.72Q47.40 6.48 47.40 6.16L47.40 6.16L47.40 6.16Q47.40 5.82 47.46 5.60L47.46 5.60L48.30 5.60L48.30 5.60Q48.24 5.36 48.24 5.04L48.24 5.04L48.24 5.04Q48.24 4.70 48.30 4.48L48.30 4.48L48.72 4.48L48.72 4.48Q48.66 4.24 48.66 3.92L48.66 3.92L48.66 3.92Q48.66 3.58 48.72 3.36L48.72 3.36L49.84 3.36L49.84 3.36Q49.90 3.58 49.90 3.92L49.90 3.92L49.90 3.92Q49.90 4.24 49.84 4.48L49.84 4.48L49.42 4.48L49.42 4.48Q49.48 4.70 49.48 5.04L49.48 5.04L49.48 5.04Q49.48 5.36 49.42 5.60L49.42 5.60L48.58 5.60L48.58 5.60Q48.64 5.82 48.64 6.16L48.64 6.16L48.64 6.16Q48.64 6.48 48.58 6.72L48.58 6.72L47.88 6.72L47.88 6.72Q47.94 6.94 47.94 7.28L47.94 7.28L47.94 7.28Q47.94 7.60 47.88 7.84L47.88 7.84L48.58 7.84L48.58 7.84Q48.64 8.06 48.64 8.40L48.64 8.40L48.64 8.40Q48.64 8.72 48.58 8.96L48.58 8.96L49.42 8.96L49.42 8.96Q49.48 9.18 49.48 9.52L49.48 9.52L49.48 9.52Q49.48 9.84 49.42 10.08L49.42 10.08ZM53.76 10.08L54.60 10.08L54.60 10.08Q54.66 10.30 54.66 10.64L54.66 10.64L54.66 10.64Q54.66 10.96 54.60 11.20L54.60 11.20L51.80 11.20L51.80 11.20Q51.74 10.96 51.74 10.64L51.74 10.64L51.74 10.64Q51.74 10.30 51.80 10.08L51.80 10.08L52.64 10.08L52.64 10.08Q52.58 9.84 52.58 9.52L52.58 9.52L52.58 9.52Q52.58 9.18 52.64 8.96L52.64 8.96L52.64 8.96Q52.58 8.72 52.58 8.40L52.58 8.40L52.58 8.40Q52.58 8.06 52.64 7.84L52.64 7.84L52.64 7.84Q52.58 7.60 52.58 7.28L52.58 7.28L52.58 7.28Q52.58 6.94 52.64 6.72L52.64 6.72L52.64 6.72Q52.58 6.48 52.58 6.16L52.58 6.16L52.58 6.16Q52.58 5.82 52.64 5.60L52.64 5.60L52.64 5.60Q52.58 5.36 52.58 5.04L52.58 5.04L52.58 5.04Q52.58 4.70 52.64 4.48L52.64 4.48L51.80 4.48L51.80 4.48Q51.74 4.24 51.74 3.92L51.74 3.92L51.74 3.92Q51.74 3.58 51.80 3.36L51.80 3.36L54.60 3.36L54.60 3.36Q54.66 3.58 54.66 3.92L54.66 3.92L54.66 3.92Q54.66 4.24 54.60 4.48L54.60 4.48L53.76 4.48L53.76 4.48Q53.82 4.70 53.82 5.04L53.82 5.04L53.82 5.04Q53.82 5.36 53.76 5.60L53.76 5.60L53.76 5.60Q53.82 5.82 53.82 6.16L53.82 6.16L53.82 6.16Q53.82 6.48 53.76 6.72L53.76 6.72L53.76 6.72Q53.82 6.94 53.82 7.28L53.82 7.28L53.82 7.28Q53.82 7.60 53.76 7.84L53.76 7.84L53.76 7.84Q53.82 8.06 53.82 8.40L53.82 8.40L53.82 8.40Q53.82 8.72 53.76 8.96L53.76 8.96L53.76 8.96Q53.82 9.18 53.82 9.52L53.82 9.52L53.82 9.52Q53.82 9.84 53.76 10.08L53.76 10.08ZM60.48 7.84L58.24 7.84L58.24 7.84Q58.30 8.06 58.30 8.40L58.30 8.40L58.30 8.40Q58.30 8.72 58.24 8.96L58.24 8.96L58.24 8.96Q58.30 9.18 58.30 9.52L58.30 9.52L58.30 9.52Q58.30 9.84 58.24 10.08L58.24 10.08L60.48 10.08L60.48 10.08Q60.54 10.30 60.54 10.64L60.54 10.64L60.54 10.64Q60.54 10.96 60.48 11.20L60.48 11.20L57.12 11.20L57.12 11.20Q57.06 10.96 57.06 10.64L57.06 10.64L57.06 10.64Q57.06 10.30 57.12 10.08L57.12 10.08L57.12 10.08Q57.06 9.84 57.06 9.52L57.06 9.52L57.06 9.52Q57.06 9.18 57.12 8.96L57.12 8.96L57.12 8.96Q57.06 8.72 57.06 8.40L57.06 8.40L57.06 8.40Q57.06 8.06 57.12 7.84L57.12 7.84L57.12 7.84Q57.06 7.60 57.06 7.28L57.06 7.28L57.06 7.28Q57.06 6.94 57.12 6.72L57.12 6.72L57.12 6.72Q57.06 6.48 57.06 6.16L57.06 6.16L57.06 6.16Q57.06 5.82 57.12 5.60L57.12 5.60L57.12 5.60Q57.06 5.36 57.06 5.04L57.06 5.04L57.06 5.04Q57.06 4.70 57.12 4.48L57.12 4.48L57.12 4.48Q57.06 4.24 57.06 3.92L57.06 3.92L57.06 3.92Q57.06 3.58 57.12 3.36L57.12 3.36L60.48 3.36L60.48 3.36Q60.54 3.58 60.54 3.92L60.54 3.92L60.54 3.92Q60.54 4.24 60.48 4.48L60.48 4.48L58.24 4.48L58.24 4.48Q58.30 4.70 58.30 5.04L58.30 5.04L58.30 5.04Q58.30 5.36 58.24 5.60L58.24 5.60L58.24 5.60Q58.30 5.82 58.30 6.16L58.30 6.16L58.30 6.16Q58.30 6.48 58.24 6.72L58.24 6.72L60.48 6.72L60.48 6.72Q60.54 6.94 60.54 7.28L60.54 7.28L60.54 7.28Q60.54 7.60 60.48 7.84L60.48 7.84ZM66.22 10.08L66.64 10.08L66.64 10.08Q66.70 10.30 66.70 10.64L66.70 10.64L66.70 10.64Q66.70 10.96 66.64 11.20L66.64 11.20L65.52 11.20L65.52 11.20Q65.46 10.96 65.46 10.64L65.46 10.64L65.46 10.64Q65.46 10.30 65.52 10.08L65.52 10.08L65.10 10.08L65.10 10.08Q65.04 9.84 65.04 9.52L65.04 9.52L65.04 9.52Q65.04 9.18 65.10 8.96L65.10 8.96L64.68 8.96L64.68 8.96Q64.62 8.72 64.62 8.40L64.62 8.40L64.62 8.40Q64.62 8.06 64.68 7.84L64.68 7.84L63.28 7.84L63.28 7.84Q63.34 8.06 63.34 8.40L63.34 8.40L63.34 8.40Q63.34 8.72 63.28 8.96L63.28 8.96L63.28 8.96Q63.34 9.18 63.34 9.52L63.34 9.52L63.34 9.52Q63.34 9.84 63.28 10.08L63.28 10.08L63.28 10.08Q63.34 10.30 63.34 10.64L63.34 10.64L63.34 10.64Q63.34 10.96 63.28 11.20L63.28 11.20L62.16 11.20L62.16 11.20Q62.10 10.96 62.10 10.64L62.10 10.64L62.10 10.64Q62.10 10.30 62.16 10.08L62.16 10.08L62.16 10.08Q62.10 9.84 62.10 9.52L62.10 9.52L62.10 9.52Q62.10 9.18 62.16 8.96L62.16 8.96L62.16 8.96Q62.10 8.72 62.10 8.40L62.10 8.40L62.10 8.40Q62.10 8.06 62.16 7.84L62.16 7.84L62.16 7.84Q62.10 7.60 62.10 7.28L62.10 7.28L62.10 7.28Q62.10 6.94 62.16 6.72L62.16 6.72L62.16 6.72Q62.10 6.48 62.10 6.16L62.10 6.16L62.10 6.16Q62.10 5.82 62.16 5.60L62.16 5.60L62.16 5.60Q62.10 5.36 62.10 5.04L62.10 5.04L62.10 5.04Q62.10 4.70 62.16 4.48L62.16 4.48L62.16 4.48Q62.10 4.24 62.10 3.92L62.10 3.92L62.10 3.92Q62.10 3.58 62.16 3.36L62.16 3.36L66.08 3.36L66.08 3.36Q66.14 3.58 66.14 3.92L66.14 3.92L66.14 3.92Q66.14 4.24 66.08 4.48L66.08 4.48L66.64 4.48L66.64 4.48Q66.70 4.70 66.70 5.04L66.70 5.04L66.70 5.04Q66.70 5.36 66.64 5.60L66.64 5.60L66.36 5.60L66.36 5.60Q66.42 5.82 66.42 6.16L66.42 6.16L66.42 6.16Q66.42 6.48 66.36 6.72L66.36 6.72L65.52 6.72L65.52 6.72Q65.58 6.94 65.58 7.28L65.58 7.28L65.58 7.28Q65.58 7.60 65.52 7.84L65.52 7.84L65.80 7.84L65.80 7.84Q65.86 8.06 65.86 8.40L65.86 8.40L65.86 8.40Q65.86 8.72 65.80 8.96L65.80 8.96L66.22 8.96L66.22 8.96Q66.28 9.18 66.28 9.52L66.28 9.52L66.28 9.52Q66.28 9.84 66.22 10.08L66.22 10.08ZM65.24 6.72L65.24 6.72Q65.18 6.48 65.18 6.16L65.18 6.16L65.18 6.16Q65.18 5.82 65.24 5.60L65.24 5.60L65.24 5.60Q65.18 5.36 65.18 5.04L65.18 5.04L65.18 5.04Q65.18 4.70 65.24 4.48L65.24 4.48L63.28 4.48L63.28 4.48Q63.34 4.70 63.34 5.04L63.34 5.04L63.34 5.04Q63.34 5.36 63.28 5.60L63.28 5.60L63.28 5.60Q63.34 5.82 63.34 6.16L63.34 6.16L63.34 6.16Q63.34 6.48 63.28 6.72L63.28 6.72L65.24 6.72Z"></path></g></svg>