<svg data-v-423bf9ae="" xmlns="http://www.w3.org/2000/svg" viewBox="0 0 335.20406926984066 203" class="iconAboveSlogan"><!----><!----><defs data-v-423bf9ae=""><linearGradient data-v-423bf9ae="" gradientTransform="rotate(25)" id="9601f9a6-eba3-43cb-9e8a-18760252f608" x1="0%" y1="0%" x2="100%" y2="0%"><stop data-v-423bf9ae="" offset="0%" style="stop-color: rgb(64, 64, 64); stop-opacity: 1;"></stop><stop data-v-423bf9ae="" offset="100%" style="stop-color: rgb(166, 68, 47); stop-opacity: 1;"></stop></linearGradient></defs><g data-v-423bf9ae="" id="924f3bc1-3861-47f8-aaa0-65c6f76ea150" fill="url(#9601f9a6-eba3-43cb-9e8a-18760252f608)" transform="matrix(7.6530609130859375,0,0,7.6530609130859375,-3.826525926589966,77.28572082519531)"><path d="M5.04 4.48L5.04 4.48Q5.10 4.70 5.10 5.04L5.10 5.04L5.10 5.04Q5.10 5.36 5.04 5.60L5.04 5.60L5.04 5.60Q5.10 5.82 5.10 6.16L5.10 6.16L5.10 6.16Q5.10 6.48 5.04 6.72L5.04 6.72L5.04 6.72Q5.10 6.94 5.10 7.28L5.10 7.28L5.10 7.28Q5.10 7.60 5.04 7.84L5.04 7.84L5.04 7.84Q5.10 8.06 5.10 8.40L5.10 8.40L5.10 8.40Q5.10 8.72 5.04 8.96L5.04 8.96L5.04 8.96Q5.10 9.18 5.10 9.52L5.10 9.52L5.10 9.52Q5.10 9.84 5.04 10.08L5.04 10.08L5.04 10.08Q5.10 10.30 5.10 10.64L5.10 10.64L5.10 10.64Q5.10 10.96 5.04 11.20L5.04 11.20L3.92 11.20L3.92 11.20Q3.86 10.96 3.86 10.64L3.86 10.64L3.86 10.64Q3.86 10.30 3.92 10.08L3.92 10.08L3.92 10.08Q3.86 9.84 3.86 9.52L3.86 9.52L3.86 9.52Q3.86 9.18 3.92 8.96L3.92 8.96L3.92 8.96Q3.86 8.72 3.86 8.40L3.86 8.40L3.86 8.40Q3.86 8.06 3.92 7.84L3.92 7.84L1.68 7.84L1.68 7.84Q1.74 8.06 1.74 8.40L1.74 8.40L1.74 8.40Q1.74 8.72 1.68 8.96L1.68 8.96L1.68 8.96Q1.74 9.18 1.74 9.52L1.74 9.52L1.74 9.52Q1.74 9.84 1.68 10.08L1.68 10.08L1.68 10.08Q1.74 10.30 1.74 10.64L1.74 10.64L1.74 10.64Q1.74 10.96 1.68 11.20L1.68 11.20L0.56 11.20L0.56 11.20Q0.50 10.96 0.50 10.64L0.50 10.64L0.50 10.64Q0.50 10.30 0.56 10.08L0.56 10.08L0.56 10.08Q0.50 9.84 0.50 9.52L0.50 9.52L0.50 9.52Q0.50 9.18 0.56 8.96L0.56 8.96L0.56 8.96Q0.50 8.72 0.50 8.40L0.50 8.40L0.50 8.40Q0.50 8.06 0.56 7.84L0.56 7.84L0.56 7.84Q0.50 7.60 0.50 7.28L0.50 7.28L0.50 7.28Q0.50 6.94 0.56 6.72L0.56 6.72L0.56 6.72Q0.50 6.48 0.50 6.16L0.50 6.16L0.50 6.16Q0.50 5.82 0.56 5.60L0.56 5.60L0.56 5.60Q0.50 5.36 0.50 5.04L0.50 5.04L0.50 5.04Q0.50 4.70 0.56 4.48L0.56 4.48L0.56 4.48Q0.50 4.24 0.50 3.92L0.50 3.92L0.50 3.92Q0.50 3.58 0.56 3.36L0.56 3.36L1.68 3.36L1.68 3.36Q1.74 3.58 1.74 3.92L1.74 3.92L1.74 3.92Q1.74 4.24 1.68 4.48L1.68 4.48L1.68 4.48Q1.74 4.70 1.74 5.04L1.74 5.04L1.74 5.04Q1.74 5.36 1.68 5.60L1.68 5.60L1.68 5.60Q1.74 5.82 1.74 6.16L1.74 6.16L1.74 6.16Q1.74 6.48 1.68 6.72L1.68 6.72L3.92 6.72L3.92 6.72Q3.86 6.48 3.86 6.16L3.86 6.16L3.86 6.16Q3.86 5.82 3.92 5.60L3.92 5.60L3.92 5.60Q3.86 5.36 3.86 5.04L3.86 5.04L3.86 5.04Q3.86 4.70 3.92 4.48L3.92 4.48L3.92 4.48Q3.86 4.24 3.86 3.92L3.86 3.92L3.86 3.92Q3.86 3.58 3.92 3.36L3.92 3.36L5.04 3.36L5.04 3.36Q5.10 3.58 5.10 3.92L5.10 3.92L5.10 3.92Q5.10 4.24 5.04 4.48L5.04 4.48ZM10.70 9.52L10.70 9.52Q10.70 9.84 10.64 10.08L10.64 10.08L10.64 10.08Q10.70 10.30 10.70 10.64L10.70 10.64L10.70 10.64Q10.70 10.96 10.64 11.20L10.64 11.20L9.52 11.20L9.52 11.20Q9.46 10.96 9.46 10.64L9.46 10.64L9.46 10.64Q9.46 10.30 9.52 10.08L9.52 10.08L9.52 10.08Q9.46 9.84 9.46 9.52L9.46 9.52L9.46 9.52Q9.46 9.18 9.52 8.96L9.52 8.96L7.28 8.96L7.28 8.96Q7.34 9.18 7.34 9.52L7.34 9.52L7.34 9.52Q7.34 9.84 7.28 10.08L7.28 10.08L7.28 10.08Q7.34 10.30 7.34 10.64L7.34 10.64L7.34 10.64Q7.34 10.96 7.28 11.20L7.28 11.20L6.16 11.20L6.16 11.20Q6.10 10.96 6.10 10.64L6.10 10.64L6.10 10.64Q6.10 10.30 6.16 10.08L6.16 10.08L6.16 10.08Q6.10 9.84 6.10 9.52L6.10 9.52L6.10 9.52Q6.10 9.18 6.16 8.96L6.16 8.96L6.58 8.96L6.58 8.96Q6.52 8.72 6.52 8.40L6.52 8.40L6.52 8.40Q6.52 8.06 6.58 7.84L6.58 7.84L6.58 7.84Q6.52 7.60 6.52 7.28L6.52 7.28L6.52 7.28Q6.52 6.94 6.58 6.72L6.58 6.72L6.86 6.72L6.86 6.72Q6.80 6.48 6.80 6.16L6.80 6.16L6.80 6.16Q6.80 5.82 6.86 5.60L6.86 5.60L7.28 5.60L7.28 5.60Q7.22 5.36 7.22 5.04L7.22 5.04L7.22 5.04Q7.22 4.70 7.28 4.48L7.28 4.48L7.56 4.48L7.56 4.48Q7.50 4.24 7.50 3.92L7.50 3.92L7.50 3.92Q7.50 3.58 7.56 3.36L7.56 3.36L9.24 3.36L9.24 3.36Q9.30 3.58 9.30 3.92L9.30 3.92L9.30 3.92Q9.30 4.24 9.24 4.48L9.24 4.48L9.52 4.48L9.52 4.48Q9.58 4.70 9.58 5.04L9.58 5.04L9.58 5.04Q9.58 5.36 9.52 5.60L9.52 5.60L9.94 5.60L9.94 5.60Q10.00 5.82 10.00 6.16L10.00 6.16L10.00 6.16Q10.00 6.48 9.94 6.72L9.94 6.72L10.22 6.72L10.22 6.72Q10.28 6.94 10.28 7.28L10.28 7.28L10.28 7.28Q10.28 7.60 10.22 7.84L10.22 7.84L10.22 7.84Q10.28 8.06 10.28 8.40L10.28 8.40L10.28 8.40Q10.28 8.72 10.22 8.96L10.22 8.96L10.64 8.96L10.64 8.96Q10.70 9.18 10.70 9.52L10.70 9.52ZM9.10 7.84L9.10 7.84Q9.04 7.60 9.04 7.28L9.04 7.28L9.04 7.28Q9.04 6.94 9.10 6.72L9.10 6.72L8.82 6.72L8.82 6.72Q8.76 6.48 8.76 6.16L8.76 6.16L8.76 6.16Q8.76 5.82 8.82 5.60L8.82 5.60L7.98 5.60L7.98 5.60Q8.04 5.82 8.04 6.16L8.04 6.16L8.04 6.16Q8.04 6.48 7.98 6.72L7.98 6.72L7.70 6.72L7.70 6.72Q7.76 6.94 7.76 7.28L7.76 7.28L7.76 7.28Q7.76 7.60 7.70 7.84L7.70 7.84L9.10 7.84ZM15.82 10.08L16.24 10.08L16.24 10.08Q16.30 10.30 16.30 10.64L16.30 10.64L16.30 10.64Q16.30 10.96 16.24 11.20L16.24 11.20L15.12 11.20L15.12 11.20Q15.06 10.96 15.06 10.64L15.06 10.64L15.06 10.64Q15.06 10.30 15.12 10.08L15.12 10.08L14.70 10.08L14.70 10.08Q14.64 9.84 14.64 9.52L14.64 9.52L14.64 9.52Q14.64 9.18 14.70 8.96L14.70 8.96L13.86 8.96L13.86 8.96Q13.80 8.72 13.80 8.40L13.80 8.40L13.80 8.40Q13.80 8.06 13.86 7.84L13.86 7.84L12.88 7.84L12.88 7.84Q12.94 8.06 12.94 8.40L12.94 8.40L12.94 8.40Q12.94 8.72 12.88 8.96L12.88 8.96L12.88 8.96Q12.94 9.18 12.94 9.52L12.94 9.52L12.94 9.52Q12.94 9.84 12.88 10.08L12.88 10.08L12.88 10.08Q12.94 10.30 12.94 10.64L12.94 10.64L12.94 10.64Q12.94 10.96 12.88 11.20L12.88 11.20L11.76 11.20L11.76 11.20Q11.70 10.96 11.70 10.64L11.70 10.64L11.70 10.64Q11.70 10.30 11.76 10.08L11.76 10.08L11.76 10.08Q11.70 9.84 11.70 9.52L11.70 9.52L11.70 9.52Q11.70 9.18 11.76 8.96L11.76 8.96L11.76 8.96Q11.70 8.72 11.70 8.40L11.70 8.40L11.70 8.40Q11.70 8.06 11.76 7.84L11.76 7.84L11.76 7.84Q11.70 7.60 11.70 7.28L11.70 7.28L11.70 7.28Q11.70 6.94 11.76 6.72L11.76 6.72L11.76 6.72Q11.70 6.48 11.70 6.16L11.70 6.16L11.70 6.16Q11.70 5.82 11.76 5.60L11.76 5.60L11.76 5.60Q11.70 5.36 11.70 5.04L11.70 5.04L11.70 5.04Q11.70 4.70 11.76 4.48L11.76 4.48L11.76 4.48Q11.70 4.24 11.70 3.92L11.70 3.92L11.70 3.92Q11.70 3.58 11.76 3.36L11.76 3.36L12.88 3.36L12.88 3.36Q12.94 3.58 12.94 3.92L12.94 3.92L12.94 3.92Q12.94 4.24 12.88 4.48L12.88 4.48L12.88 4.48Q12.94 4.70 12.94 5.04L12.94 5.04L12.94 5.04Q12.94 5.36 12.88 5.60L12.88 5.60L12.88 5.60Q12.94 5.82 12.94 6.16L12.94 6.16L12.94 6.16Q12.94 6.48 12.88 6.72L12.88 6.72L13.86 6.72L13.86 6.72Q13.80 6.48 13.80 6.16L13.80 6.16L13.80 6.16Q13.80 5.82 13.86 5.60L13.86 5.60L14.70 5.60L14.70 5.60Q14.64 5.36 14.64 5.04L14.64 5.04L14.64 5.04Q14.64 4.70 14.70 4.48L14.70 4.48L15.12 4.48L15.12 4.48Q15.06 4.24 15.06 3.92L15.06 3.92L15.06 3.92Q15.06 3.58 15.12 3.36L15.12 3.36L16.24 3.36L16.24 3.36Q16.30 3.58 16.30 3.92L16.30 3.92L16.30 3.92Q16.30 4.24 16.24 4.48L16.24 4.48L15.82 4.48L15.82 4.48Q15.88 4.70 15.88 5.04L15.88 5.04L15.88 5.04Q15.88 5.36 15.82 5.60L15.82 5.60L14.98 5.60L14.98 5.60Q15.04 5.82 15.04 6.16L15.04 6.16L15.04 6.16Q15.04 6.48 14.98 6.72L14.98 6.72L14.28 6.72L14.28 6.72Q14.34 6.94 14.34 7.28L14.34 7.28L14.34 7.28Q14.34 7.60 14.28 7.84L14.28 7.84L14.98 7.84L14.98 7.84Q15.04 8.06 15.04 8.40L15.04 8.40L15.04 8.40Q15.04 8.72 14.98 8.96L14.98 8.96L15.82 8.96L15.82 8.96Q15.88 9.18 15.88 9.52L15.88 9.52L15.88 9.52Q15.88 9.84 15.82 10.08L15.82 10.08ZM20.16 10.08L21 10.08L21 10.08Q21.06 10.30 21.06 10.64L21.06 10.64L21.06 10.64Q21.06 10.96 21 11.20L21 11.20L18.20 11.20L18.20 11.20Q18.14 10.96 18.14 10.64L18.14 10.64L18.14 10.64Q18.14 10.30 18.20 10.08L18.20 10.08L19.04 10.08L19.04 10.08Q18.98 9.84 18.98 9.52L18.98 9.52L18.98 9.52Q18.98 9.18 19.04 8.96L19.04 8.96L19.04 8.96Q18.98 8.72 18.98 8.40L18.98 8.40L18.98 8.40Q18.98 8.06 19.04 7.84L19.04 7.84L19.04 7.84Q18.98 7.60 18.98 7.28L18.98 7.28L18.98 7.28Q18.98 6.94 19.04 6.72L19.04 6.72L19.04 6.72Q18.98 6.48 18.98 6.16L18.98 6.16L18.98 6.16Q18.98 5.82 19.04 5.60L19.04 5.60L19.04 5.60Q18.98 5.36 18.98 5.04L18.98 5.04L18.98 5.04Q18.98 4.70 19.04 4.48L19.04 4.48L18.20 4.48L18.20 4.48Q18.14 4.24 18.14 3.92L18.14 3.92L18.14 3.92Q18.14 3.58 18.20 3.36L18.20 3.36L21 3.36L21 3.36Q21.06 3.58 21.06 3.92L21.06 3.92L21.06 3.92Q21.06 4.24 21 4.48L21 4.48L20.16 4.48L20.16 4.48Q20.22 4.70 20.22 5.04L20.22 5.04L20.22 5.04Q20.22 5.36 20.16 5.60L20.16 5.60L20.16 5.60Q20.22 5.82 20.22 6.16L20.22 6.16L20.22 6.16Q20.22 6.48 20.16 6.72L20.16 6.72L20.16 6.72Q20.22 6.94 20.22 7.28L20.22 7.28L20.22 7.28Q20.22 7.60 20.16 7.84L20.16 7.84L20.16 7.84Q20.22 8.06 20.22 8.40L20.22 8.40L20.22 8.40Q20.22 8.72 20.16 8.96L20.16 8.96L20.16 8.96Q20.22 9.18 20.22 9.52L20.22 9.52L20.22 9.52Q20.22 9.84 20.16 10.08L20.16 10.08ZM26.88 7.84L24.64 7.84L24.64 7.84Q24.70 8.06 24.70 8.40L24.70 8.40L24.70 8.40Q24.70 8.72 24.64 8.96L24.64 8.96L24.64 8.96Q24.70 9.18 24.70 9.52L24.70 9.52L24.70 9.52Q24.70 9.84 24.64 10.08L24.64 10.08L26.88 10.08L26.88 10.08Q26.94 10.30 26.94 10.64L26.94 10.64L26.94 10.64Q26.94 10.96 26.88 11.20L26.88 11.20L23.52 11.20L23.52 11.20Q23.46 10.96 23.46 10.64L23.46 10.64L23.46 10.64Q23.46 10.30 23.52 10.08L23.52 10.08L23.52 10.08Q23.46 9.84 23.46 9.52L23.46 9.52L23.46 9.52Q23.46 9.18 23.52 8.96L23.52 8.96L23.52 8.96Q23.46 8.72 23.46 8.40L23.46 8.40L23.46 8.40Q23.46 8.06 23.52 7.84L23.52 7.84L23.52 7.84Q23.46 7.60 23.46 7.28L23.46 7.28L23.46 7.28Q23.46 6.94 23.52 6.72L23.52 6.72L23.52 6.72Q23.46 6.48 23.46 6.16L23.46 6.16L23.46 6.16Q23.46 5.82 23.52 5.60L23.52 5.60L23.52 5.60Q23.46 5.36 23.46 5.04L23.46 5.04L23.46 5.04Q23.46 4.70 23.52 4.48L23.52 4.48L23.52 4.48Q23.46 4.24 23.46 3.92L23.46 3.92L23.46 3.92Q23.46 3.58 23.52 3.36L23.52 3.36L26.88 3.36L26.88 3.36Q26.94 3.58 26.94 3.92L26.94 3.92L26.94 3.92Q26.94 4.24 26.88 4.48L26.88 4.48L24.64 4.48L24.64 4.48Q24.70 4.70 24.70 5.04L24.70 5.04L24.70 5.04Q24.70 5.36 24.64 5.60L24.64 5.60L24.64 5.60Q24.70 5.82 24.70 6.16L24.70 6.16L24.70 6.16Q24.70 6.48 24.64 6.72L24.64 6.72L26.88 6.72L26.88 6.72Q26.94 6.94 26.94 7.28L26.94 7.28L26.94 7.28Q26.94 7.60 26.88 7.84L26.88 7.84ZM32.62 10.08L33.04 10.08L33.04 10.08Q33.10 10.30 33.10 10.64L33.10 10.64L33.10 10.64Q33.10 10.96 33.04 11.20L33.04 11.20L31.92 11.20L31.92 11.20Q31.86 10.96 31.86 10.64L31.86 10.64L31.86 10.64Q31.86 10.30 31.92 10.08L31.92 10.08L31.50 10.08L31.50 10.08Q31.44 9.84 31.44 9.52L31.44 9.52L31.44 9.52Q31.44 9.18 31.50 8.96L31.50 8.96L31.08 8.96L31.08 8.96Q31.02 8.72 31.02 8.40L31.02 8.40L31.02 8.40Q31.02 8.06 31.08 7.84L31.08 7.84L29.68 7.84L29.68 7.84Q29.74 8.06 29.74 8.40L29.74 8.40L29.74 8.40Q29.74 8.72 29.68 8.96L29.68 8.96L29.68 8.96Q29.74 9.18 29.74 9.52L29.74 9.52L29.74 9.52Q29.74 9.84 29.68 10.08L29.68 10.08L29.68 10.08Q29.74 10.30 29.74 10.64L29.74 10.64L29.74 10.64Q29.74 10.96 29.68 11.20L29.68 11.20L28.56 11.20L28.56 11.20Q28.50 10.96 28.50 10.64L28.50 10.64L28.50 10.64Q28.50 10.30 28.56 10.08L28.56 10.08L28.56 10.08Q28.50 9.84 28.50 9.52L28.50 9.52L28.50 9.52Q28.50 9.18 28.56 8.96L28.56 8.96L28.56 8.96Q28.50 8.72 28.50 8.40L28.50 8.40L28.50 8.40Q28.50 8.06 28.56 7.84L28.56 7.84L28.56 7.84Q28.50 7.60 28.50 7.28L28.50 7.28L28.50 7.28Q28.50 6.94 28.56 6.72L28.56 6.72L28.56 6.72Q28.50 6.48 28.50 6.16L28.50 6.16L28.50 6.16Q28.50 5.82 28.56 5.60L28.56 5.60L28.56 5.60Q28.50 5.36 28.50 5.04L28.50 5.04L28.50 5.04Q28.50 4.70 28.56 4.48L28.56 4.48L28.56 4.48Q28.50 4.24 28.50 3.92L28.50 3.92L28.50 3.92Q28.50 3.58 28.56 3.36L28.56 3.36L32.48 3.36L32.48 3.36Q32.54 3.58 32.54 3.92L32.54 3.92L32.54 3.92Q32.54 4.24 32.48 4.48L32.48 4.48L33.04 4.48L33.04 4.48Q33.10 4.70 33.10 5.04L33.10 5.04L33.10 5.04Q33.10 5.36 33.04 5.60L33.04 5.60L32.76 5.60L32.76 5.60Q32.82 5.82 32.82 6.16L32.82 6.16L32.82 6.16Q32.82 6.48 32.76 6.72L32.76 6.72L31.92 6.72L31.92 6.72Q31.98 6.94 31.98 7.28L31.98 7.28L31.98 7.28Q31.98 7.60 31.92 7.84L31.92 7.84L32.20 7.84L32.20 7.84Q32.26 8.06 32.26 8.40L32.26 8.40L32.26 8.40Q32.26 8.72 32.20 8.96L32.20 8.96L32.62 8.96L32.62 8.96Q32.68 9.18 32.68 9.52L32.68 9.52L32.68 9.52Q32.68 9.84 32.62 10.08L32.62 10.08ZM31.64 6.72L31.64 6.72Q31.58 6.48 31.58 6.16L31.58 6.16L31.58 6.16Q31.58 5.82 31.64 5.60L31.64 5.60L31.64 5.60Q31.58 5.36 31.58 5.04L31.58 5.04L31.58 5.04Q31.58 4.70 31.64 4.48L31.64 4.48L29.68 4.48L29.68 4.48Q29.74 4.70 29.74 5.04L29.74 5.04L29.74 5.04Q29.74 5.36 29.68 5.60L29.68 5.60L29.68 5.60Q29.74 5.82 29.74 6.16L29.74 6.16L29.74 6.16Q29.74 6.48 29.68 6.72L29.68 6.72L31.64 6.72ZM38.64 6.72L38.64 6.72Q38.70 6.94 38.70 7.28L38.70 7.28L38.70 7.28Q38.70 7.60 38.64 7.84L38.64 7.84L38.64 7.84Q38.70 8.06 38.70 8.40L38.70 8.40L38.70 8.40Q38.70 8.72 38.64 8.96L38.64 8.96L38.22 8.96L38.22 8.96Q38.28 9.18 38.28 9.52L38.28 9.52L38.28 9.52Q38.28 9.84 38.22 10.08L38.22 10.08L37.52 10.08L37.52 10.08Q37.58 10.30 37.58 10.64L37.58 10.64L37.58 10.64Q37.58 10.96 37.52 11.20L37.52 11.20L35.28 11.20L35.28 11.20Q35.22 10.96 35.22 10.64L35.22 10.64L35.22 10.64Q35.22 10.30 35.28 10.08L35.28 10.08L34.58 10.08L34.58 10.08Q34.52 9.84 34.52 9.52L34.52 9.52L34.52 9.52Q34.52 9.18 34.58 8.96L34.58 8.96L34.16 8.96L34.16 8.96Q34.10 8.72 34.10 8.40L34.10 8.40L34.10 8.40Q34.10 8.06 34.16 7.84L34.16 7.84L34.16 7.84Q34.10 7.60 34.10 7.28L34.10 7.28L34.10 7.28Q34.10 6.94 34.16 6.72L34.16 6.72L34.16 6.72Q34.10 6.48 34.10 6.16L34.10 6.16L34.10 6.16Q34.10 5.82 34.16 5.60L34.16 5.60L34.58 5.60L34.58 5.60Q34.52 5.36 34.52 5.04L34.52 5.04L34.52 5.04Q34.52 4.70 34.58 4.48L34.58 4.48L35.28 4.48L35.28 4.48Q35.22 4.24 35.22 3.92L35.22 3.92L35.22 3.92Q35.22 3.58 35.28 3.36L35.28 3.36L37.52 3.36L37.52 3.36Q37.58 3.58 37.58 3.92L37.58 3.92L37.58 3.92Q37.58 4.24 37.52 4.48L37.52 4.48L38.22 4.48L38.22 4.48Q38.28 4.70 38.28 5.04L38.28 5.04L38.28 5.04Q38.28 5.36 38.22 5.60L38.22 5.60L38.64 5.60L38.64 5.60Q38.70 5.82 38.70 6.16L38.70 6.16L38.70 6.16Q38.70 6.48 38.64 6.72L38.64 6.72ZM37.52 8.96L37.52 8.96Q37.46 8.72 37.46 8.40L37.46 8.40L37.46 8.40Q37.46 8.06 37.52 7.84L37.52 7.84L37.52 7.84Q37.46 7.60 37.46 7.28L37.46 7.28L37.46 7.28Q37.46 6.94 37.52 6.72L37.52 6.72L37.52 6.72Q37.46 6.48 37.46 6.16L37.46 6.16L37.46 6.16Q37.46 5.82 37.52 5.60L37.52 5.60L37.10 5.60L37.10 5.60Q37.04 5.36 37.04 5.04L37.04 5.04L37.04 5.04Q37.04 4.70 37.10 4.48L37.10 4.48L35.70 4.48L35.70 4.48Q35.76 4.70 35.76 5.04L35.76 5.04L35.76 5.04Q35.76 5.36 35.70 5.60L35.70 5.60L35.28 5.60L35.28 5.60Q35.34 5.82 35.34 6.16L35.34 6.16L35.34 6.16Q35.34 6.48 35.28 6.72L35.28 6.72L35.28 6.72Q35.34 6.94 35.34 7.28L35.34 7.28L35.34 7.28Q35.34 7.60 35.28 7.84L35.28 7.84L35.28 7.84Q35.34 8.06 35.34 8.40L35.34 8.40L35.34 8.40Q35.34 8.72 35.28 8.96L35.28 8.96L35.70 8.96L35.70 8.96Q35.76 9.18 35.76 9.52L35.76 9.52L35.76 9.52Q35.76 9.84 35.70 10.08L35.70 10.08L37.10 10.08L37.10 10.08Q37.04 9.84 37.04 9.52L37.04 9.52L37.04 9.52Q37.04 9.18 37.10 8.96L37.10 8.96L37.52 8.96ZM44.24 4.48L44.24 4.48Q44.30 4.70 44.30 5.04L44.30 5.04L44.30 5.04Q44.30 5.36 44.24 5.60L44.24 5.60L44.24 5.60Q44.30 5.82 44.30 6.16L44.30 6.16L44.30 6.16Q44.30 6.48 44.24 6.72L44.24 6.72L44.24 6.72Q44.30 6.94 44.30 7.28L44.30 7.28L44.30 7.28Q44.30 7.60 44.24 7.84L44.24 7.84L44.24 7.84Q44.30 8.06 44.30 8.40L44.30 8.40L44.30 8.40Q44.30 8.72 44.24 8.96L44.24 8.96L44.24 8.96Q44.30 9.18 44.30 9.52L44.30 9.52L44.30 9.52Q44.30 9.84 44.24 10.08L44.24 10.08L44.24 10.08Q44.30 10.30 44.30 10.64L44.30 10.64L44.30 10.64Q44.30 10.96 44.24 11.20L44.24 11.20L43.12 11.20L43.12 11.20Q43.06 10.96 43.06 10.64L43.06 10.64L43.06 10.64Q43.06 10.30 43.12 10.08L43.12 10.08L43.12 10.08Q43.06 9.84 43.06 9.52L43.06 9.52L43.06 9.52Q43.06 9.18 43.12 8.96L43.12 8.96L43.12 8.96Q43.06 8.72 43.06 8.40L43.06 8.40L43.06 8.40Q43.06 8.06 43.12 7.84L43.12 7.84L43.12 7.84Q43.06 7.60 43.06 7.28L43.06 7.28L43.06 7.28Q43.06 6.94 43.12 6.72L43.12 6.72L43.12 6.72Q43.06 6.48 43.06 6.16L43.06 6.16L43.06 6.16Q43.06 5.82 43.12 5.60L43.12 5.60L42.70 5.60L42.70 5.60Q42.76 5.82 42.76 6.16L42.76 6.16L42.76 6.16Q42.76 6.48 42.70 6.72L42.70 6.72L42.70 6.72Q42.76 6.94 42.76 7.28L42.76 7.28L42.76 7.28Q42.76 7.60 42.70 7.84L42.70 7.84L42.42 7.84L42.42 7.84Q42.48 8.06 42.48 8.40L42.48 8.40L42.48 8.40Q42.48 8.72 42.42 8.96L42.42 8.96L42.42 8.96Q42.48 9.18 42.48 9.52L42.48 9.52L42.48 9.52Q42.48 9.84 42.42 10.08L42.42 10.08L41.58 10.08L41.58 10.08Q41.52 9.84 41.52 9.52L41.52 9.52L41.52 9.52Q41.52 9.18 41.58 8.96L41.58 8.96L41.58 8.96Q41.52 8.72 41.52 8.40L41.52 8.40L41.52 8.40Q41.52 8.06 41.58 7.84L41.58 7.84L41.30 7.84L41.30 7.84Q41.24 7.60 41.24 7.28L41.24 7.28L41.24 7.28Q41.24 6.94 41.30 6.72L41.30 6.72L41.30 6.72Q41.24 6.48 41.24 6.16L41.24 6.16L41.24 6.16Q41.24 5.82 41.30 5.60L41.30 5.60L40.88 5.60L40.88 5.60Q40.94 5.82 40.94 6.16L40.94 6.16L40.94 6.16Q40.94 6.48 40.88 6.72L40.88 6.72L40.88 6.72Q40.94 6.94 40.94 7.28L40.94 7.28L40.94 7.28Q40.94 7.60 40.88 7.84L40.88 7.84L40.88 7.84Q40.94 8.06 40.94 8.40L40.94 8.40L40.94 8.40Q40.94 8.72 40.88 8.96L40.88 8.96L40.88 8.96Q40.94 9.18 40.94 9.52L40.94 9.52L40.94 9.52Q40.94 9.84 40.88 10.08L40.88 10.08L40.88 10.08Q40.94 10.30 40.94 10.64L40.94 10.64L40.94 10.64Q40.94 10.96 40.88 11.20L40.88 11.20L39.76 11.20L39.76 11.20Q39.70 10.96 39.70 10.64L39.70 10.64L39.70 10.64Q39.70 10.30 39.76 10.08L39.76 10.08L39.76 10.08Q39.70 9.84 39.70 9.52L39.70 9.52L39.70 9.52Q39.70 9.18 39.76 8.96L39.76 8.96L39.76 8.96Q39.70 8.72 39.70 8.40L39.70 8.40L39.70 8.40Q39.70 8.06 39.76 7.84L39.76 7.84L39.76 7.84Q39.70 7.60 39.70 7.28L39.70 7.28L39.70 7.28Q39.70 6.94 39.76 6.72L39.76 6.72L39.76 6.72Q39.70 6.48 39.70 6.16L39.70 6.16L39.70 6.16Q39.70 5.82 39.76 5.60L39.76 5.60L39.76 5.60Q39.70 5.36 39.70 5.04L39.70 5.04L39.70 5.04Q39.70 4.70 39.76 4.48L39.76 4.48L39.76 4.48Q39.70 4.24 39.70 3.92L39.70 3.92L39.70 3.92Q39.70 3.58 39.76 3.36L39.76 3.36L41.16 3.36L41.16 3.36Q41.22 3.58 41.22 3.92L41.22 3.92L41.22 3.92Q41.22 4.24 41.16 4.48L41.16 4.48L41.58 4.48L41.58 4.48Q41.64 4.70 41.64 5.04L41.64 5.04L41.64 5.04Q41.64 5.36 41.58 5.60L41.58 5.60L41.79 5.60L41.79 5.60Q41.85 5.82 41.85 6.16L41.85 6.16L41.85 6.16Q41.85 6.48 41.79 6.72L41.79 6.72L42.21 6.72L42.21 6.72Q42.15 6.48 42.15 6.16L42.15 6.16L42.15 6.16Q42.15 5.82 42.21 5.60L42.21 5.60L42.42 5.60L42.42 5.60Q42.36 5.36 42.36 5.04L42.36 5.04L42.36 5.04Q42.36 4.70 42.42 4.48L42.42 4.48L42.84 4.48L42.84 4.48Q42.78 4.24 42.78 3.92L42.78 3.92L42.78 3.92Q42.78 3.58 42.84 3.36L42.84 3.36L44.24 3.36L44.24 3.36Q44.30 3.58 44.30 3.92L44.30 3.92L44.30 3.92Q44.30 4.24 44.24 4.48L44.24 4.48Z"></path></g><defs data-v-423bf9ae=""><linearGradient data-v-423bf9ae="" gradientTransform="rotate(25)" id="aabf572a-d9c5-4f00-8a2e-47e2508a6a7b" x1="0%" y1="0%" x2="100%" y2="0%"><stop data-v-423bf9ae="" offset="0%" style="stop-color: rgb(64, 64, 64); stop-opacity: 1;"></stop><stop data-v-423bf9ae="" offset="100%" style="stop-color: rgb(166, 68, 47); stop-opacity: 1;"></stop></linearGradient></defs><g data-v-423bf9ae="" id="e7bd3954-9a34-4cf0-b88f-506fbc5b77d9" transform="matrix(1.3974342346191406,0,0,1.3974342346191406,98.5680160522461,-24.075836181640625)" stroke="none" fill="url(#aabf572a-d9c5-4f00-8a2e-47e2508a6a7b)"><switch><g><path d="M42.8 65.8c-1.5-1.1-4-2.6-6.9-2.6s-5.4 1.5-6.9 2.6c-.8.6-.8 1.8 0 2.5 1.5 1.1 4 2.6 6.9 2.6s5.4-1.5 6.9-2.6c.8-.6.8-1.9 0-2.5zM57.2 68.3c1.5 1.1 4 2.6 6.9 2.6 2.9 0 5.4-1.5 6.9-2.6.8-.6.8-1.8 0-2.5-1.5-1.1-4-2.6-6.9-2.6-2.9 0-5.4 1.5-6.9 2.6-.8.6-.8 1.9 0 2.5z"></path><path d="M97.5 45.8c0-5.5-9-8.8-20-10.7l-2.1-8.8c-1.4-5.9-7.3-9.6-13.2-8.2L55 19.8c-3.3.8-6.9.8-10.2 0l-7.2-1.7c-5.9-1.4-11.8 2.3-13.2 8.2l-2.1 8.8c-10.9 1.9-20 5.2-20 10.7 0 4.8 6.7 7.9 15.6 9.9l-2.3 17.5c-.5 3.7 2.1 7.1 5.9 7.6 6.1.8 15 1.2 18.5 1.4h.3c2.1 0 4.1-.8 5.6-2.4l2-2c.6-.6 1.4-1 2.3-1 .9 0 1.7.4 2.3 1l1.9 2c1.6 1.6 3.7 2.5 6 2.4 4.3-.2 12.3-.7 17.8-1.4 1.8-.2 3.4-1.2 4.5-2.6 1.1-1.4 1.6-3.2 1.3-5l-2.3-17.5c9.1-2 15.8-5.1 15.8-9.9zm-17.8 28c.1.6-.1 1.1-.4 1.6-.4.5-.9.8-1.4.8-5.3.7-13.2 1.1-17.4 1.3-.9.1-1.8-.3-2.5-1l-1.9-2c-1.5-1.5-3.5-2.4-5.6-2.4-2.1 0-4.1.9-5.6 2.4l-2 2c-.6.7-1.5 1-2.4 1-7.4-.3-14-.8-18.1-1.4-1.2-.2-2.1-1.3-1.9-2.5l2.2-17.2c9.3 1.6 19.9 2.2 27.4 2.2s18.1-.6 27.4-2.2l2.2 17.4zM50 54.2c-28.3 0-42.9-5.9-42.9-8.3 0-1.4 4.8-4 14.2-5.9l-1.2 5.1 4.5 1L29 27.3c.8-3.4 4.2-5.6 7.7-4.8l7.2 1.7c4 .9 8.3.9 12.3 0l7.2-1.7c3.4-.8 6.9 1.3 7.7 4.8l4.4 18.8 4.5-1-1.3-5.1c9.4 1.9 14.2 4.4 14.2 5.9 0 2.4-14.6 8.3-42.9 8.3z"></path></g></switch></g><!----><g data-v-423bf9ae="" id="b4ff3f4b-3e73-4228-8db7-aa081590100b" fill="#A61C0B" transform="matrix(2.7172834873199463,0,0,2.7172834873199463,41.43982696533203,186.89346313476562)"><path d="M5.04 4.48L5.04 4.48Q5.10 4.70 5.10 5.04L5.10 5.04L5.10 5.04Q5.10 5.36 5.04 5.60L5.04 5.60L5.04 5.60Q5.10 5.82 5.10 6.16L5.10 6.16L5.10 6.16Q5.10 6.48 5.04 6.72L5.04 6.72L5.04 6.72Q5.10 6.94 5.10 7.28L5.10 7.28L5.10 7.28Q5.10 7.60 5.04 7.84L5.04 7.84L4.62 7.84L4.62 7.84Q4.68 8.06 4.68 8.40L4.68 8.40L4.68 8.40Q4.68 8.72 4.62 8.96L4.62 8.96L4.62 8.96Q4.68 9.18 4.68 9.52L4.68 9.52L4.68 9.52Q4.68 9.84 4.62 10.08L4.62 10.08L4.34 10.08L4.34 10.08Q4.40 10.30 4.40 10.64L4.40 10.64L4.40 10.64Q4.40 10.96 4.34 11.20L4.34 11.20L3.50 11.20L3.50 11.20Q3.44 10.96 3.44 10.64L3.44 10.64L3.44 10.64Q3.44 10.30 3.50 10.08L3.50 10.08L3.22 10.08L3.22 10.08Q3.16 9.84 3.16 9.52L3.16 9.52L3.16 9.52Q3.16 9.18 3.22 8.96L3.22 8.96L2.38 8.96L2.38 8.96Q2.44 9.18 2.44 9.52L2.44 9.52L2.44 9.52Q2.44 9.84 2.38 10.08L2.38 10.08L2.10 10.08L2.10 10.08Q2.16 10.30 2.16 10.64L2.16 10.64L2.16 10.64Q2.16 10.96 2.10 11.20L2.10 11.20L1.26 11.20L1.26 11.20Q1.20 10.96 1.20 10.64L1.20 10.64L1.20 10.64Q1.20 10.30 1.26 10.08L1.26 10.08L0.98 10.08L0.98 10.08Q0.92 9.84 0.92 9.52L0.92 9.52L0.92 9.52Q0.92 9.18 0.98 8.96L0.98 8.96L0.98 8.96Q0.92 8.72 0.92 8.40L0.92 8.40L0.92 8.40Q0.92 8.06 0.98 7.84L0.98 7.84L0.56 7.84L0.56 7.84Q0.50 7.60 0.50 7.28L0.50 7.28L0.50 7.28Q0.50 6.94 0.56 6.72L0.56 6.72L0.56 6.72Q0.50 6.48 0.50 6.16L0.50 6.16L0.50 6.16Q0.50 5.82 0.56 5.60L0.56 5.60L0.56 5.60Q0.50 5.36 0.50 5.04L0.50 5.04L0.50 5.04Q0.50 4.70 0.56 4.48L0.56 4.48L0.56 4.48Q0.50 4.24 0.50 3.92L0.50 3.92L0.50 3.92Q0.50 3.58 0.56 3.36L0.56 3.36L1.68 3.36L1.68 3.36Q1.74 3.58 1.74 3.92L1.74 3.92L1.74 3.92Q1.74 4.24 1.68 4.48L1.68 4.48L1.68 4.48Q1.74 4.70 1.74 5.04L1.74 5.04L1.74 5.04Q1.74 5.36 1.68 5.60L1.68 5.60L1.68 5.60Q1.74 5.82 1.74 6.16L1.74 6.16L1.74 6.16Q1.74 6.48 1.68 6.72L1.68 6.72L1.68 6.72Q1.74 6.94 1.74 7.28L1.74 7.28L1.74 7.28Q1.74 7.60 1.68 7.84L1.68 7.84L1.68 7.84Q1.74 8.06 1.74 8.40L1.74 8.40L1.74 8.40Q1.74 8.72 1.68 8.96L1.68 8.96L2.10 8.96L2.10 8.96Q2.04 8.72 2.04 8.40L2.04 8.40L2.04 8.40Q2.04 8.06 2.10 7.84L2.10 7.84L2.38 7.84L2.38 7.84Q2.32 7.60 2.32 7.28L2.32 7.28L2.32 7.28Q2.32 6.94 2.38 6.72L2.38 6.72L2.38 6.72Q2.32 6.48 2.32 6.16L2.32 6.16L2.32 6.16Q2.32 5.82 2.38 5.60L2.38 5.60L2.38 5.60Q2.32 5.36 2.32 5.04L2.32 5.04L2.32 5.04Q2.32 4.70 2.38 4.48L2.38 4.48L2.38 4.48Q2.32 4.24 2.32 3.92L2.32 3.92L2.32 3.92Q2.32 3.58 2.38 3.36L2.38 3.36L3.22 3.36L3.22 3.36Q3.28 3.58 3.28 3.92L3.28 3.92L3.28 3.92Q3.28 4.24 3.22 4.48L3.22 4.48L3.22 4.48Q3.28 4.70 3.28 5.04L3.28 5.04L3.28 5.04Q3.28 5.36 3.22 5.60L3.22 5.60L3.22 5.60Q3.28 5.82 3.28 6.16L3.28 6.16L3.28 6.16Q3.28 6.48 3.22 6.72L3.22 6.72L3.22 6.72Q3.28 6.94 3.28 7.28L3.28 7.28L3.28 7.28Q3.28 7.60 3.22 7.84L3.22 7.84L3.50 7.84L3.50 7.84Q3.56 8.06 3.56 8.40L3.56 8.40L3.56 8.40Q3.56 8.72 3.50 8.96L3.50 8.96L3.92 8.96L3.92 8.96Q3.86 8.72 3.86 8.40L3.86 8.40L3.86 8.40Q3.86 8.06 3.92 7.84L3.92 7.84L3.92 7.84Q3.86 7.60 3.86 7.28L3.86 7.28L3.86 7.28Q3.86 6.94 3.92 6.72L3.92 6.72L3.92 6.72Q3.86 6.48 3.86 6.16L3.86 6.16L3.86 6.16Q3.86 5.82 3.92 5.60L3.92 5.60L3.92 5.60Q3.86 5.36 3.86 5.04L3.86 5.04L3.86 5.04Q3.86 4.70 3.92 4.48L3.92 4.48L3.92 4.48Q3.86 4.24 3.86 3.92L3.86 3.92L3.86 3.92Q3.86 3.58 3.92 3.36L3.92 3.36L5.04 3.36L5.04 3.36Q5.10 3.58 5.10 3.92L5.10 3.92L5.10 3.92Q5.10 4.24 5.04 4.48L5.04 4.48ZM10.64 7.84L10.64 7.84Q10.70 8.06 10.70 8.40L10.70 8.40L10.70 8.40Q10.70 8.72 10.64 8.96L10.64 8.96L10.64 8.96Q10.70 9.18 10.70 9.52L10.70 9.52L10.70 9.52Q10.70 9.84 10.64 10.08L10.64 10.08L10.08 10.08L10.08 10.08Q10.14 10.30 10.14 10.64L10.14 10.64L10.14 10.64Q10.14 10.96 10.08 11.20L10.08 11.20L6.72 11.20L6.72 11.20Q6.66 10.96 6.66 10.64L6.66 10.64L6.66 10.64Q6.66 10.30 6.72 10.08L6.72 10.08L6.16 10.08L6.16 10.08Q6.10 9.84 6.10 9.52L6.10 9.52L6.10 9.52Q6.10 9.18 6.16 8.96L6.16 8.96L7.28 8.96L7.28 8.96Q7.34 9.18 7.34 9.52L7.34 9.52L7.34 9.52Q7.34 9.84 7.28 10.08L7.28 10.08L9.52 10.08L9.52 10.08Q9.46 9.84 9.46 9.52L9.46 9.52L9.46 9.52Q9.46 9.18 9.52 8.96L9.52 8.96L9.52 8.96Q9.46 8.72 9.46 8.40L9.46 8.40L9.46 8.40Q9.46 8.06 9.52 7.84L9.52 7.84L6.72 7.84L6.72 7.84Q6.66 7.60 6.66 7.28L6.66 7.28L6.66 7.28Q6.66 6.94 6.72 6.72L6.72 6.72L6.16 6.72L6.16 6.72Q6.10 6.48 6.10 6.16L6.10 6.16L6.10 6.16Q6.10 5.82 6.16 5.60L6.16 5.60L6.16 5.60Q6.10 5.36 6.10 5.04L6.10 5.04L6.10 5.04Q6.10 4.70 6.16 4.48L6.16 4.48L6.72 4.48L6.72 4.48Q6.66 4.24 6.66 3.92L6.66 3.92L6.66 3.92Q6.66 3.58 6.72 3.36L6.72 3.36L10.08 3.36L10.08 3.36Q10.14 3.58 10.14 3.92L10.14 3.92L10.14 3.92Q10.14 4.24 10.08 4.48L10.08 4.48L10.64 4.48L10.64 4.48Q10.70 4.70 10.70 5.04L10.70 5.04L10.70 5.04Q10.70 5.36 10.64 5.60L10.64 5.60L9.52 5.60L9.52 5.60Q9.46 5.36 9.46 5.04L9.46 5.04L9.46 5.04Q9.46 4.70 9.52 4.48L9.52 4.48L7.28 4.48L7.28 4.48Q7.34 4.70 7.34 5.04L7.34 5.04L7.34 5.04Q7.34 5.36 7.28 5.60L7.28 5.60L7.28 5.60Q7.34 5.82 7.34 6.16L7.34 6.16L7.34 6.16Q7.34 6.48 7.28 6.72L7.28 6.72L10.08 6.72L10.08 6.72Q10.14 6.94 10.14 7.28L10.14 7.28L10.14 7.28Q10.14 7.60 10.08 7.84L10.08 7.84L10.64 7.84ZM16.30 3.92L16.30 3.92Q16.30 4.24 16.24 4.48L16.24 4.48L14.56 4.48L14.56 4.48Q14.62 4.70 14.62 5.04L14.62 5.04L14.62 5.04Q14.62 5.36 14.56 5.60L14.56 5.60L14.56 5.60Q14.62 5.82 14.62 6.16L14.62 6.16L14.62 6.16Q14.62 6.48 14.56 6.72L14.56 6.72L14.56 6.72Q14.62 6.94 14.62 7.28L14.62 7.28L14.62 7.28Q14.62 7.60 14.56 7.84L14.56 7.84L14.56 7.84Q14.62 8.06 14.62 8.40L14.62 8.40L14.62 8.40Q14.62 8.72 14.56 8.96L14.56 8.96L14.56 8.96Q14.62 9.18 14.62 9.52L14.62 9.52L14.62 9.52Q14.62 9.84 14.56 10.08L14.56 10.08L14.56 10.08Q14.62 10.30 14.62 10.64L14.62 10.64L14.62 10.64Q14.62 10.96 14.56 11.20L14.56 11.20L13.44 11.20L13.44 11.20Q13.38 10.96 13.38 10.64L13.38 10.64L13.38 10.64Q13.38 10.30 13.44 10.08L13.44 10.08L13.44 10.08Q13.38 9.84 13.38 9.52L13.38 9.52L13.38 9.52Q13.38 9.18 13.44 8.96L13.44 8.96L13.44 8.96Q13.38 8.72 13.38 8.40L13.38 8.40L13.38 8.40Q13.38 8.06 13.44 7.84L13.44 7.84L13.44 7.84Q13.38 7.60 13.38 7.28L13.38 7.28L13.38 7.28Q13.38 6.94 13.44 6.72L13.44 6.72L13.44 6.72Q13.38 6.48 13.38 6.16L13.38 6.16L13.38 6.16Q13.38 5.82 13.44 5.60L13.44 5.60L13.44 5.60Q13.38 5.36 13.38 5.04L13.38 5.04L13.38 5.04Q13.38 4.70 13.44 4.48L13.44 4.48L11.76 4.48L11.76 4.48Q11.70 4.24 11.70 3.92L11.70 3.92L11.70 3.92Q11.70 3.58 11.76 3.36L11.76 3.36L16.24 3.36L16.24 3.36Q16.30 3.58 16.30 3.92L16.30 3.92ZM21.28 7.84L19.04 7.84L19.04 7.84Q19.10 8.06 19.10 8.40L19.10 8.40L19.10 8.40Q19.10 8.72 19.04 8.96L19.04 8.96L19.04 8.96Q19.10 9.18 19.10 9.52L19.10 9.52L19.10 9.52Q19.10 9.84 19.04 10.08L19.04 10.08L21.28 10.08L21.28 10.08Q21.34 10.30 21.34 10.64L21.34 10.64L21.34 10.64Q21.34 10.96 21.28 11.20L21.28 11.20L17.92 11.20L17.92 11.20Q17.86 10.96 17.86 10.64L17.86 10.64L17.86 10.64Q17.86 10.30 17.92 10.08L17.92 10.08L17.92 10.08Q17.86 9.84 17.86 9.52L17.86 9.52L17.86 9.52Q17.86 9.18 17.92 8.96L17.92 8.96L17.92 8.96Q17.86 8.72 17.86 8.40L17.86 8.40L17.86 8.40Q17.86 8.06 17.92 7.84L17.92 7.84L17.92 7.84Q17.86 7.60 17.86 7.28L17.86 7.28L17.86 7.28Q17.86 6.94 17.92 6.72L17.92 6.72L17.92 6.72Q17.86 6.48 17.86 6.16L17.86 6.16L17.86 6.16Q17.86 5.82 17.92 5.60L17.92 5.60L17.92 5.60Q17.86 5.36 17.86 5.04L17.86 5.04L17.86 5.04Q17.86 4.70 17.92 4.48L17.92 4.48L17.92 4.48Q17.86 4.24 17.86 3.92L17.86 3.92L17.86 3.92Q17.86 3.58 17.92 3.36L17.92 3.36L21.28 3.36L21.28 3.36Q21.34 3.58 21.34 3.92L21.34 3.92L21.34 3.92Q21.34 4.24 21.28 4.48L21.28 4.48L19.04 4.48L19.04 4.48Q19.10 4.70 19.10 5.04L19.10 5.04L19.10 5.04Q19.10 5.36 19.04 5.60L19.04 5.60L19.04 5.60Q19.10 5.82 19.10 6.16L19.10 6.16L19.10 6.16Q19.10 6.48 19.04 6.72L19.04 6.72L21.28 6.72L21.28 6.72Q21.34 6.94 21.34 7.28L21.34 7.28L21.34 7.28Q21.34 7.60 21.28 7.84L21.28 7.84ZM21.70 12.32L21.70 12.32Q21.76 12.54 21.76 12.88L21.76 12.88L21.76 12.88Q21.76 13.20 21.70 13.44L21.70 13.44L20.58 13.44L20.58 13.44Q20.52 13.20 20.52 12.88L20.52 12.88L20.52 12.88Q20.52 12.54 20.58 12.32L20.58 12.32L20.16 12.32L20.16 12.32Q20.10 12.08 20.10 11.76L20.10 11.76L20.10 11.76Q20.10 11.42 20.16 11.20L20.16 11.20L21 11.20L21 11.20Q21.06 11.42 21.06 11.76L21.06 11.76L21.06 11.76Q21.06 12.08 21 12.32L21 12.32L21.70 12.32ZM27.50 5.04L27.50 5.04Q27.50 5.36 27.44 5.60L27.44 5.60L27.44 5.60Q27.50 5.82 27.50 6.16L27.50 6.16L27.50 6.16Q27.50 6.48 27.44 6.72L27.44 6.72L26.88 6.72L26.88 6.72Q26.94 6.94 26.94 7.28L26.94 7.28L26.94 7.28Q26.94 7.60 26.88 7.84L26.88 7.84L24.08 7.84L24.08 7.84Q24.14 8.06 24.14 8.40L24.14 8.40L24.14 8.40Q24.14 8.72 24.08 8.96L24.08 8.96L24.08 8.96Q24.14 9.18 24.14 9.52L24.14 9.52L24.14 9.52Q24.14 9.84 24.08 10.08L24.08 10.08L24.08 10.08Q24.14 10.30 24.14 10.64L24.14 10.64L24.14 10.64Q24.14 10.96 24.08 11.20L24.08 11.20L22.96 11.20L22.96 11.20Q22.90 10.96 22.90 10.64L22.90 10.64L22.90 10.64Q22.90 10.30 22.96 10.08L22.96 10.08L22.96 10.08Q22.90 9.84 22.90 9.52L22.90 9.52L22.90 9.52Q22.90 9.18 22.96 8.96L22.96 8.96L22.96 8.96Q22.90 8.72 22.90 8.40L22.90 8.40L22.90 8.40Q22.90 8.06 22.96 7.84L22.96 7.84L22.96 7.84Q22.90 7.60 22.90 7.28L22.90 7.28L22.90 7.28Q22.90 6.94 22.96 6.72L22.96 6.72L22.96 6.72Q22.90 6.48 22.90 6.16L22.90 6.16L22.90 6.16Q22.90 5.82 22.96 5.60L22.96 5.60L22.96 5.60Q22.90 5.36 22.90 5.04L22.90 5.04L22.90 5.04Q22.90 4.70 22.96 4.48L22.96 4.48L22.96 4.48Q22.90 4.24 22.90 3.92L22.90 3.92L22.90 3.92Q22.90 3.58 22.96 3.36L22.96 3.36L26.88 3.36L26.88 3.36Q26.94 3.58 26.94 3.92L26.94 3.92L26.94 3.92Q26.94 4.24 26.88 4.48L26.88 4.48L27.44 4.48L27.44 4.48Q27.50 4.70 27.50 5.04L27.50 5.04ZM26.32 6.72L26.32 6.72Q26.26 6.48 26.26 6.16L26.26 6.16L26.26 6.16Q26.26 5.82 26.32 5.60L26.32 5.60L26.32 5.60Q26.26 5.36 26.26 5.04L26.26 5.04L26.26 5.04Q26.26 4.70 26.32 4.48L26.32 4.48L24.08 4.48L24.08 4.48Q24.14 4.70 24.14 5.04L24.14 5.04L24.14 5.04Q24.14 5.36 24.08 5.60L24.08 5.60L24.08 5.60Q24.14 5.82 24.14 6.16L24.14 6.16L24.14 6.16Q24.14 6.48 24.08 6.72L24.08 6.72L26.32 6.72ZM38.64 4.48L38.64 4.48Q38.70 4.70 38.70 5.04L38.70 5.04L38.70 5.04Q38.70 5.36 38.64 5.60L38.64 5.60L38.64 5.60Q38.70 5.82 38.70 6.16L38.70 6.16L38.70 6.16Q38.70 6.48 38.64 6.72L38.64 6.72L38.64 6.72Q38.70 6.94 38.70 7.28L38.70 7.28L38.70 7.28Q38.70 7.60 38.64 7.84L38.64 7.84L38.22 7.84L38.22 7.84Q38.28 8.06 38.28 8.40L38.28 8.40L38.28 8.40Q38.28 8.72 38.22 8.96L38.22 8.96L38.22 8.96Q38.28 9.18 38.28 9.52L38.28 9.52L38.28 9.52Q38.28 9.84 38.22 10.08L38.22 10.08L37.94 10.08L37.94 10.08Q38.00 10.30 38.00 10.64L38.00 10.64L38.00 10.64Q38.00 10.96 37.94 11.20L37.94 11.20L37.10 11.20L37.10 11.20Q37.04 10.96 37.04 10.64L37.04 10.64L37.04 10.64Q37.04 10.30 37.10 10.08L37.10 10.08L36.82 10.08L36.82 10.08Q36.76 9.84 36.76 9.52L36.76 9.52L36.76 9.52Q36.76 9.18 36.82 8.96L36.82 8.96L35.98 8.96L35.98 8.96Q36.04 9.18 36.04 9.52L36.04 9.52L36.04 9.52Q36.04 9.84 35.98 10.08L35.98 10.08L35.70 10.08L35.70 10.08Q35.76 10.30 35.76 10.64L35.76 10.64L35.76 10.64Q35.76 10.96 35.70 11.20L35.70 11.20L34.86 11.20L34.86 11.20Q34.80 10.96 34.80 10.64L34.80 10.64L34.80 10.64Q34.80 10.30 34.86 10.08L34.86 10.08L34.58 10.08L34.58 10.08Q34.52 9.84 34.52 9.52L34.52 9.52L34.52 9.52Q34.52 9.18 34.58 8.96L34.58 8.96L34.58 8.96Q34.52 8.72 34.52 8.40L34.52 8.40L34.52 8.40Q34.52 8.06 34.58 7.84L34.58 7.84L34.16 7.84L34.16 7.84Q34.10 7.60 34.10 7.28L34.10 7.28L34.10 7.28Q34.10 6.94 34.16 6.72L34.16 6.72L34.16 6.72Q34.10 6.48 34.10 6.16L34.10 6.16L34.10 6.16Q34.10 5.82 34.16 5.60L34.16 5.60L34.16 5.60Q34.10 5.36 34.10 5.04L34.10 5.04L34.10 5.04Q34.10 4.70 34.16 4.48L34.16 4.48L34.16 4.48Q34.10 4.24 34.10 3.92L34.10 3.92L34.10 3.92Q34.10 3.58 34.16 3.36L34.16 3.36L35.28 3.36L35.28 3.36Q35.34 3.58 35.34 3.92L35.34 3.92L35.34 3.92Q35.34 4.24 35.28 4.48L35.28 4.48L35.28 4.48Q35.34 4.70 35.34 5.04L35.34 5.04L35.34 5.04Q35.34 5.36 35.28 5.60L35.28 5.60L35.28 5.60Q35.34 5.82 35.34 6.16L35.34 6.16L35.34 6.16Q35.34 6.48 35.28 6.72L35.28 6.72L35.28 6.72Q35.34 6.94 35.34 7.28L35.34 7.28L35.34 7.28Q35.34 7.60 35.28 7.84L35.28 7.84L35.28 7.84Q35.34 8.06 35.34 8.40L35.34 8.40L35.34 8.40Q35.34 8.72 35.28 8.96L35.28 8.96L35.70 8.96L35.70 8.96Q35.64 8.72 35.64 8.40L35.64 8.40L35.64 8.40Q35.64 8.06 35.70 7.84L35.70 7.84L35.98 7.84L35.98 7.84Q35.92 7.60 35.92 7.28L35.92 7.28L35.92 7.28Q35.92 6.94 35.98 6.72L35.98 6.72L35.98 6.72Q35.92 6.48 35.92 6.16L35.92 6.16L35.92 6.16Q35.92 5.82 35.98 5.60L35.98 5.60L35.98 5.60Q35.92 5.36 35.92 5.04L35.92 5.04L35.92 5.04Q35.92 4.70 35.98 4.48L35.98 4.48L35.98 4.48Q35.92 4.24 35.92 3.92L35.92 3.92L35.92 3.92Q35.92 3.58 35.98 3.36L35.98 3.36L36.82 3.36L36.82 3.36Q36.88 3.58 36.88 3.92L36.88 3.92L36.88 3.92Q36.88 4.24 36.82 4.48L36.82 4.48L36.82 4.48Q36.88 4.70 36.88 5.04L36.88 5.04L36.88 5.04Q36.88 5.36 36.82 5.60L36.82 5.60L36.82 5.60Q36.88 5.82 36.88 6.16L36.88 6.16L36.88 6.16Q36.88 6.48 36.82 6.72L36.82 6.72L36.82 6.72Q36.88 6.94 36.88 7.28L36.88 7.28L36.88 7.28Q36.88 7.60 36.82 7.84L36.82 7.84L37.10 7.84L37.10 7.84Q37.16 8.06 37.16 8.40L37.16 8.40L37.16 8.40Q37.16 8.72 37.10 8.96L37.10 8.96L37.52 8.96L37.52 8.96Q37.46 8.72 37.46 8.40L37.46 8.40L37.46 8.40Q37.46 8.06 37.52 7.84L37.52 7.84L37.52 7.84Q37.46 7.60 37.46 7.28L37.46 7.28L37.46 7.28Q37.46 6.94 37.52 6.72L37.52 6.72L37.52 6.72Q37.46 6.48 37.46 6.16L37.46 6.16L37.46 6.16Q37.46 5.82 37.52 5.60L37.52 5.60L37.52 5.60Q37.46 5.36 37.46 5.04L37.46 5.04L37.46 5.04Q37.46 4.70 37.52 4.48L37.52 4.48L37.52 4.48Q37.46 4.24 37.46 3.92L37.46 3.92L37.46 3.92Q37.46 3.58 37.52 3.36L37.52 3.36L38.64 3.36L38.64 3.36Q38.70 3.58 38.70 3.92L38.70 3.92L38.70 3.92Q38.70 4.24 38.64 4.48L38.64 4.48ZM44.02 5.04L44.02 5.04Q44.02 5.36 43.96 5.60L43.96 5.60L43.54 5.60L43.54 5.60Q43.60 5.82 43.60 6.16L43.60 6.16L43.60 6.16Q43.60 6.48 43.54 6.72L43.54 6.72L42.70 6.72L42.70 6.72Q42.76 6.94 42.76 7.28L42.76 7.28L42.76 7.28Q42.76 7.60 42.70 7.84L42.70 7.84L41.86 7.84L41.86 7.84Q41.92 8.06 41.92 8.40L41.92 8.40L41.92 8.40Q41.92 8.72 41.86 8.96L41.86 8.96L41.16 8.96L41.16 8.96Q41.22 9.18 41.22 9.52L41.22 9.52L41.22 9.52Q41.22 9.84 41.16 10.08L41.16 10.08L43.96 10.08L43.96 10.08Q44.02 10.30 44.02 10.64L44.02 10.64L44.02 10.64Q44.02 10.96 43.96 11.20L43.96 11.20L40.04 11.20L40.04 11.20Q39.98 10.96 39.98 10.64L39.98 10.64L39.98 10.64Q39.98 10.30 40.04 10.08L40.04 10.08L40.04 10.08Q39.98 9.84 39.98 9.52L39.98 9.52L39.98 9.52Q39.98 9.18 40.04 8.96L40.04 8.96L40.74 8.96L40.74 8.96Q40.68 8.72 40.68 8.40L40.68 8.40L40.68 8.40Q40.68 8.06 40.74 7.84L40.74 7.84L41.58 7.84L41.58 7.84Q41.52 7.60 41.52 7.28L41.52 7.28L41.52 7.28Q41.52 6.94 41.58 6.72L41.58 6.72L42.42 6.72L42.42 6.72Q42.36 6.48 42.36 6.16L42.36 6.16L42.36 6.16Q42.36 5.82 42.42 5.60L42.42 5.60L42.84 5.60L42.84 5.60Q42.78 5.36 42.78 5.04L42.78 5.04L42.78 5.04Q42.78 4.70 42.84 4.48L42.84 4.48L40.04 4.48L40.04 4.48Q39.98 4.24 39.98 3.92L39.98 3.92L39.98 3.92Q39.98 3.58 40.04 3.36L40.04 3.36L43.96 3.36L43.96 3.36Q44.02 3.58 44.02 3.92L44.02 3.92L44.02 3.92Q44.02 4.24 43.96 4.48L43.96 4.48L43.96 4.48Q44.02 4.70 44.02 5.04L44.02 5.04ZM49.42 10.08L49.84 10.08L49.84 10.08Q49.90 10.30 49.90 10.64L49.90 10.64L49.90 10.64Q49.90 10.96 49.84 11.20L49.84 11.20L48.72 11.20L48.72 11.20Q48.66 10.96 48.66 10.64L48.66 10.64L48.66 10.64Q48.66 10.30 48.72 10.08L48.72 10.08L48.30 10.08L48.30 10.08Q48.24 9.84 48.24 9.52L48.24 9.52L48.24 9.52Q48.24 9.18 48.30 8.96L48.30 8.96L47.88 8.96L47.88 8.96Q47.82 8.72 47.82 8.40L47.82 8.40L47.82 8.40Q47.82 8.06 47.88 7.84L47.88 7.84L46.48 7.84L46.48 7.84Q46.54 8.06 46.54 8.40L46.54 8.40L46.54 8.40Q46.54 8.72 46.48 8.96L46.48 8.96L46.48 8.96Q46.54 9.18 46.54 9.52L46.54 9.52L46.54 9.52Q46.54 9.84 46.48 10.08L46.48 10.08L46.48 10.08Q46.54 10.30 46.54 10.64L46.54 10.64L46.54 10.64Q46.54 10.96 46.48 11.20L46.48 11.20L45.36 11.20L45.36 11.20Q45.30 10.96 45.30 10.64L45.30 10.64L45.30 10.64Q45.30 10.30 45.36 10.08L45.36 10.08L45.36 10.08Q45.30 9.84 45.30 9.52L45.30 9.52L45.30 9.52Q45.30 9.18 45.36 8.96L45.36 8.96L45.36 8.96Q45.30 8.72 45.30 8.40L45.30 8.40L45.30 8.40Q45.30 8.06 45.36 7.84L45.36 7.84L45.36 7.84Q45.30 7.60 45.30 7.28L45.30 7.28L45.30 7.28Q45.30 6.94 45.36 6.72L45.36 6.72L45.36 6.72Q45.30 6.48 45.30 6.16L45.30 6.16L45.30 6.16Q45.30 5.82 45.36 5.60L45.36 5.60L45.36 5.60Q45.30 5.36 45.30 5.04L45.30 5.04L45.30 5.04Q45.30 4.70 45.36 4.48L45.36 4.48L45.36 4.48Q45.30 4.24 45.30 3.92L45.30 3.92L45.30 3.92Q45.30 3.58 45.36 3.36L45.36 3.36L49.28 3.36L49.28 3.36Q49.34 3.58 49.34 3.92L49.34 3.92L49.34 3.92Q49.34 4.24 49.28 4.48L49.28 4.48L49.84 4.48L49.84 4.48Q49.90 4.70 49.90 5.04L49.90 5.04L49.90 5.04Q49.90 5.36 49.84 5.60L49.84 5.60L49.56 5.60L49.56 5.60Q49.62 5.82 49.62 6.16L49.62 6.16L49.62 6.16Q49.62 6.48 49.56 6.72L49.56 6.72L48.72 6.72L48.72 6.72Q48.78 6.94 48.78 7.28L48.78 7.28L48.78 7.28Q48.78 7.60 48.72 7.84L48.72 7.84L49.00 7.84L49.00 7.84Q49.06 8.06 49.06 8.40L49.06 8.40L49.06 8.40Q49.06 8.72 49.00 8.96L49.00 8.96L49.42 8.96L49.42 8.96Q49.48 9.18 49.48 9.52L49.48 9.52L49.48 9.52Q49.48 9.84 49.42 10.08L49.42 10.08ZM48.44 6.72L48.44 6.72Q48.38 6.48 48.38 6.16L48.38 6.16L48.38 6.16Q48.38 5.82 48.44 5.60L48.44 5.60L48.44 5.60Q48.38 5.36 48.38 5.04L48.38 5.04L48.38 5.04Q48.38 4.70 48.44 4.48L48.44 4.48L46.48 4.48L46.48 4.48Q46.54 4.70 46.54 5.04L46.54 5.04L46.54 5.04Q46.54 5.36 46.48 5.60L46.48 5.60L46.48 5.60Q46.54 5.82 46.54 6.16L46.54 6.16L46.54 6.16Q46.54 6.48 46.48 6.72L46.48 6.72L48.44 6.72ZM55.50 6.16L55.50 6.16Q55.50 6.48 55.44 6.72L55.44 6.72L54.88 6.72L54.88 6.72Q54.94 6.94 54.94 7.28L54.94 7.28L54.94 7.28Q54.94 7.60 54.88 7.84L54.88 7.84L55.44 7.84L55.44 7.84Q55.50 8.06 55.50 8.40L55.50 8.40L55.50 8.40Q55.50 8.72 55.44 8.96L55.44 8.96L55.44 8.96Q55.50 9.18 55.50 9.52L55.50 9.52L55.50 9.52Q55.50 9.84 55.44 10.08L55.44 10.08L54.88 10.08L54.88 10.08Q54.94 10.30 54.94 10.64L54.94 10.64L54.94 10.64Q54.94 10.96 54.88 11.20L54.88 11.20L50.96 11.20L50.96 11.20Q50.90 10.96 50.90 10.64L50.90 10.64L50.90 10.64Q50.90 10.30 50.96 10.08L50.96 10.08L50.96 10.08Q50.90 9.84 50.90 9.52L50.90 9.52L50.90 9.52Q50.90 9.18 50.96 8.96L50.96 8.96L50.96 8.96Q50.90 8.72 50.90 8.40L50.90 8.40L50.90 8.40Q50.90 8.06 50.96 7.84L50.96 7.84L50.96 7.84Q50.90 7.60 50.90 7.28L50.90 7.28L50.90 7.28Q50.90 6.94 50.96 6.72L50.96 6.72L50.96 6.72Q50.90 6.48 50.90 6.16L50.90 6.16L50.90 6.16Q50.90 5.82 50.96 5.60L50.96 5.60L50.96 5.60Q50.90 5.36 50.90 5.04L50.90 5.04L50.90 5.04Q50.90 4.70 50.96 4.48L50.96 4.48L50.96 4.48Q50.90 4.24 50.90 3.92L50.90 3.92L50.90 3.92Q50.90 3.58 50.96 3.36L50.96 3.36L54.88 3.36L54.88 3.36Q54.94 3.58 54.94 3.92L54.94 3.92L54.94 3.92Q54.94 4.24 54.88 4.48L54.88 4.48L55.44 4.48L55.44 4.48Q55.50 4.70 55.50 5.04L55.50 5.04L55.50 5.04Q55.50 5.36 55.44 5.60L55.44 5.60L55.44 5.60Q55.50 5.82 55.50 6.16L55.50 6.16ZM54.32 6.72L54.32 6.72Q54.26 6.48 54.26 6.16L54.26 6.16L54.26 6.16Q54.26 5.82 54.32 5.60L54.32 5.60L54.32 5.60Q54.26 5.36 54.26 5.04L54.26 5.04L54.26 5.04Q54.26 4.70 54.32 4.48L54.32 4.48L52.08 4.48L52.08 4.48Q52.14 4.70 52.14 5.04L52.14 5.04L52.14 5.04Q52.14 5.36 52.08 5.60L52.08 5.60L52.08 5.60Q52.14 5.82 52.14 6.16L52.14 6.16L52.14 6.16Q52.14 6.48 52.08 6.72L52.08 6.72L54.32 6.72ZM54.32 8.96L54.32 8.96Q54.26 8.72 54.26 8.40L54.26 8.40L54.26 8.40Q54.26 8.06 54.32 7.84L54.32 7.84L52.08 7.84L52.08 7.84Q52.14 8.06 52.14 8.40L52.14 8.40L52.14 8.40Q52.14 8.72 52.08 8.96L52.08 8.96L52.08 8.96Q52.14 9.18 52.14 9.52L52.14 9.52L52.14 9.52Q52.14 9.84 52.08 10.08L52.08 10.08L54.32 10.08L54.32 10.08Q54.26 9.84 54.26 9.52L54.26 9.52L54.26 9.52Q54.26 9.18 54.32 8.96L54.32 8.96ZM61.04 6.72L61.04 6.72Q61.10 6.94 61.10 7.28L61.10 7.28L61.10 7.28Q61.10 7.60 61.04 7.84L61.04 7.84L61.04 7.84Q61.10 8.06 61.10 8.40L61.10 8.40L61.10 8.40Q61.10 8.72 61.04 8.96L61.04 8.96L60.62 8.96L60.62 8.96Q60.68 9.18 60.68 9.52L60.68 9.52L60.68 9.52Q60.68 9.84 60.62 10.08L60.62 10.08L59.92 10.08L59.92 10.08Q59.98 10.30 59.98 10.64L59.98 10.64L59.98 10.64Q59.98 10.96 59.92 11.20L59.92 11.20L57.68 11.20L57.68 11.20Q57.62 10.96 57.62 10.64L57.62 10.64L57.62 10.64Q57.62 10.30 57.68 10.08L57.68 10.08L56.98 10.08L56.98 10.08Q56.92 9.84 56.92 9.52L56.92 9.52L56.92 9.52Q56.92 9.18 56.98 8.96L56.98 8.96L56.56 8.96L56.56 8.96Q56.50 8.72 56.50 8.40L56.50 8.40L56.50 8.40Q56.50 8.06 56.56 7.84L56.56 7.84L56.56 7.84Q56.50 7.60 56.50 7.28L56.50 7.28L56.50 7.28Q56.50 6.94 56.56 6.72L56.56 6.72L56.56 6.72Q56.50 6.48 56.50 6.16L56.50 6.16L56.50 6.16Q56.50 5.82 56.56 5.60L56.56 5.60L56.98 5.60L56.98 5.60Q56.92 5.36 56.92 5.04L56.92 5.04L56.92 5.04Q56.92 4.70 56.98 4.48L56.98 4.48L57.68 4.48L57.68 4.48Q57.62 4.24 57.62 3.92L57.62 3.92L57.62 3.92Q57.62 3.58 57.68 3.36L57.68 3.36L59.92 3.36L59.92 3.36Q59.98 3.58 59.98 3.92L59.98 3.92L59.98 3.92Q59.98 4.24 59.92 4.48L59.92 4.48L60.62 4.48L60.62 4.48Q60.68 4.70 60.68 5.04L60.68 5.04L60.68 5.04Q60.68 5.36 60.62 5.60L60.62 5.60L61.04 5.60L61.04 5.60Q61.10 5.82 61.10 6.16L61.10 6.16L61.10 6.16Q61.10 6.48 61.04 6.72L61.04 6.72ZM59.92 8.96L59.92 8.96Q59.86 8.72 59.86 8.40L59.86 8.40L59.86 8.40Q59.86 8.06 59.92 7.84L59.92 7.84L59.92 7.84Q59.86 7.60 59.86 7.28L59.86 7.28L59.86 7.28Q59.86 6.94 59.92 6.72L59.92 6.72L59.92 6.72Q59.86 6.48 59.86 6.16L59.86 6.16L59.86 6.16Q59.86 5.82 59.92 5.60L59.92 5.60L59.50 5.60L59.50 5.60Q59.44 5.36 59.44 5.04L59.44 5.04L59.44 5.04Q59.44 4.70 59.50 4.48L59.50 4.48L58.10 4.48L58.10 4.48Q58.16 4.70 58.16 5.04L58.16 5.04L58.16 5.04Q58.16 5.36 58.10 5.60L58.10 5.60L57.68 5.60L57.68 5.60Q57.74 5.82 57.74 6.16L57.74 6.16L57.74 6.16Q57.74 6.48 57.68 6.72L57.68 6.72L57.68 6.72Q57.74 6.94 57.74 7.28L57.74 7.28L57.74 7.28Q57.74 7.60 57.68 7.84L57.68 7.84L57.68 7.84Q57.74 8.06 57.74 8.40L57.74 8.40L57.74 8.40Q57.74 8.72 57.68 8.96L57.68 8.96L58.10 8.96L58.10 8.96Q58.16 9.18 58.16 9.52L58.16 9.52L58.16 9.52Q58.16 9.84 58.10 10.08L58.10 10.08L59.50 10.08L59.50 10.08Q59.44 9.84 59.44 9.52L59.44 9.52L59.44 9.52Q59.44 9.18 59.50 8.96L59.50 8.96L59.92 8.96ZM66.64 4.48L66.64 4.48Q66.70 4.70 66.70 5.04L66.70 5.04L66.70 5.04Q66.70 5.36 66.64 5.60L66.64 5.60L66.64 5.60Q66.70 5.82 66.70 6.16L66.70 6.16L66.70 6.16Q66.70 6.48 66.64 6.72L66.64 6.72L66.64 6.72Q66.70 6.94 66.70 7.28L66.70 7.28L66.70 7.28Q66.70 7.60 66.64 7.84L66.64 7.84L66.64 7.84Q66.70 8.06 66.70 8.40L66.70 8.40L66.70 8.40Q66.70 8.72 66.64 8.96L66.64 8.96L66.64 8.96Q66.70 9.18 66.70 9.52L66.70 9.52L66.70 9.52Q66.70 9.84 66.64 10.08L66.64 10.08L66.64 10.08Q66.70 10.30 66.70 10.64L66.70 10.64L66.70 10.64Q66.70 10.96 66.64 11.20L66.64 11.20L65.52 11.20L65.52 11.20Q65.46 10.96 65.46 10.64L65.46 10.64L65.46 10.64Q65.46 10.30 65.52 10.08L65.52 10.08L64.82 10.08L64.82 10.08Q64.76 9.84 64.76 9.52L64.76 9.52L64.76 9.52Q64.76 9.18 64.82 8.96L64.82 8.96L64.40 8.96L64.40 8.96Q64.34 8.72 64.34 8.40L64.34 8.40L64.34 8.40Q64.34 8.06 64.40 7.84L64.40 7.84L63.84 7.84L63.84 7.84Q63.78 7.60 63.78 7.28L63.78 7.28L63.78 7.28Q63.78 6.94 63.84 6.72L63.84 6.72L63.28 6.72L63.28 6.72Q63.34 6.94 63.34 7.28L63.34 7.28L63.34 7.28Q63.34 7.60 63.28 7.84L63.28 7.84L63.28 7.84Q63.34 8.06 63.34 8.40L63.34 8.40L63.34 8.40Q63.34 8.72 63.28 8.96L63.28 8.96L63.28 8.96Q63.34 9.18 63.34 9.52L63.34 9.52L63.34 9.52Q63.34 9.84 63.28 10.08L63.28 10.08L63.28 10.08Q63.34 10.30 63.34 10.64L63.34 10.64L63.34 10.64Q63.34 10.96 63.28 11.20L63.28 11.20L62.16 11.20L62.16 11.20Q62.10 10.96 62.10 10.64L62.10 10.64L62.10 10.64Q62.10 10.30 62.16 10.08L62.16 10.08L62.16 10.08Q62.10 9.84 62.10 9.52L62.10 9.52L62.10 9.52Q62.10 9.18 62.16 8.96L62.16 8.96L62.16 8.96Q62.10 8.72 62.10 8.40L62.10 8.40L62.10 8.40Q62.10 8.06 62.16 7.84L62.16 7.84L62.16 7.84Q62.10 7.60 62.10 7.28L62.10 7.28L62.10 7.28Q62.10 6.94 62.16 6.72L62.16 6.72L62.16 6.72Q62.10 6.48 62.10 6.16L62.10 6.16L62.10 6.16Q62.10 5.82 62.16 5.60L62.16 5.60L62.16 5.60Q62.10 5.36 62.10 5.04L62.10 5.04L62.10 5.04Q62.10 4.70 62.16 4.48L62.16 4.48L62.16 4.48Q62.10 4.24 62.10 3.92L62.10 3.92L62.10 3.92Q62.10 3.58 62.16 3.36L62.16 3.36L63.56 3.36L63.56 3.36Q63.62 3.58 63.62 3.92L63.62 3.92L63.62 3.92Q63.62 4.24 63.56 4.48L63.56 4.48L63.98 4.48L63.98 4.48Q64.04 4.70 64.04 5.04L64.04 5.04L64.04 5.04Q64.04 5.36 63.98 5.60L63.98 5.60L64.40 5.60L64.40 5.60Q64.46 5.82 64.46 6.16L64.46 6.16L64.46 6.16Q64.46 6.48 64.40 6.72L64.40 6.72L64.96 6.72L64.96 6.72Q65.02 6.94 65.02 7.28L65.02 7.28L65.02 7.28Q65.02 7.60 64.96 7.84L64.96 7.84L65.52 7.84L65.52 7.84Q65.46 7.60 65.46 7.28L65.46 7.28L65.46 7.28Q65.46 6.94 65.52 6.72L65.52 6.72L65.52 6.72Q65.46 6.48 65.46 6.16L65.46 6.16L65.46 6.16Q65.46 5.82 65.52 5.60L65.52 5.60L65.52 5.60Q65.46 5.36 65.46 5.04L65.46 5.04L65.46 5.04Q65.46 4.70 65.52 4.48L65.52 4.48L65.52 4.48Q65.46 4.24 65.46 3.92L65.46 3.92L65.46 3.92Q65.46 3.58 65.52 3.36L65.52 3.36L66.64 3.36L66.64 3.36Q66.70 3.58 66.70 3.92L66.70 3.92L66.70 3.92Q66.70 4.24 66.64 4.48L66.64 4.48ZM70.56 10.08L71.40 10.08L71.40 10.08Q71.46 10.30 71.46 10.64L71.46 10.64L71.46 10.64Q71.46 10.96 71.40 11.20L71.40 11.20L68.60 11.20L68.60 11.20Q68.54 10.96 68.54 10.64L68.54 10.64L68.54 10.64Q68.54 10.30 68.60 10.08L68.60 10.08L69.44 10.08L69.44 10.08Q69.38 9.84 69.38 9.52L69.38 9.52L69.38 9.52Q69.38 9.18 69.44 8.96L69.44 8.96L69.44 8.96Q69.38 8.72 69.38 8.40L69.38 8.40L69.38 8.40Q69.38 8.06 69.44 7.84L69.44 7.84L69.44 7.84Q69.38 7.60 69.38 7.28L69.38 7.28L69.38 7.28Q69.38 6.94 69.44 6.72L69.44 6.72L69.44 6.72Q69.38 6.48 69.38 6.16L69.38 6.16L69.38 6.16Q69.38 5.82 69.44 5.60L69.44 5.60L69.44 5.60Q69.38 5.36 69.38 5.04L69.38 5.04L69.38 5.04Q69.38 4.70 69.44 4.48L69.44 4.48L68.60 4.48L68.60 4.48Q68.54 4.24 68.54 3.92L68.54 3.92L68.54 3.92Q68.54 3.58 68.60 3.36L68.60 3.36L71.40 3.36L71.40 3.36Q71.46 3.58 71.46 3.92L71.46 3.92L71.46 3.92Q71.46 4.24 71.40 4.48L71.40 4.48L70.56 4.48L70.56 4.48Q70.62 4.70 70.62 5.04L70.62 5.04L70.62 5.04Q70.62 5.36 70.56 5.60L70.56 5.60L70.56 5.60Q70.62 5.82 70.62 6.16L70.62 6.16L70.62 6.16Q70.62 6.48 70.56 6.72L70.56 6.72L70.56 6.72Q70.62 6.94 70.62 7.28L70.62 7.28L70.62 7.28Q70.62 7.60 70.56 7.84L70.56 7.84L70.56 7.84Q70.62 8.06 70.62 8.40L70.62 8.40L70.62 8.40Q70.62 8.72 70.56 8.96L70.56 8.96L70.56 8.96Q70.62 9.18 70.62 9.52L70.62 9.52L70.62 9.52Q70.62 9.84 70.56 10.08L70.56 10.08ZM77.84 6.72L77.84 6.72Q77.90 6.94 77.90 7.28L77.90 7.28L77.90 7.28Q77.90 7.60 77.84 7.84L77.84 7.84L77.84 7.84Q77.90 8.06 77.90 8.40L77.90 8.40L77.90 8.40Q77.90 8.72 77.84 8.96L77.84 8.96L77.42 8.96L77.42 8.96Q77.48 9.18 77.48 9.52L77.48 9.52L77.48 9.52Q77.48 9.84 77.42 10.08L77.42 10.08L76.72 10.08L76.72 10.08Q76.78 10.30 76.78 10.64L76.78 10.64L76.78 10.64Q76.78 10.96 76.72 11.20L76.72 11.20L74.48 11.20L74.48 11.20Q74.42 10.96 74.42 10.64L74.42 10.64L74.42 10.64Q74.42 10.30 74.48 10.08L74.48 10.08L73.78 10.08L73.78 10.08Q73.72 9.84 73.72 9.52L73.72 9.52L73.72 9.52Q73.72 9.18 73.78 8.96L73.78 8.96L73.36 8.96L73.36 8.96Q73.30 8.72 73.30 8.40L73.30 8.40L73.30 8.40Q73.30 8.06 73.36 7.84L73.36 7.84L73.36 7.84Q73.30 7.60 73.30 7.28L73.30 7.28L73.30 7.28Q73.30 6.94 73.36 6.72L73.36 6.72L73.36 6.72Q73.30 6.48 73.30 6.16L73.30 6.16L73.30 6.16Q73.30 5.82 73.36 5.60L73.36 5.60L73.78 5.60L73.78 5.60Q73.72 5.36 73.72 5.04L73.72 5.04L73.72 5.04Q73.72 4.70 73.78 4.48L73.78 4.48L74.48 4.48L74.48 4.48Q74.42 4.24 74.42 3.92L74.42 3.92L74.42 3.92Q74.42 3.58 74.48 3.36L74.48 3.36L76.72 3.36L76.72 3.36Q76.78 3.58 76.78 3.92L76.78 3.92L76.78 3.92Q76.78 4.24 76.72 4.48L76.72 4.48L77.42 4.48L77.42 4.48Q77.48 4.70 77.48 5.04L77.48 5.04L77.48 5.04Q77.48 5.36 77.42 5.60L77.42 5.60L77.84 5.60L77.84 5.60Q77.90 5.82 77.90 6.16L77.90 6.16L77.90 6.16Q77.90 6.48 77.84 6.72L77.84 6.72ZM76.72 8.96L76.72 8.96Q76.66 8.72 76.66 8.40L76.66 8.40L76.66 8.40Q76.66 8.06 76.72 7.84L76.72 7.84L76.72 7.84Q76.66 7.60 76.66 7.28L76.66 7.28L76.66 7.28Q76.66 6.94 76.72 6.72L76.72 6.72L76.72 6.72Q76.66 6.48 76.66 6.16L76.66 6.16L76.66 6.16Q76.66 5.82 76.72 5.60L76.72 5.60L76.30 5.60L76.30 5.60Q76.24 5.36 76.24 5.04L76.24 5.04L76.24 5.04Q76.24 4.70 76.30 4.48L76.30 4.48L74.90 4.48L74.90 4.48Q74.96 4.70 74.96 5.04L74.96 5.04L74.96 5.04Q74.96 5.36 74.90 5.60L74.90 5.60L74.48 5.60L74.48 5.60Q74.54 5.82 74.54 6.16L74.54 6.16L74.54 6.16Q74.54 6.48 74.48 6.72L74.48 6.72L74.48 6.72Q74.54 6.94 74.54 7.28L74.54 7.28L74.54 7.28Q74.54 7.60 74.48 7.84L74.48 7.84L74.48 7.84Q74.54 8.06 74.54 8.40L74.54 8.40L74.54 8.40Q74.54 8.72 74.48 8.96L74.48 8.96L74.90 8.96L74.90 8.96Q74.96 9.18 74.96 9.52L74.96 9.52L74.96 9.52Q74.96 9.84 74.90 10.08L74.90 10.08L76.30 10.08L76.30 10.08Q76.24 9.84 76.24 9.52L76.24 9.52L76.24 9.52Q76.24 9.18 76.30 8.96L76.30 8.96L76.72 8.96ZM83.44 4.48L83.44 4.48Q83.50 4.70 83.50 5.04L83.50 5.04L83.50 5.04Q83.50 5.36 83.44 5.60L83.44 5.60L83.44 5.60Q83.50 5.82 83.50 6.16L83.50 6.16L83.50 6.16Q83.50 6.48 83.44 6.72L83.44 6.72L83.44 6.72Q83.50 6.94 83.50 7.28L83.50 7.28L83.50 7.28Q83.50 7.60 83.44 7.84L83.44 7.84L83.44 7.84Q83.50 8.06 83.50 8.40L83.50 8.40L83.50 8.40Q83.50 8.72 83.44 8.96L83.44 8.96L83.44 8.96Q83.50 9.18 83.50 9.52L83.50 9.52L83.50 9.52Q83.50 9.84 83.44 10.08L83.44 10.08L83.44 10.08Q83.50 10.30 83.50 10.64L83.50 10.64L83.50 10.64Q83.50 10.96 83.44 11.20L83.44 11.20L82.32 11.20L82.32 11.20Q82.26 10.96 82.26 10.64L82.26 10.64L82.26 10.64Q82.26 10.30 82.32 10.08L82.32 10.08L81.62 10.08L81.62 10.08Q81.56 9.84 81.56 9.52L81.56 9.52L81.56 9.52Q81.56 9.18 81.62 8.96L81.62 8.96L81.20 8.96L81.20 8.96Q81.14 8.72 81.14 8.40L81.14 8.40L81.14 8.40Q81.14 8.06 81.20 7.84L81.20 7.84L80.64 7.84L80.64 7.84Q80.58 7.60 80.58 7.28L80.58 7.28L80.58 7.28Q80.58 6.94 80.64 6.72L80.64 6.72L80.08 6.72L80.08 6.72Q80.14 6.94 80.14 7.28L80.14 7.28L80.14 7.28Q80.14 7.60 80.08 7.84L80.08 7.84L80.08 7.84Q80.14 8.06 80.14 8.40L80.14 8.40L80.14 8.40Q80.14 8.72 80.08 8.96L80.08 8.96L80.08 8.96Q80.14 9.18 80.14 9.52L80.14 9.52L80.14 9.52Q80.14 9.84 80.08 10.08L80.08 10.08L80.08 10.08Q80.14 10.30 80.14 10.64L80.14 10.64L80.14 10.64Q80.14 10.96 80.08 11.20L80.08 11.20L78.96 11.20L78.96 11.20Q78.90 10.96 78.90 10.64L78.90 10.64L78.90 10.64Q78.90 10.30 78.96 10.08L78.96 10.08L78.96 10.08Q78.90 9.84 78.90 9.52L78.90 9.52L78.90 9.52Q78.90 9.18 78.96 8.96L78.96 8.96L78.96 8.96Q78.90 8.72 78.90 8.40L78.90 8.40L78.90 8.40Q78.90 8.06 78.96 7.84L78.96 7.84L78.96 7.84Q78.90 7.60 78.90 7.28L78.90 7.28L78.90 7.28Q78.90 6.94 78.96 6.72L78.96 6.72L78.96 6.72Q78.90 6.48 78.90 6.16L78.90 6.16L78.90 6.16Q78.90 5.82 78.96 5.60L78.96 5.60L78.96 5.60Q78.90 5.36 78.90 5.04L78.90 5.04L78.90 5.04Q78.90 4.70 78.96 4.48L78.96 4.48L78.96 4.48Q78.90 4.24 78.90 3.92L78.90 3.92L78.90 3.92Q78.90 3.58 78.96 3.36L78.96 3.36L80.36 3.36L80.36 3.36Q80.42 3.58 80.42 3.92L80.42 3.92L80.42 3.92Q80.42 4.24 80.36 4.48L80.36 4.48L80.78 4.48L80.78 4.48Q80.84 4.70 80.84 5.04L80.84 5.04L80.84 5.04Q80.84 5.36 80.78 5.60L80.78 5.60L81.20 5.60L81.20 5.60Q81.26 5.82 81.26 6.16L81.26 6.16L81.26 6.16Q81.26 6.48 81.20 6.72L81.20 6.72L81.76 6.72L81.76 6.72Q81.82 6.94 81.82 7.28L81.82 7.28L81.82 7.28Q81.82 7.60 81.76 7.84L81.76 7.84L82.32 7.84L82.32 7.84Q82.26 7.60 82.26 7.28L82.26 7.28L82.26 7.28Q82.26 6.94 82.32 6.72L82.32 6.72L82.32 6.72Q82.26 6.48 82.26 6.16L82.26 6.16L82.26 6.16Q82.26 5.82 82.32 5.60L82.32 5.60L82.32 5.60Q82.26 5.36 82.26 5.04L82.26 5.04L82.26 5.04Q82.26 4.70 82.32 4.48L82.32 4.48L82.32 4.48Q82.26 4.24 82.26 3.92L82.26 3.92L82.26 3.92Q82.26 3.58 82.32 3.36L82.32 3.36L83.44 3.36L83.44 3.36Q83.50 3.58 83.50 3.92L83.50 3.92L83.50 3.92Q83.50 4.24 83.44 4.48L83.44 4.48ZM89.10 3.92L89.10 3.92Q89.10 4.24 89.04 4.48L89.04 4.48L89.04 4.48Q89.10 4.70 89.10 5.04L89.10 5.04L89.10 5.04Q89.10 5.36 89.04 5.60L89.04 5.60L88.48 5.60L88.48 5.60Q88.54 5.82 88.54 6.16L88.54 6.16L88.54 6.16Q88.54 6.48 88.48 6.72L88.48 6.72L87.92 6.72L87.92 6.72Q87.98 6.94 87.98 7.28L87.98 7.28L87.98 7.28Q87.98 7.60 87.92 7.84L87.92 7.84L87.36 7.84L87.36 7.84Q87.42 8.06 87.42 8.40L87.42 8.40L87.42 8.40Q87.42 8.72 87.36 8.96L87.36 8.96L87.36 8.96Q87.42 9.18 87.42 9.52L87.42 9.52L87.42 9.52Q87.42 9.84 87.36 10.08L87.36 10.08L87.36 10.08Q87.42 10.30 87.42 10.64L87.42 10.64L87.42 10.64Q87.42 10.96 87.36 11.20L87.36 11.20L86.24 11.20L86.24 11.20Q86.18 10.96 86.18 10.64L86.18 10.64L86.18 10.64Q86.18 10.30 86.24 10.08L86.24 10.08L86.24 10.08Q86.18 9.84 86.18 9.52L86.18 9.52L86.18 9.52Q86.18 9.18 86.24 8.96L86.24 8.96L86.24 8.96Q86.18 8.72 86.18 8.40L86.18 8.40L86.18 8.40Q86.18 8.06 86.24 7.84L86.24 7.84L85.68 7.84L85.68 7.84Q85.62 7.60 85.62 7.28L85.62 7.28L85.62 7.28Q85.62 6.94 85.68 6.72L85.68 6.72L85.12 6.72L85.12 6.72Q85.06 6.48 85.06 6.16L85.06 6.16L85.06 6.16Q85.06 5.82 85.12 5.60L85.12 5.60L84.56 5.60L84.56 5.60Q84.50 5.36 84.50 5.04L84.50 5.04L84.50 5.04Q84.50 4.70 84.56 4.48L84.56 4.48L84.56 4.48Q84.50 4.24 84.50 3.92L84.50 3.92L84.50 3.92Q84.50 3.58 84.56 3.36L84.56 3.36L85.68 3.36L85.68 3.36Q85.74 3.58 85.74 3.92L85.74 3.92L85.74 3.92Q85.74 4.24 85.68 4.48L85.68 4.48L85.68 4.48Q85.74 4.70 85.74 5.04L85.74 5.04L85.74 5.04Q85.74 5.36 85.68 5.60L85.68 5.60L86.24 5.60L86.24 5.60Q86.30 5.82 86.30 6.16L86.30 6.16L86.30 6.16Q86.30 6.48 86.24 6.72L86.24 6.72L87.36 6.72L87.36 6.72Q87.30 6.48 87.30 6.16L87.30 6.16L87.30 6.16Q87.30 5.82 87.36 5.60L87.36 5.60L87.92 5.60L87.92 5.60Q87.86 5.36 87.86 5.04L87.86 5.04L87.86 5.04Q87.86 4.70 87.92 4.48L87.92 4.48L87.92 4.48Q87.86 4.24 87.86 3.92L87.86 3.92L87.86 3.92Q87.86 3.58 87.92 3.36L87.92 3.36L89.04 3.36L89.04 3.36Q89.10 3.58 89.10 3.92L89.10 3.92ZM92.96 4.48L92.96 4.48Q93.02 4.70 93.02 5.04L93.02 5.04L93.02 5.04Q93.02 5.36 92.96 5.60L92.96 5.60L92.96 5.60Q93.02 5.82 93.02 6.16L93.02 6.16L93.02 6.16Q93.02 6.48 92.96 6.72L92.96 6.72L92.96 6.72Q93.02 6.94 93.02 7.28L93.02 7.28L93.02 7.28Q93.02 7.60 92.96 7.84L92.96 7.84L92.96 7.84Q93.02 8.06 93.02 8.40L93.02 8.40L93.02 8.40Q93.02 8.72 92.96 8.96L92.96 8.96L91.84 8.96L91.84 8.96Q91.78 8.72 91.78 8.40L91.78 8.40L91.78 8.40Q91.78 8.06 91.84 7.84L91.84 7.84L91.84 7.84Q91.78 7.60 91.78 7.28L91.78 7.28L91.78 7.28Q91.78 6.94 91.84 6.72L91.84 6.72L91.84 6.72Q91.78 6.48 91.78 6.16L91.78 6.16L91.78 6.16Q91.78 5.82 91.84 5.60L91.84 5.60L91.84 5.60Q91.78 5.36 91.78 5.04L91.78 5.04L91.78 5.04Q91.78 4.70 91.84 4.48L91.84 4.48L91.84 4.48Q91.78 4.24 91.78 3.92L91.78 3.92L91.78 3.92Q91.78 3.58 91.84 3.36L91.84 3.36L92.96 3.36L92.96 3.36Q93.02 3.58 93.02 3.92L93.02 3.92L93.02 3.92Q93.02 4.24 92.96 4.48L92.96 4.48ZM91.84 10.08L92.96 10.08L92.96 10.08Q93.02 10.30 93.02 10.64L93.02 10.64L93.02 10.64Q93.02 10.96 92.96 11.20L92.96 11.20L91.84 11.20L91.84 11.20Q91.78 10.96 91.78 10.64L91.78 10.64L91.78 10.64Q91.78 10.30 91.84 10.08L91.84 10.08Z"></path></g></svg>