<svg data-v-fde0c5aa="" xmlns="http://www.w3.org/2000/svg" viewBox="0 0 300 300" class="font"><!----><defs data-v-fde0c5aa=""><!----></defs><rect data-v-fde0c5aa="" fill="transparent" x="0" y="0" width="300px" height="300px" class="logo-background-square"></rect><defs data-v-fde0c5aa=""><linearGradient data-v-fde0c5aa="" gradientTransform="rotate(25)" id="91e32f9e-af2f-412e-a655-b0a87595e5ed" x1="0%" y1="0%" x2="100%" y2="0%"><stop data-v-fde0c5aa="" offset="0%" stop-color="#404040" stop-opacity="1"></stop><stop data-v-fde0c5aa="" offset="100%" stop-color="#A6442F" stop-opacity="1"></stop></linearGradient></defs><g data-v-fde0c5aa="" id="b8eeba89-807c-474b-8d16-eb1fc38bb342" fill="url(#91e32f9e-af2f-412e-a655-b0a87595e5ed)" transform="matrix(5.022830963134766,0,0,5.022830963134766,37.488584431140225,113.43378946110607)"><path d="M5.04 4.48L5.04 4.48Q5.10 4.70 5.10 5.04L5.10 5.04L5.10 5.04Q5.10 5.36 5.04 5.60L5.04 5.60L5.04 5.60Q5.10 5.82 5.10 6.16L5.10 6.16L5.10 6.16Q5.10 6.48 5.04 6.72L5.04 6.72L5.04 6.72Q5.10 6.94 5.10 7.28L5.10 7.28L5.10 7.28Q5.10 7.60 5.04 7.84L5.04 7.84L5.04 7.84Q5.10 8.06 5.10 8.40L5.10 8.40L5.10 8.40Q5.10 8.72 5.04 8.96L5.04 8.96L5.04 8.96Q5.10 9.18 5.10 9.52L5.10 9.52L5.10 9.52Q5.10 9.84 5.04 10.08L5.04 10.08L5.04 10.08Q5.10 10.30 5.10 10.64L5.10 10.64L5.10 10.64Q5.10 10.96 5.04 11.20L5.04 11.20L3.92 11.20L3.92 11.20Q3.86 10.96 3.86 10.64L3.86 10.64L3.86 10.64Q3.86 10.30 3.92 10.08L3.92 10.08L3.92 10.08Q3.86 9.84 3.86 9.52L3.86 9.52L3.86 9.52Q3.86 9.18 3.92 8.96L3.92 8.96L3.92 8.96Q3.86 8.72 3.86 8.40L3.86 8.40L3.86 8.40Q3.86 8.06 3.92 7.84L3.92 7.84L1.68 7.84L1.68 7.84Q1.74 8.06 1.74 8.40L1.74 8.40L1.74 8.40Q1.74 8.72 1.68 8.96L1.68 8.96L1.68 8.96Q1.74 9.18 1.74 9.52L1.74 9.52L1.74 9.52Q1.74 9.84 1.68 10.08L1.68 10.08L1.68 10.08Q1.74 10.30 1.74 10.64L1.74 10.64L1.74 10.64Q1.74 10.96 1.68 11.20L1.68 11.20L0.56 11.20L0.56 11.20Q0.50 10.96 0.50 10.64L0.50 10.64L0.50 10.64Q0.50 10.30 0.56 10.08L0.56 10.08L0.56 10.08Q0.50 9.84 0.50 9.52L0.50 9.52L0.50 9.52Q0.50 9.18 0.56 8.96L0.56 8.96L0.56 8.96Q0.50 8.72 0.50 8.40L0.50 8.40L0.50 8.40Q0.50 8.06 0.56 7.84L0.56 7.84L0.56 7.84Q0.50 7.60 0.50 7.28L0.50 7.28L0.50 7.28Q0.50 6.94 0.56 6.72L0.56 6.72L0.56 6.72Q0.50 6.48 0.50 6.16L0.50 6.16L0.50 6.16Q0.50 5.82 0.56 5.60L0.56 5.60L0.56 5.60Q0.50 5.36 0.50 5.04L0.50 5.04L0.50 5.04Q0.50 4.70 0.56 4.48L0.56 4.48L0.56 4.48Q0.50 4.24 0.50 3.92L0.50 3.92L0.50 3.92Q0.50 3.58 0.56 3.36L0.56 3.36L1.68 3.36L1.68 3.36Q1.74 3.58 1.74 3.92L1.74 3.92L1.74 3.92Q1.74 4.24 1.68 4.48L1.68 4.48L1.68 4.48Q1.74 4.70 1.74 5.04L1.74 5.04L1.74 5.04Q1.74 5.36 1.68 5.60L1.68 5.60L1.68 5.60Q1.74 5.82 1.74 6.16L1.74 6.16L1.74 6.16Q1.74 6.48 1.68 6.72L1.68 6.72L3.92 6.72L3.92 6.72Q3.86 6.48 3.86 6.16L3.86 6.16L3.86 6.16Q3.86 5.82 3.92 5.60L3.92 5.60L3.92 5.60Q3.86 5.36 3.86 5.04L3.86 5.04L3.86 5.04Q3.86 4.70 3.92 4.48L3.92 4.48L3.92 4.48Q3.86 4.24 3.86 3.92L3.86 3.92L3.86 3.92Q3.86 3.58 3.92 3.36L3.92 3.36L5.04 3.36L5.04 3.36Q5.10 3.58 5.10 3.92L5.10 3.92L5.10 3.92Q5.10 4.24 5.04 4.48L5.04 4.48ZM10.70 9.52L10.70 9.52Q10.70 9.84 10.64 10.08L10.64 10.08L10.64 10.08Q10.70 10.30 10.70 10.64L10.70 10.64L10.70 10.64Q10.70 10.96 10.64 11.20L10.64 11.20L9.52 11.20L9.52 11.20Q9.46 10.96 9.46 10.64L9.46 10.64L9.46 10.64Q9.46 10.30 9.52 10.08L9.52 10.08L9.52 10.08Q9.46 9.84 9.46 9.52L9.46 9.52L9.46 9.52Q9.46 9.18 9.52 8.96L9.52 8.96L7.28 8.96L7.28 8.96Q7.34 9.18 7.34 9.52L7.34 9.52L7.34 9.52Q7.34 9.84 7.28 10.08L7.28 10.08L7.28 10.08Q7.34 10.30 7.34 10.64L7.34 10.64L7.34 10.64Q7.34 10.96 7.28 11.20L7.28 11.20L6.16 11.20L6.16 11.20Q6.10 10.96 6.10 10.64L6.10 10.64L6.10 10.64Q6.10 10.30 6.16 10.08L6.16 10.08L6.16 10.08Q6.10 9.84 6.10 9.52L6.10 9.52L6.10 9.52Q6.10 9.18 6.16 8.96L6.16 8.96L6.58 8.96L6.58 8.96Q6.52 8.72 6.52 8.40L6.52 8.40L6.52 8.40Q6.52 8.06 6.58 7.84L6.58 7.84L6.58 7.84Q6.52 7.60 6.52 7.28L6.52 7.28L6.52 7.28Q6.52 6.94 6.58 6.72L6.58 6.72L6.86 6.72L6.86 6.72Q6.80 6.48 6.80 6.16L6.80 6.16L6.80 6.16Q6.80 5.82 6.86 5.60L6.86 5.60L7.28 5.60L7.28 5.60Q7.22 5.36 7.22 5.04L7.22 5.04L7.22 5.04Q7.22 4.70 7.28 4.48L7.28 4.48L7.56 4.48L7.56 4.48Q7.50 4.24 7.50 3.92L7.50 3.92L7.50 3.92Q7.50 3.58 7.56 3.36L7.56 3.36L9.24 3.36L9.24 3.36Q9.30 3.58 9.30 3.92L9.30 3.92L9.30 3.92Q9.30 4.24 9.24 4.48L9.24 4.48L9.52 4.48L9.52 4.48Q9.58 4.70 9.58 5.04L9.58 5.04L9.58 5.04Q9.58 5.36 9.52 5.60L9.52 5.60L9.94 5.60L9.94 5.60Q10.00 5.82 10.00 6.16L10.00 6.16L10.00 6.16Q10.00 6.48 9.94 6.72L9.94 6.72L10.22 6.72L10.22 6.72Q10.28 6.94 10.28 7.28L10.28 7.28L10.28 7.28Q10.28 7.60 10.22 7.84L10.22 7.84L10.22 7.84Q10.28 8.06 10.28 8.40L10.28 8.40L10.28 8.40Q10.28 8.72 10.22 8.96L10.22 8.96L10.64 8.96L10.64 8.96Q10.70 9.18 10.70 9.52L10.70 9.52ZM9.10 7.84L9.10 7.84Q9.04 7.60 9.04 7.28L9.04 7.28L9.04 7.28Q9.04 6.94 9.10 6.72L9.10 6.72L8.82 6.72L8.82 6.72Q8.76 6.48 8.76 6.16L8.76 6.16L8.76 6.16Q8.76 5.82 8.82 5.60L8.82 5.60L7.98 5.60L7.98 5.60Q8.04 5.82 8.04 6.16L8.04 6.16L8.04 6.16Q8.04 6.48 7.98 6.72L7.98 6.72L7.70 6.72L7.70 6.72Q7.76 6.94 7.76 7.28L7.76 7.28L7.76 7.28Q7.76 7.60 7.70 7.84L7.70 7.84L9.10 7.84ZM15.82 10.08L16.24 10.08L16.24 10.08Q16.30 10.30 16.30 10.64L16.30 10.64L16.30 10.64Q16.30 10.96 16.24 11.20L16.24 11.20L15.12 11.20L15.12 11.20Q15.06 10.96 15.06 10.64L15.06 10.64L15.06 10.64Q15.06 10.30 15.12 10.08L15.12 10.08L14.70 10.08L14.70 10.08Q14.64 9.84 14.64 9.52L14.64 9.52L14.64 9.52Q14.64 9.18 14.70 8.96L14.70 8.96L13.86 8.96L13.86 8.96Q13.80 8.72 13.80 8.40L13.80 8.40L13.80 8.40Q13.80 8.06 13.86 7.84L13.86 7.84L12.88 7.84L12.88 7.84Q12.94 8.06 12.94 8.40L12.94 8.40L12.94 8.40Q12.94 8.72 12.88 8.96L12.88 8.96L12.88 8.96Q12.94 9.18 12.94 9.52L12.94 9.52L12.94 9.52Q12.94 9.84 12.88 10.08L12.88 10.08L12.88 10.08Q12.94 10.30 12.94 10.64L12.94 10.64L12.94 10.64Q12.94 10.96 12.88 11.20L12.88 11.20L11.76 11.20L11.76 11.20Q11.70 10.96 11.70 10.64L11.70 10.64L11.70 10.64Q11.70 10.30 11.76 10.08L11.76 10.08L11.76 10.08Q11.70 9.84 11.70 9.52L11.70 9.52L11.70 9.52Q11.70 9.18 11.76 8.96L11.76 8.96L11.76 8.96Q11.70 8.72 11.70 8.40L11.70 8.40L11.70 8.40Q11.70 8.06 11.76 7.84L11.76 7.84L11.76 7.84Q11.70 7.60 11.70 7.28L11.70 7.28L11.70 7.28Q11.70 6.94 11.76 6.72L11.76 6.72L11.76 6.72Q11.70 6.48 11.70 6.16L11.70 6.16L11.70 6.16Q11.70 5.82 11.76 5.60L11.76 5.60L11.76 5.60Q11.70 5.36 11.70 5.04L11.70 5.04L11.70 5.04Q11.70 4.70 11.76 4.48L11.76 4.48L11.76 4.48Q11.70 4.24 11.70 3.92L11.70 3.92L11.70 3.92Q11.70 3.58 11.76 3.36L11.76 3.36L12.88 3.36L12.88 3.36Q12.94 3.58 12.94 3.92L12.94 3.92L12.94 3.92Q12.94 4.24 12.88 4.48L12.88 4.48L12.88 4.48Q12.94 4.70 12.94 5.04L12.94 5.04L12.94 5.04Q12.94 5.36 12.88 5.60L12.88 5.60L12.88 5.60Q12.94 5.82 12.94 6.16L12.94 6.16L12.94 6.16Q12.94 6.48 12.88 6.72L12.88 6.72L13.86 6.72L13.86 6.72Q13.80 6.48 13.80 6.16L13.80 6.16L13.80 6.16Q13.80 5.82 13.86 5.60L13.86 5.60L14.70 5.60L14.70 5.60Q14.64 5.36 14.64 5.04L14.64 5.04L14.64 5.04Q14.64 4.70 14.70 4.48L14.70 4.48L15.12 4.48L15.12 4.48Q15.06 4.24 15.06 3.92L15.06 3.92L15.06 3.92Q15.06 3.58 15.12 3.36L15.12 3.36L16.24 3.36L16.24 3.36Q16.30 3.58 16.30 3.92L16.30 3.92L16.30 3.92Q16.30 4.24 16.24 4.48L16.24 4.48L15.82 4.48L15.82 4.48Q15.88 4.70 15.88 5.04L15.88 5.04L15.88 5.04Q15.88 5.36 15.82 5.60L15.82 5.60L14.98 5.60L14.98 5.60Q15.04 5.82 15.04 6.16L15.04 6.16L15.04 6.16Q15.04 6.48 14.98 6.72L14.98 6.72L14.28 6.72L14.28 6.72Q14.34 6.94 14.34 7.28L14.34 7.28L14.34 7.28Q14.34 7.60 14.28 7.84L14.28 7.84L14.98 7.84L14.98 7.84Q15.04 8.06 15.04 8.40L15.04 8.40L15.04 8.40Q15.04 8.72 14.98 8.96L14.98 8.96L15.82 8.96L15.82 8.96Q15.88 9.18 15.88 9.52L15.88 9.52L15.88 9.52Q15.88 9.84 15.82 10.08L15.82 10.08ZM20.16 10.08L21 10.08L21 10.08Q21.06 10.30 21.06 10.64L21.06 10.64L21.06 10.64Q21.06 10.96 21 11.20L21 11.20L18.20 11.20L18.20 11.20Q18.14 10.96 18.14 10.64L18.14 10.64L18.14 10.64Q18.14 10.30 18.20 10.08L18.20 10.08L19.04 10.08L19.04 10.08Q18.98 9.84 18.98 9.52L18.98 9.52L18.98 9.52Q18.98 9.18 19.04 8.96L19.04 8.96L19.04 8.96Q18.98 8.72 18.98 8.40L18.98 8.40L18.98 8.40Q18.98 8.06 19.04 7.84L19.04 7.84L19.04 7.84Q18.98 7.60 18.98 7.28L18.98 7.28L18.98 7.28Q18.98 6.94 19.04 6.72L19.04 6.72L19.04 6.72Q18.98 6.48 18.98 6.16L18.98 6.16L18.98 6.16Q18.98 5.82 19.04 5.60L19.04 5.60L19.04 5.60Q18.98 5.36 18.98 5.04L18.98 5.04L18.98 5.04Q18.98 4.70 19.04 4.48L19.04 4.48L18.20 4.48L18.20 4.48Q18.14 4.24 18.14 3.92L18.14 3.92L18.14 3.92Q18.14 3.58 18.20 3.36L18.20 3.36L21 3.36L21 3.36Q21.06 3.58 21.06 3.92L21.06 3.92L21.06 3.92Q21.06 4.24 21 4.48L21 4.48L20.16 4.48L20.16 4.48Q20.22 4.70 20.22 5.04L20.22 5.04L20.22 5.04Q20.22 5.36 20.16 5.60L20.16 5.60L20.16 5.60Q20.22 5.82 20.22 6.16L20.22 6.16L20.22 6.16Q20.22 6.48 20.16 6.72L20.16 6.72L20.16 6.72Q20.22 6.94 20.22 7.28L20.22 7.28L20.22 7.28Q20.22 7.60 20.16 7.84L20.16 7.84L20.16 7.84Q20.22 8.06 20.22 8.40L20.22 8.40L20.22 8.40Q20.22 8.72 20.16 8.96L20.16 8.96L20.16 8.96Q20.22 9.18 20.22 9.52L20.22 9.52L20.22 9.52Q20.22 9.84 20.16 10.08L20.16 10.08ZM26.88 7.84L24.64 7.84L24.64 7.84Q24.70 8.06 24.70 8.40L24.70 8.40L24.70 8.40Q24.70 8.72 24.64 8.96L24.64 8.96L24.64 8.96Q24.70 9.18 24.70 9.52L24.70 9.52L24.70 9.52Q24.70 9.84 24.64 10.08L24.64 10.08L26.88 10.08L26.88 10.08Q26.94 10.30 26.94 10.64L26.94 10.64L26.94 10.64Q26.94 10.96 26.88 11.20L26.88 11.20L23.52 11.20L23.52 11.20Q23.46 10.96 23.46 10.64L23.46 10.64L23.46 10.64Q23.46 10.30 23.52 10.08L23.52 10.08L23.52 10.08Q23.46 9.84 23.46 9.52L23.46 9.52L23.46 9.52Q23.46 9.18 23.52 8.96L23.52 8.96L23.52 8.96Q23.46 8.72 23.46 8.40L23.46 8.40L23.46 8.40Q23.46 8.06 23.52 7.84L23.52 7.84L23.52 7.84Q23.46 7.60 23.46 7.28L23.46 7.28L23.46 7.28Q23.46 6.94 23.52 6.72L23.52 6.72L23.52 6.72Q23.46 6.48 23.46 6.16L23.46 6.16L23.46 6.16Q23.46 5.82 23.52 5.60L23.52 5.60L23.52 5.60Q23.46 5.36 23.46 5.04L23.46 5.04L23.46 5.04Q23.46 4.70 23.52 4.48L23.52 4.48L23.52 4.48Q23.46 4.24 23.46 3.92L23.46 3.92L23.46 3.92Q23.46 3.58 23.52 3.36L23.52 3.36L26.88 3.36L26.88 3.36Q26.94 3.58 26.94 3.92L26.94 3.92L26.94 3.92Q26.94 4.24 26.88 4.48L26.88 4.48L24.64 4.48L24.64 4.48Q24.70 4.70 24.70 5.04L24.70 5.04L24.70 5.04Q24.70 5.36 24.64 5.60L24.64 5.60L24.64 5.60Q24.70 5.82 24.70 6.16L24.70 6.16L24.70 6.16Q24.70 6.48 24.64 6.72L24.64 6.72L26.88 6.72L26.88 6.72Q26.94 6.94 26.94 7.28L26.94 7.28L26.94 7.28Q26.94 7.60 26.88 7.84L26.88 7.84ZM32.62 10.08L33.04 10.08L33.04 10.08Q33.10 10.30 33.10 10.64L33.10 10.64L33.10 10.64Q33.10 10.96 33.04 11.20L33.04 11.20L31.92 11.20L31.92 11.20Q31.86 10.96 31.86 10.64L31.86 10.64L31.86 10.64Q31.86 10.30 31.92 10.08L31.92 10.08L31.50 10.08L31.50 10.08Q31.44 9.84 31.44 9.52L31.44 9.52L31.44 9.52Q31.44 9.18 31.50 8.96L31.50 8.96L31.08 8.96L31.08 8.96Q31.02 8.72 31.02 8.40L31.02 8.40L31.02 8.40Q31.02 8.06 31.08 7.84L31.08 7.84L29.68 7.84L29.68 7.84Q29.74 8.06 29.74 8.40L29.74 8.40L29.74 8.40Q29.74 8.72 29.68 8.96L29.68 8.96L29.68 8.96Q29.74 9.18 29.74 9.52L29.74 9.52L29.74 9.52Q29.74 9.84 29.68 10.08L29.68 10.08L29.68 10.08Q29.74 10.30 29.74 10.64L29.74 10.64L29.74 10.64Q29.74 10.96 29.68 11.20L29.68 11.20L28.56 11.20L28.56 11.20Q28.50 10.96 28.50 10.64L28.50 10.64L28.50 10.64Q28.50 10.30 28.56 10.08L28.56 10.08L28.56 10.08Q28.50 9.84 28.50 9.52L28.50 9.52L28.50 9.52Q28.50 9.18 28.56 8.96L28.56 8.96L28.56 8.96Q28.50 8.72 28.50 8.40L28.50 8.40L28.50 8.40Q28.50 8.06 28.56 7.84L28.56 7.84L28.56 7.84Q28.50 7.60 28.50 7.28L28.50 7.28L28.50 7.28Q28.50 6.94 28.56 6.72L28.56 6.72L28.56 6.72Q28.50 6.48 28.50 6.16L28.50 6.16L28.50 6.16Q28.50 5.82 28.56 5.60L28.56 5.60L28.56 5.60Q28.50 5.36 28.50 5.04L28.50 5.04L28.50 5.04Q28.50 4.70 28.56 4.48L28.56 4.48L28.56 4.48Q28.50 4.24 28.50 3.92L28.50 3.92L28.50 3.92Q28.50 3.58 28.56 3.36L28.56 3.36L32.48 3.36L32.48 3.36Q32.54 3.58 32.54 3.92L32.54 3.92L32.54 3.92Q32.54 4.24 32.48 4.48L32.48 4.48L33.04 4.48L33.04 4.48Q33.10 4.70 33.10 5.04L33.10 5.04L33.10 5.04Q33.10 5.36 33.04 5.60L33.04 5.60L32.76 5.60L32.76 5.60Q32.82 5.82 32.82 6.16L32.82 6.16L32.82 6.16Q32.82 6.48 32.76 6.72L32.76 6.72L31.92 6.72L31.92 6.72Q31.98 6.94 31.98 7.28L31.98 7.28L31.98 7.28Q31.98 7.60 31.92 7.84L31.92 7.84L32.20 7.84L32.20 7.84Q32.26 8.06 32.26 8.40L32.26 8.40L32.26 8.40Q32.26 8.72 32.20 8.96L32.20 8.96L32.62 8.96L32.62 8.96Q32.68 9.18 32.68 9.52L32.68 9.52L32.68 9.52Q32.68 9.84 32.62 10.08L32.62 10.08ZM31.64 6.72L31.64 6.72Q31.58 6.48 31.58 6.16L31.58 6.16L31.58 6.16Q31.58 5.82 31.64 5.60L31.64 5.60L31.64 5.60Q31.58 5.36 31.58 5.04L31.58 5.04L31.58 5.04Q31.58 4.70 31.64 4.48L31.64 4.48L29.68 4.48L29.68 4.48Q29.74 4.70 29.74 5.04L29.74 5.04L29.74 5.04Q29.74 5.36 29.68 5.60L29.68 5.60L29.68 5.60Q29.74 5.82 29.74 6.16L29.74 6.16L29.74 6.16Q29.74 6.48 29.68 6.72L29.68 6.72L31.64 6.72ZM38.64 6.72L38.64 6.72Q38.70 6.94 38.70 7.28L38.70 7.28L38.70 7.28Q38.70 7.60 38.64 7.84L38.64 7.84L38.64 7.84Q38.70 8.06 38.70 8.40L38.70 8.40L38.70 8.40Q38.70 8.72 38.64 8.96L38.64 8.96L38.22 8.96L38.22 8.96Q38.28 9.18 38.28 9.52L38.28 9.52L38.28 9.52Q38.28 9.84 38.22 10.08L38.22 10.08L37.52 10.08L37.52 10.08Q37.58 10.30 37.58 10.64L37.58 10.64L37.58 10.64Q37.58 10.96 37.52 11.20L37.52 11.20L35.28 11.20L35.28 11.20Q35.22 10.96 35.22 10.64L35.22 10.64L35.22 10.64Q35.22 10.30 35.28 10.08L35.28 10.08L34.58 10.08L34.58 10.08Q34.52 9.84 34.52 9.52L34.52 9.52L34.52 9.52Q34.52 9.18 34.58 8.96L34.58 8.96L34.16 8.96L34.16 8.96Q34.10 8.72 34.10 8.40L34.10 8.40L34.10 8.40Q34.10 8.06 34.16 7.84L34.16 7.84L34.16 7.84Q34.10 7.60 34.10 7.28L34.10 7.28L34.10 7.28Q34.10 6.94 34.16 6.72L34.16 6.72L34.16 6.72Q34.10 6.48 34.10 6.16L34.10 6.16L34.10 6.16Q34.10 5.82 34.16 5.60L34.16 5.60L34.58 5.60L34.58 5.60Q34.52 5.36 34.52 5.04L34.52 5.04L34.52 5.04Q34.52 4.70 34.58 4.48L34.58 4.48L35.28 4.48L35.28 4.48Q35.22 4.24 35.22 3.92L35.22 3.92L35.22 3.92Q35.22 3.58 35.28 3.36L35.28 3.36L37.52 3.36L37.52 3.36Q37.58 3.58 37.58 3.92L37.58 3.92L37.58 3.92Q37.58 4.24 37.52 4.48L37.52 4.48L38.22 4.48L38.22 4.48Q38.28 4.70 38.28 5.04L38.28 5.04L38.28 5.04Q38.28 5.36 38.22 5.60L38.22 5.60L38.64 5.60L38.64 5.60Q38.70 5.82 38.70 6.16L38.70 6.16L38.70 6.16Q38.70 6.48 38.64 6.72L38.64 6.72ZM37.52 8.96L37.52 8.96Q37.46 8.72 37.46 8.40L37.46 8.40L37.46 8.40Q37.46 8.06 37.52 7.84L37.52 7.84L37.52 7.84Q37.46 7.60 37.46 7.28L37.46 7.28L37.46 7.28Q37.46 6.94 37.52 6.72L37.52 6.72L37.52 6.72Q37.46 6.48 37.46 6.16L37.46 6.16L37.46 6.16Q37.46 5.82 37.52 5.60L37.52 5.60L37.10 5.60L37.10 5.60Q37.04 5.36 37.04 5.04L37.04 5.04L37.04 5.04Q37.04 4.70 37.10 4.48L37.10 4.48L35.70 4.48L35.70 4.48Q35.76 4.70 35.76 5.04L35.76 5.04L35.76 5.04Q35.76 5.36 35.70 5.60L35.70 5.60L35.28 5.60L35.28 5.60Q35.34 5.82 35.34 6.16L35.34 6.16L35.34 6.16Q35.34 6.48 35.28 6.72L35.28 6.72L35.28 6.72Q35.34 6.94 35.34 7.28L35.34 7.28L35.34 7.28Q35.34 7.60 35.28 7.84L35.28 7.84L35.28 7.84Q35.34 8.06 35.34 8.40L35.34 8.40L35.34 8.40Q35.34 8.72 35.28 8.96L35.28 8.96L35.70 8.96L35.70 8.96Q35.76 9.18 35.76 9.52L35.76 9.52L35.76 9.52Q35.76 9.84 35.70 10.08L35.70 10.08L37.10 10.08L37.10 10.08Q37.04 9.84 37.04 9.52L37.04 9.52L37.04 9.52Q37.04 9.18 37.10 8.96L37.10 8.96L37.52 8.96ZM44.24 4.48L44.24 4.48Q44.30 4.70 44.30 5.04L44.30 5.04L44.30 5.04Q44.30 5.36 44.24 5.60L44.24 5.60L44.24 5.60Q44.30 5.82 44.30 6.16L44.30 6.16L44.30 6.16Q44.30 6.48 44.24 6.72L44.24 6.72L44.24 6.72Q44.30 6.94 44.30 7.28L44.30 7.28L44.30 7.28Q44.30 7.60 44.24 7.84L44.24 7.84L44.24 7.84Q44.30 8.06 44.30 8.40L44.30 8.40L44.30 8.40Q44.30 8.72 44.24 8.96L44.24 8.96L44.24 8.96Q44.30 9.18 44.30 9.52L44.30 9.52L44.30 9.52Q44.30 9.84 44.24 10.08L44.24 10.08L44.24 10.08Q44.30 10.30 44.30 10.64L44.30 10.64L44.30 10.64Q44.30 10.96 44.24 11.20L44.24 11.20L43.12 11.20L43.12 11.20Q43.06 10.96 43.06 10.64L43.06 10.64L43.06 10.64Q43.06 10.30 43.12 10.08L43.12 10.08L43.12 10.08Q43.06 9.84 43.06 9.52L43.06 9.52L43.06 9.52Q43.06 9.18 43.12 8.96L43.12 8.96L43.12 8.96Q43.06 8.72 43.06 8.40L43.06 8.40L43.06 8.40Q43.06 8.06 43.12 7.84L43.12 7.84L43.12 7.84Q43.06 7.60 43.06 7.28L43.06 7.28L43.06 7.28Q43.06 6.94 43.12 6.72L43.12 6.72L43.12 6.72Q43.06 6.48 43.06 6.16L43.06 6.16L43.06 6.16Q43.06 5.82 43.12 5.60L43.12 5.60L42.70 5.60L42.70 5.60Q42.76 5.82 42.76 6.16L42.76 6.16L42.76 6.16Q42.76 6.48 42.70 6.72L42.70 6.72L42.70 6.72Q42.76 6.94 42.76 7.28L42.76 7.28L42.76 7.28Q42.76 7.60 42.70 7.84L42.70 7.84L42.42 7.84L42.42 7.84Q42.48 8.06 42.48 8.40L42.48 8.40L42.48 8.40Q42.48 8.72 42.42 8.96L42.42 8.96L42.42 8.96Q42.48 9.18 42.48 9.52L42.48 9.52L42.48 9.52Q42.48 9.84 42.42 10.08L42.42 10.08L41.58 10.08L41.58 10.08Q41.52 9.84 41.52 9.52L41.52 9.52L41.52 9.52Q41.52 9.18 41.58 8.96L41.58 8.96L41.58 8.96Q41.52 8.72 41.52 8.40L41.52 8.40L41.52 8.40Q41.52 8.06 41.58 7.84L41.58 7.84L41.30 7.84L41.30 7.84Q41.24 7.60 41.24 7.28L41.24 7.28L41.24 7.28Q41.24 6.94 41.30 6.72L41.30 6.72L41.30 6.72Q41.24 6.48 41.24 6.16L41.24 6.16L41.24 6.16Q41.24 5.82 41.30 5.60L41.30 5.60L40.88 5.60L40.88 5.60Q40.94 5.82 40.94 6.16L40.94 6.16L40.94 6.16Q40.94 6.48 40.88 6.72L40.88 6.72L40.88 6.72Q40.94 6.94 40.94 7.28L40.94 7.28L40.94 7.28Q40.94 7.60 40.88 7.84L40.88 7.84L40.88 7.84Q40.94 8.06 40.94 8.40L40.94 8.40L40.94 8.40Q40.94 8.72 40.88 8.96L40.88 8.96L40.88 8.96Q40.94 9.18 40.94 9.52L40.94 9.52L40.94 9.52Q40.94 9.84 40.88 10.08L40.88 10.08L40.88 10.08Q40.94 10.30 40.94 10.64L40.94 10.64L40.94 10.64Q40.94 10.96 40.88 11.20L40.88 11.20L39.76 11.20L39.76 11.20Q39.70 10.96 39.70 10.64L39.70 10.64L39.70 10.64Q39.70 10.30 39.76 10.08L39.76 10.08L39.76 10.08Q39.70 9.84 39.70 9.52L39.70 9.52L39.70 9.52Q39.70 9.18 39.76 8.96L39.76 8.96L39.76 8.96Q39.70 8.72 39.70 8.40L39.70 8.40L39.70 8.40Q39.70 8.06 39.76 7.84L39.76 7.84L39.76 7.84Q39.70 7.60 39.70 7.28L39.70 7.28L39.70 7.28Q39.70 6.94 39.76 6.72L39.76 6.72L39.76 6.72Q39.70 6.48 39.70 6.16L39.70 6.16L39.70 6.16Q39.70 5.82 39.76 5.60L39.76 5.60L39.76 5.60Q39.70 5.36 39.70 5.04L39.70 5.04L39.70 5.04Q39.70 4.70 39.76 4.48L39.76 4.48L39.76 4.48Q39.70 4.24 39.70 3.92L39.70 3.92L39.70 3.92Q39.70 3.58 39.76 3.36L39.76 3.36L41.16 3.36L41.16 3.36Q41.22 3.58 41.22 3.92L41.22 3.92L41.22 3.92Q41.22 4.24 41.16 4.48L41.16 4.48L41.58 4.48L41.58 4.48Q41.64 4.70 41.64 5.04L41.64 5.04L41.64 5.04Q41.64 5.36 41.58 5.60L41.58 5.60L41.79 5.60L41.79 5.60Q41.85 5.82 41.85 6.16L41.85 6.16L41.85 6.16Q41.85 6.48 41.79 6.72L41.79 6.72L42.21 6.72L42.21 6.72Q42.15 6.48 42.15 6.16L42.15 6.16L42.15 6.16Q42.15 5.82 42.21 5.60L42.21 5.60L42.42 5.60L42.42 5.60Q42.36 5.36 42.36 5.04L42.36 5.04L42.36 5.04Q42.36 4.70 42.42 4.48L42.42 4.48L42.84 4.48L42.84 4.48Q42.78 4.24 42.78 3.92L42.78 3.92L42.78 3.92Q42.78 3.58 42.84 3.36L42.84 3.36L44.24 3.36L44.24 3.36Q44.30 3.58 44.30 3.92L44.30 3.92L44.30 3.92Q44.30 4.24 44.24 4.48L44.24 4.48Z"></path></g><!----><!----></svg>